<?xml version="1.0" encoding="UTF-8" standalone="no"?>
<svg
   viewBox="0 0 600 600"
   width="600"
   height="600"
   version="1.1"
   id="svg20"
   xmlns="http://www.w3.org/2000/svg"
   xmlns:svg="http://www.w3.org/2000/svg">
  <defs
     id="defs24" />
  <g
     transform="matrix(1.5,0,0,1.5,-150,-165)"
     id="g18">
    <path
       id="line2"
       style="stroke:#2e3c23;stroke-width:6.5;stroke-linecap:round"
       d="M 300,400 V 290.79999" />
    <path
       d="m 300,290.8 c 0,-16.8 -12.6,-21 -27.3,-29.4"
       fill="none"
       stroke="#2e3c23"
       stroke-width="6.5"
       stroke-linecap="round"
       id="path4" />
    <path
       d="M 272.7,261.4 C 233.9,251.4 214.3,217 216,190 c 24.2,6.4 52.5,34 56.7,71.4 z"
       fill="none"
       stroke="#2e3c23"
       stroke-width="6.5"
       stroke-linejoin="round"
       id="path6" />
    <path
       d="M 272.7,261.4 Q 247,232.9 226.2,202.9"
       fill="none"
       stroke="#2e3c23"
       stroke-width="5.52"
       stroke-linecap="round"
       id="path8" />
    <path
       d="m 300,290.8 c 0,-16.8 12.6,-21 27.3,-29.4"
       fill="none"
       stroke="#2e3c23"
       stroke-width="6.5"
       stroke-linecap="round"
       id="path10" />
    <path
       d="m 327.3,261.4 c 38.8,-10 58.4,-44.4 56.7,-71.4 -24.2,6.4 -52.5,34 -56.7,71.4 z"
       fill="none"
       stroke="#2e3c23"
       stroke-width="6.5"
       stroke-linejoin="round"
       id="path12" />
    <path
       d="M 327.3,261.4 Q 353,232.9 373.8,202.9"
       fill="none"
       stroke="#2e3c23"
       stroke-width="5.52"
       stroke-linecap="round"
       id="path14" />
    <path
       id="circle16"
       style="fill:#584025"
       d="m 315,400 a 15,15 0 0 1 -15,15 15,15 0 0 1 -15,-15 15,15 0 0 1 15,-15 15,15 0 0 1 15,15 z" />
  </g>
</svg>
