<?xml version="1.0" encoding="UTF-8" standalone="no"?>
<svg
   viewBox="0 0 600 600"
   width="600"
   height="600"
   version="1.1"
   id="svg86"
   xmlns="http://www.w3.org/2000/svg"
   xmlns:svg="http://www.w3.org/2000/svg">
  <defs
     id="defs90" />
  <circle
     cx="300"
     cy="300"
     r="290"
     fill="#2E3C23"
     id="circle2" />
  <g
     transform="matrix(0.78,0,0,0.78,66,74)"
     id="g84">
    <path
       d="M 272,505 C 104,462 68,288 164,118"
       fill="none"
       stroke="#f4efe6"
       stroke-width="6.75"
       stroke-linecap="round"
       id="path4" />
    <path
       d="m 225.6,488.3 q -13.5,-0.2 -21.5,10.7 13.5,0.2 21.5,-10.7 z"
       fill="none"
       stroke="#f4efe6"
       stroke-width="5.58"
       stroke-linejoin="round"
       id="path6" />
    <path
       d="m 225.6,488.3 q 3.4,-13 -5.2,-23.4 -3.5,13 5.2,23.4 z"
       fill="none"
       stroke="#f4efe6"
       stroke-width="5.58"
       stroke-linejoin="round"
       id="path8" />
    <path
       d="m 176,455.2 q -12.9,-4.1 -23.7,4.1 12.9,4.1 23.7,-4.1 z"
       fill="none"
       stroke="#f4efe6"
       stroke-width="5.58"
       stroke-linejoin="round"
       id="path10" />
    <path
       d="m 176,455.2 q 7,-11.5 1.8,-23.9 -7.1,11.5 -1.8,23.9 z"
       fill="none"
       stroke="#f4efe6"
       stroke-width="5.58"
       stroke-linejoin="round"
       id="path12" />
    <path
       d="m 140.4,411.5 q -11,-7.7 -23.8,-3.1 11.1,7.7 23.8,3.1 z"
       fill="none"
       stroke="#f4efe6"
       stroke-width="5.58"
       stroke-linejoin="round"
       id="path14" />
    <path
       d="m 140.4,411.5 q 10.2,-8.9 8.8,-22.3 -10.1,8.9 -8.8,22.3 z"
       fill="none"
       stroke="#f4efe6"
       stroke-width="5.58"
       stroke-linejoin="round"
       id="path16" />
    <path
       d="m 119,359.1 q -8.5,-10.5 -22,-9.6 8.5,10.5 22,9.6 z"
       fill="none"
       stroke="#f4efe6"
       stroke-width="5.58"
       stroke-linejoin="round"
       id="path18" />
    <path
       d="m 119,359.1 q 12.2,-5.7 14.6,-19 -12.2,5.7 -14.6,19 z"
       fill="none"
       stroke="#f4efe6"
       stroke-width="5.58"
       stroke-linejoin="round"
       id="path20" />
    <path
       d="m 111.6,300 q -5.7,-12.3 -18.9,-14.7 5.7,12.2 18.9,14.7 z"
       fill="none"
       stroke="#f4efe6"
       stroke-width="5.58"
       stroke-linejoin="round"
       id="path22" />
    <path
       d="m 111.6,300 q 13.3,-2.6 18.9,-14.9 -13.3,2.6 -18.9,14.9 z"
       fill="none"
       stroke="#f4efe6"
       stroke-width="5.58"
       stroke-linejoin="round"
       id="path24" />
    <path
       d="m 118.4,235.9 q -3,-13.1 -15.5,-18.3 3,13.2 15.5,18.3 z"
       fill="none"
       stroke="#f4efe6"
       stroke-width="5.58"
       stroke-linejoin="round"
       id="path26" />
    <path
       d="m 118.4,235.9 q 13.5,0.3 21.5,-10.6 -13.5,-0.2 -21.5,10.6 z"
       fill="none"
       stroke="#f4efe6"
       stroke-width="5.58"
       stroke-linejoin="round"
       id="path28" />
    <path
       d="m 139.2,169 q -0.6,-13.5 -11.9,-20.9 0.5,13.5 11.9,20.9 z"
       fill="none"
       stroke="#f4efe6"
       stroke-width="5.58"
       stroke-linejoin="round"
       id="path30" />
    <path
       d="m 139.2,169 q 13.2,2.7 23.1,-6.5 -13.3,-2.7 -23.1,6.5 z"
       fill="none"
       stroke="#f4efe6"
       stroke-width="5.58"
       stroke-linejoin="round"
       id="path32" />
    <path
       d="M 164,118 Q 175.6,110.1 176.4,96.1 164.8,104 164,118 Z"
       fill="none"
       stroke="#f4efe6"
       stroke-width="5.58"
       stroke-linejoin="round"
       id="path34" />
    <path
       d="M 328,505 C 496,462 532,288 436,118"
       fill="none"
       stroke="#f4efe6"
       stroke-width="6.75"
       stroke-linecap="round"
       id="path36" />
    <path
       d="m 374.4,488.3 q 8.7,-10.4 5.2,-23.4 -8.6,10.4 -5.2,23.4 z"
       fill="none"
       stroke="#f4efe6"
       stroke-width="5.58"
       stroke-linejoin="round"
       id="path38" />
    <path
       d="m 374.4,488.3 q 8,10.9 21.5,10.7 -8,-10.9 -21.5,-10.7 z"
       fill="none"
       stroke="#f4efe6"
       stroke-width="5.58"
       stroke-linejoin="round"
       id="path40" />
    <path
       d="m 424,455.2 q 5.3,-12.4 -1.8,-23.9 -5.2,12.4 1.8,23.9 z"
       fill="none"
       stroke="#f4efe6"
       stroke-width="5.58"
       stroke-linejoin="round"
       id="path42" />
    <path
       d="m 424,455.2 q 10.8,8.2 23.7,4.1 -10.8,-8.2 -23.7,-4.1 z"
       fill="none"
       stroke="#f4efe6"
       stroke-width="5.58"
       stroke-linejoin="round"
       id="path44" />
    <path
       d="m 459.6,411.5 q 1.3,-13.4 -8.8,-22.3 -1.4,13.4 8.8,22.3 z"
       fill="none"
       stroke="#f4efe6"
       stroke-width="5.58"
       stroke-linejoin="round"
       id="path46" />
    <path
       d="m 459.6,411.5 q 12.7,4.6 23.8,-3.1 -12.8,-4.6 -23.8,3.1 z"
       fill="none"
       stroke="#f4efe6"
       stroke-width="5.58"
       stroke-linejoin="round"
       id="path48" />
    <path
       d="m 481,359.1 q -2.4,-13.3 -14.6,-19 2.4,13.3 14.6,19 z"
       fill="none"
       stroke="#f4efe6"
       stroke-width="5.58"
       stroke-linejoin="round"
       id="path50" />
    <path
       d="m 481,359.1 q 13.5,0.9 22,-9.6 -13.5,-0.9 -22,9.6 z"
       fill="none"
       stroke="#f4efe6"
       stroke-width="5.58"
       stroke-linejoin="round"
       id="path52" />
    <path
       d="m 488.4,300 q -5.6,-12.3 -18.9,-14.9 5.6,12.3 18.9,14.9 z"
       fill="none"
       stroke="#f4efe6"
       stroke-width="5.58"
       stroke-linejoin="round"
       id="path54" />
    <path
       d="m 488.4,300 q 13.2,-2.5 18.9,-14.7 -13.2,2.4 -18.9,14.7 z"
       fill="none"
       stroke="#f4efe6"
       stroke-width="5.58"
       stroke-linejoin="round"
       id="path56" />
    <path
       d="m 481.6,235.9 q -8,-10.8 -21.5,-10.6 8,10.9 21.5,10.6 z"
       fill="none"
       stroke="#f4efe6"
       stroke-width="5.58"
       stroke-linejoin="round"
       id="path58" />
    <path
       d="m 481.6,235.9 q 12.5,-5.1 15.5,-18.3 -12.5,5.2 -15.5,18.3 z"
       fill="none"
       stroke="#f4efe6"
       stroke-width="5.58"
       stroke-linejoin="round"
       id="path60" />
    <path
       d="m 460.8,169 q -9.8,-9.2 -23.1,-6.5 9.9,9.2 23.1,6.5 z"
       fill="none"
       stroke="#f4efe6"
       stroke-width="5.58"
       stroke-linejoin="round"
       id="path62" />
    <path
       d="m 460.8,169 q 11.4,-7.4 11.9,-20.9 -11.3,7.4 -11.9,20.9 z"
       fill="none"
       stroke="#f4efe6"
       stroke-width="5.58"
       stroke-linejoin="round"
       id="path64" />
    <path
       d="m 436,118 q -0.8,-14 -12.4,-21.9 0.8,14 12.4,21.9 z"
       fill="none"
       stroke="#f4efe6"
       stroke-width="5.58"
       stroke-linejoin="round"
       id="path66" />
    <path
       id="line68"
       style="stroke:#f4efe6;stroke-width:10;stroke-linecap:round"
       d="M 300,428 V 288.60001" />
    <path
       d="m 300,288.6 c 0,-21.4 -16.1,-26.8 -34.8,-37.5"
       fill="none"
       stroke="#f4efe6"
       stroke-width="10"
       stroke-linecap="round"
       id="path70" />
    <path
       d="m 265.2,251.1 c -49.5,-12.7 -74.6,-56.7 -72.4,-91.1 30.9,8.2 67,43.4 72.4,91.1 z"
       fill="none"
       stroke="#f4efe6"
       stroke-width="10"
       stroke-linejoin="round"
       id="path72" />
    <path
       d="M 265.2,251.1 Q 232.4,214.8 205.8,176.4"
       fill="none"
       stroke="#f4efe6"
       stroke-width="8.5"
       stroke-linecap="round"
       id="path74" />
    <path
       d="m 300,288.6 c 0,-21.4 16.1,-26.8 34.8,-37.5"
       fill="none"
       stroke="#f4efe6"
       stroke-width="10"
       stroke-linecap="round"
       id="path76" />
    <path
       d="m 334.8,251.1 c 49.5,-12.7 74.6,-56.7 72.4,-91.1 -30.9,8.2 -67,43.4 -72.4,91.1 z"
       fill="none"
       stroke="#f4efe6"
       stroke-width="10"
       stroke-linejoin="round"
       id="path78" />
    <path
       d="m 334.8,251.1 q 32.8,-36.3 59.4,-74.7"
       fill="none"
       stroke="#f4efe6"
       stroke-width="8.5"
       stroke-linecap="round"
       id="path80" />
    <path
       id="circle82"
       style="fill:#f4efe6"
       d="m 321,428 a 21,21 0 0 1 -21,21 21,21 0 0 1 -21,-21 21,21 0 0 1 21,-21 21,21 0 0 1 21,21 z" />
  </g>
</svg>
