<?xml version="1.0" encoding="UTF-8" standalone="no"?>
<svg
   viewBox="0 0 1600 280"
   width="1600"
   height="280"
   version="1.1"
   id="svg216"
   xmlns="http://www.w3.org/2000/svg"
   xmlns:svg="http://www.w3.org/2000/svg">
  <defs
     id="defs220" />
  <rect
     width="1600"
     height="280"
     fill="#2E3C23"
     id="rect2" />
  <g
     transform="matrix(0.345,0,0,0.345,126.5,36.5)"
     id="g104">
    <path
       id="circle4"
       style="fill:none;stroke:#f4efe6;stroke-width:7"
       d="M 581,300 A 281,281 0 0 1 300,581 281,281 0 0 1 19,300 281,281 0 0 1 300,19 281,281 0 0 1 581,300 Z" />
    <g
       aria-label="S"
       transform="rotate(-69.66,99.35,225.6)"
       id="text6"
       style="font-size:59px;font-family:'Cormorant Garamond SemiBold';text-anchor:middle;fill:#f4efe6">
      <path
         d="m 94.069499,195.03801 q 0,2.301 1.18,4.012 1.18,1.652 3.009,3.009 1.888001,1.357 3.953001,2.655 2.242,1.357 4.248,2.891 2.065,1.534 3.363,3.54 1.357,1.947 1.357,4.779 0,3.068 -1.593,5.428 -1.593,2.301 -4.425,3.658 -2.773,1.298 -6.549001,1.298 -1.593,0 -3.363,-0.295 -1.711,-0.295 -3.245,-0.826 -1.475,-0.531 -2.419,-1.121 -0.236,-0.177 -0.413,-0.413 -0.118,-0.236 -0.177,-0.708 l -0.354,-8.909 q -0.059,-0.295 0.236,-0.295 0.354,-0.059 0.413,0.177 0.708,1.77 1.652,3.776 1.003,1.947 2.301,3.599 1.298,1.652 2.95,2.714 1.711,1.003 3.894001,1.003 1.534,0 2.891,-0.531 1.357,-0.531 2.242,-1.829 0.885,-1.357 0.885,-3.658 0,-2.773 -1.298,-4.72 -1.239,-2.006 -3.186,-3.481 -1.947001,-1.475 -4.071001,-2.773 -2.065,-1.357 -3.953,-2.773 -1.888,-1.416 -3.127,-3.245 -1.18,-1.888 -1.18,-4.543 0,-3.245 1.77,-5.31 1.77,-2.065 4.484,-3.068 2.773,-1.003 5.664001,-1.003 1.947,0 3.953,0.354 2.006,0.354 3.422,1.003 0.531,0.177 0.708,0.472 0.177,0.295 0.177,0.649 l 0.118,7.965 q 0,0.236 -0.295,0.295 -0.236,0.059 -0.354,-0.118 -0.295,-0.885 -0.885,-2.419 -0.59,-1.593 -1.652,-3.186 -1.062,-1.593 -2.655,-2.714 -1.593,-1.121 -3.894001,-1.121 -1.77,0 -3.068,0.708 -1.298,0.708 -2.006,2.006 -0.708,1.239 -0.708,3.068 z"
         id="path223" />
    </g>
    <g
       aria-label="M"
       transform="rotate(-55.73,123.16,179.48)"
       id="text8"
       style="font-size:59px;font-family:'Cormorant Garamond SemiBold';text-anchor:middle;fill:#f4efe6">
      <path
         d="m 105.04699,172.341 0.59,-28.379 1.593,0.118 -0.649,28.261 q -0.059,3.127 1.18,4.779 1.298,1.652 3.835,1.652 0.177,0 0.177,0.354 0,0.354 -0.177,0.354 -1.298,0 -2.655,-0.059 -1.357,-0.059 -3.068,-0.059 -1.77,0 -3.245,0.059 -1.416,0.059 -2.713998,0.059 -0.177,0 -0.177,-0.354 0,-0.354 0.177,-0.354 2.418998,0 3.716998,-1.652 1.357,-1.652 1.416,-4.779 z m 41.772,6.431 q 0.118,0 0.118,0.354 0,0.354 -0.118,0.354 -1.534,0 -3.422,-0.059 -1.888,-0.059 -3.953,-0.059 -2.065,0 -3.894,0.059 -1.77,0.059 -3.245,0.059 -0.118,0 -0.118,-0.354 0,-0.354 0.118,-0.354 2.832,0 3.658,-0.767 0.826,-0.767 0.649,-3.304 l -1.239,-26.963 2.596,-4.071 -15.104,35.4 q -0.059,0.236 -0.472,0.236 -0.413,0 -0.531,-0.236 l -15.989,-31.565 q -2.124,-4.189 -5.546,-4.189 -0.177,0 -0.177,-0.354 0,-0.354 0.177,-0.354 1.121,0 2.36,0.059 1.298,0.059 2.183,0.059 1.298,0 2.301,-0.059 1.062,-0.059 1.652,-0.059 0.826,0 1.239,0.59 0.472,0.531 1.475,2.478 l 13.275,26.019 -2.537,4.484 13.983,-32.096 q 0.354,-0.767 0.767,-1.121 0.413,-0.354 1.003,-0.354 0.531,0 1.121,0.059 0.649,0.059 1.534,0.059 1.77,0 3.009,-0.059 1.239,-0.059 2.419,-0.059 0.177,0 0.177,0.354 0,0.354 -0.177,0.354 -2.714,0 -4.012,1.003 -1.298,1.003 -1.18,3.422 l 1.298,26.963 q 0.118,1.711 0.413,2.596 0.354,0.885 1.298,1.18 1.003,0.295 2.891,0.295 z"
         id="path226" />
    </g>
    <g
       aria-label="A"
       transform="rotate(-40.18,161.92,136.51)"
       id="text10"
       style="font-size:59px;font-family:'Cormorant Garamond SemiBold';text-anchor:middle;fill:#f4efe6">
      <path
         d="m 151.50649,122.05499 0.767,-1.475 h 16.52 l 0.413,1.475 z m 31.388,13.747 q 0.236,0 0.236,0.354 0,0.354 -0.236,0.354 -1.77,0 -3.658,-0.118 -1.829,-0.118 -3.54,-0.118 -1.947,0 -3.422,0.118 -1.416,0.118 -3.186,0.118 -0.236,0 -0.236,-0.354 0,-0.354 0.236,-0.354 2.655,0 3.186,-0.944 0.531,-0.944 -0.885,-3.717 l -12.331,-25.075 2.419,-3.953 -11.682,26.314 q -1.534,3.599 -0.118,5.487 1.475,1.888 4.956,1.888 0.295,0 0.295,0.354 0,0.354 -0.295,0.354 -1.77,0 -3.245,-0.118 -1.475,-0.118 -3.717,-0.118 -2.242,0 -3.599,0.118 -1.298,0.118 -3.245,0.118 -0.236,0 -0.236,-0.354 0,-0.354 0.236,-0.354 1.593,0 2.714,-0.649 1.18,-0.649 2.301,-2.36 1.121,-1.77 2.478,-4.897 l 12.685,-28.614995 q 0.118,-0.177 0.531,-0.177 0.413,0 0.472,0.177 l 14.455,29.145995 q 1.357,2.832 2.419,4.484 1.062,1.593 2.006,2.242 0.944,0.649 2.006,0.649 z"
         id="path229" />
    </g>
    <g
       aria-label="L"
       transform="rotate(-27.08,202.57,109.46)"
       id="text12"
       style="font-size:59px;font-family:'Cormorant Garamond SemiBold';text-anchor:middle;fill:#f4efe6">
      <path
         d="M 198.5875,77.422999 V 104.445 q 0,1.475 0.295,2.242 0.295,0.767 1.121,1.003 0.826,0.236 2.419,0.236 h 3.54 q 4.189,0 7.08,-2.36 2.891,-2.36 3.835,-6.254001 0.059,-0.177 0.354,-0.118 0.295,0.059 0.295,0.236 -0.177,1.829001 -0.354,4.425001 -0.177,2.537 -0.177,4.72 0,0.885 -0.885,0.885 h -27.612 q -0.118,0 -0.118,-0.354 0,-0.354 0.118,-0.354 1.888,0 2.832,-0.295 1.003,-0.295 1.298,-1.18 0.354,-0.885 0.354,-2.596 V 77.363999 q 0,-1.711 -0.354,-2.537 -0.295,-0.885 -1.298,-1.18 -0.944,-0.354 -2.832,-0.354 -0.118,0 -0.118,-0.354 0,-0.354 0.118,-0.354 1.416,0 3.304,0.118 1.888,0.059 3.953,0.059 2.183,0 4.012,-0.059 1.888,-0.118 3.304,-0.118 0.177,0 0.177,0.354 0,0.354 -0.177,0.354 -1.888,0 -2.891,0.354 -0.944,0.295 -1.298,1.18 -0.295,0.885 -0.295,2.596 z"
         id="path232" />
    </g>
    <g
       aria-label="L"
       transform="rotate(-15.32,243.45,93.61)"
       id="text14"
       style="font-size:59px;font-family:'Cormorant Garamond SemiBold';text-anchor:middle;fill:#f4efe6">
      <path
         d="m 239.46749,61.573001 v 27.022 q 0,1.475 0.295,2.242 0.295,0.767 1.121,1.003 0.826,0.236 2.419,0.236 h 3.54 q 4.189,0 7.08,-2.36 2.891,-2.36 3.835,-6.254 0.059,-0.177 0.354,-0.118 0.295,0.059 0.295,0.236 -0.177,1.829 -0.354,4.425 -0.177,2.537 -0.177,4.72 0,0.885 -0.885,0.885 h -27.612 q -0.118,0 -0.118,-0.354 0,-0.354 0.118,-0.354 1.888,0 2.832,-0.295 1.003,-0.295 1.298,-1.18 0.354,-0.885 0.354,-2.596 v -27.317 q 0,-1.711 -0.354,-2.537 -0.295,-0.885 -1.298,-1.18 -0.944,-0.354 -2.832,-0.354 -0.118,0 -0.118,-0.354 0,-0.354 0.118,-0.354 1.416,0 3.304,0.118 1.888,0.059 3.953,0.059 2.183,0 4.012,-0.059 1.888,-0.118 3.304,-0.118 0.177,0 0.177,0.354 0,0.354 -0.177,0.354 -1.888,0 -2.891,0.354 -0.944,0.295 -1.298,1.18 -0.295,0.885 -0.295,2.596 z"
         id="path235" />
    </g>
    <g
       aria-label="T"
       transform="rotate(4.13,315.4,86.55)"
       id="text16"
       style="font-size:59px;font-family:'Cormorant Garamond SemiBold';text-anchor:middle;fill:#f4efe6">
      <path
         d="m 308.91001,50.914003 q -3.599,0 -5.9,2.242 -2.242,2.242 -3.54,6.608 0,0.177 -0.354,0.177 -0.295,-0.059 -0.295,-0.177 0.118,-0.826 0.236,-2.242 0.118,-1.475 0.236,-3.186 0.177,-1.711 0.236,-3.304 0.118,-1.652 0.118,-2.655 0,-0.295 0.295,-0.295 0.354,0 0.354,0.295 0,0.59 0.59,0.885 0.649,0.236 1.416,0.354 0.767,0.059 1.298,0.059 5.074,0.177 11.859,0.177 4.189,0 6.608,-0.059 2.478,-0.118 4.779,-0.118 2.124,0 3.186,-0.236 1.121,-0.295 1.416,-1.239 0.059,-0.236 0.354,-0.236 0.295,0 0.295,0.236 -0.059,0.944 -0.177,2.596 -0.118,1.593 -0.177,3.422 -0.059,1.77 -0.118,3.304 -0.059,1.475 -0.059,2.242 0,0.118 -0.354,0.118 -0.295,0 -0.354,-0.118 -0.649,-4.661 -2.832,-6.726 -2.183,-2.124 -5.841,-2.124 -1.593,0 -2.419,0.295 -0.826,0.295 -1.121,1.121 -0.295,0.767 -0.295,2.242 v 27.199 q 0,1.711 0.354,2.596 0.413,0.885 1.475,1.18 1.121,0.295 3.363,0.295 0.177,0 0.177,0.354 0,0.354 -0.177,0.354 -1.593,0 -3.658,-0.059 -2.006,-0.059 -4.425,-0.059 -2.301,0 -4.307,0.059 -2.006,0.059 -3.717,0.059 -0.118,0 -0.118,-0.354 0,-0.354 0.118,-0.354 2.242,0 3.363,-0.295 1.121,-0.295 1.475,-1.18 0.413,-0.885 0.413,-2.596 v -27.317 q 0,-1.475 -0.295,-2.183 -0.236,-0.767 -1.062,-1.062 -0.826,-0.295 -2.419,-0.295 z"
         id="path238" />
    </g>
    <g
       aria-label="H"
       transform="rotate(18.41,367.59,96.95)"
       id="text18"
       style="font-size:59px;font-family:'Cormorant Garamond SemiBold';text-anchor:middle;fill:#f4efe6">
      <path
         d="m 377.73802,64.971997 q 0,-1.711 -0.354,-2.596 -0.354,-0.885 -1.416,-1.239 -1.062,-0.354 -3.245,-0.354 -0.177,0 -0.177,-0.354 0,-0.354 0.177,-0.354 1.475,0 3.363,0.118 1.947,0.059 4.484,0.059 2.065,0 4.071,-0.059 2.006,-0.118 3.481,-0.118 0.177,0 0.177,0.354 0,0.354 -0.177,0.354 -2.065,0 -3.127,0.354 -1.003,0.295 -1.357,1.18 -0.354,0.826 -0.354,2.537 v 27.317 q 0,1.711 0.354,2.596 0.354,0.885 1.357,1.18 1.062,0.295 3.127,0.295 0.177,0 0.177,0.354 0,0.354 -0.177,0.354 -1.475,0 -3.481,-0.059 -2.006,-0.059 -4.071,-0.059 -2.537,0 -4.484,0.059 -1.888,0.059 -3.363,0.059 -0.177,0 -0.177,-0.354 0,-0.354 0.177,-0.354 2.183,0 3.245,-0.295 1.062,-0.295 1.416,-1.18 0.354,-0.885 0.354,-2.596 z m -23.305,13.57 v -1.534 h 25.842 v 1.534 z m -2.596,13.629 v -27.317 q 0,-1.711 -0.354,-2.537 -0.354,-0.885 -1.357,-1.18 -1.003,-0.354 -3.068,-0.354 -0.118,0 -0.118,-0.354 0,-0.354 0.118,-0.354 1.534,0 3.422,0.118 1.888,0.059 3.953,0.059 2.537,0 4.484,-0.059 1.947,-0.118 3.481,-0.118 0.118,0 0.118,0.354 0,0.354 -0.118,0.354 -2.124,0 -3.186,0.354 -1.062,0.354 -1.416,1.239 -0.354,0.885 -0.354,2.596 v 27.199 q 0,1.711 0.354,2.596 0.354,0.885 1.416,1.18 1.121,0.295 3.186,0.295 0.118,0 0.118,0.354 0,0.354 -0.118,0.354 -1.593,0 -3.54,-0.059 -1.888,-0.059 -4.425,-0.059 -2.065,0 -4.012,0.059 -1.947,0.059 -3.422,0.059 -0.118,0 -0.118,-0.354 0,-0.354 0.118,-0.354 2.065,0 3.068,-0.295 1.003,-0.295 1.357,-1.18 0.413,-0.885 0.413,-2.596 z"
         id="path241" />
    </g>
    <g
       aria-label="I"
       transform="rotate(30.32,408.04,115.27)"
       id="text20"
       style="font-size:59px;font-family:'Cormorant Garamond SemiBold';text-anchor:middle;fill:#f4efe6">
      <path
         d="m 410.84249,110.491 q 0,1.711 0.295,2.596 0.354,0.885 1.298,1.18 0.944,0.295 2.891,0.295 0.177,0 0.177,0.354 0,0.354 -0.177,0.354 -1.475,0 -3.304,-0.059 -1.829,-0.059 -4.071,-0.059 -2.065,0 -3.953,0.059 -1.888,0.059 -3.363,0.059 -0.177,0 -0.177,-0.354 0,-0.354 0.177,-0.354 1.888,0 2.891,-0.295 1.003,-0.295 1.298,-1.18 0.354,-0.885 0.354,-2.596 V 83.173997 q 0,-1.711 -0.354,-2.537 -0.295,-0.885 -1.298,-1.18 -1.003,-0.354 -2.891,-0.354 -0.177,0 -0.177,-0.354 0,-0.354 0.177,-0.354 1.475,0 3.363,0.118 1.888,0.059 3.953,0.059 2.242,0 4.071,-0.059 1.888,-0.118 3.304,-0.118 0.177,0 0.177,0.354 0,0.354 -0.177,0.354 -1.888,0 -2.891,0.354 -0.944,0.354 -1.298,1.239 -0.295,0.885 -0.295,2.596 z"
         id="path244" />
    </g>
    <g
       aria-label="N"
       transform="rotate(41.99,443.17,140.95)"
       id="text22"
       style="font-size:59px;font-family:'Cormorant Garamond SemiBold';text-anchor:middle;fill:#f4efe6">
      <path
         d="m 428.951,133.811 v -28.379 l 1.593,0.118 v 28.261 q 0,3.127 1.239,4.779 1.239,1.652 3.54,1.652 0.177,0 0.177,0.354 0,0.354 -0.177,0.354 -1.239,0 -2.596,-0.059 -1.298,-0.059 -2.891,-0.059 -1.711,0 -3.304,0.059 -1.534,0.059 -2.891,0.059 -0.177,0 -0.177,-0.354 0,-0.354 0.177,-0.354 2.596,0 3.953,-1.652 1.357,-1.652 1.357,-4.779 z m 29.972,7.965 q 0,0.177 -0.295,0.177 -0.295,0.059 -0.413,0 l -28.379,-33.04 q -2.124,-2.419 -3.658,-3.245 -1.475,-0.885 -2.891,-0.885 -0.177,0 -0.177,-0.354 0,-0.354 0.177,-0.354 1.121,0 2.301,0.059 1.18,0.059 2.183,0.059 1.77,0 3.186,-0.059 1.475,-0.059 2.242,-0.059 0.767,0 1.121,0.708 0.354,0.649 1.77,2.36 l 22.361,26.314 z m 0,-30.503 v 30.503 l -1.593,-1.77 v -28.733 q 0,-3.127 -1.239,-4.779 -1.18,-1.711 -3.54,-1.711 -0.118,0 -0.118,-0.354 0,-0.354 0.118,-0.354 1.239,0 2.596,0.118 1.357,0.059 2.95,0.059 1.534,0 3.009,-0.059 1.475,-0.118 2.714,-0.118 0.177,0 0.177,0.354 0,0.354 -0.177,0.354 -2.36,0 -3.658,1.711 -1.239,1.652 -1.239,4.779 z"
         id="path247" />
    </g>
    <g
       aria-label="G"
       transform="rotate(56.71,478.89,182.55)"
       id="text24"
       style="font-size:59px;font-family:'Cormorant Garamond SemiBold';text-anchor:middle;fill:#f4efe6">
      <path
         d="m 482.1055,183.258 q -5.133,0 -9.204,-1.475 -4.012,-1.534 -6.844,-4.13 -2.773,-2.655 -4.248,-6.077 -1.416,-3.422 -1.416,-7.375 0,-4.307 1.711,-7.788 1.711,-3.54 4.779,-6.077 3.068,-2.537 7.198,-3.894 4.13,-1.416 9.027,-1.416 2.891,0 5.664,0.472 2.832,0.472 4.602,1.357 0.59,0.236 0.649,0.413 0.118,0.118 0.177,0.944 l 0.767,7.729 q 0,0.177 -0.295,0.236 -0.295,0.059 -0.413,-0.118 -0.472,-1.475 -1.534,-3.186 -1.003,-1.711 -2.596,-3.186 -1.593,-1.534 -3.835,-2.537 -2.183,-1.003 -5.074,-1.003 -4.071,0 -7.375,2.065 -3.304,2.065 -5.251,5.841 -1.947,3.776 -1.947,9.027 0,4.071 1.18,7.552 1.18,3.422 3.363,6.077 2.242,2.655 5.369,4.13 3.127,1.475 7.021,1.475 2.419,0 3.894,-0.59 1.475,-0.59 2.124,-2.124 0.649,-1.593 0.649,-4.484 0,-2.832 -0.354,-4.13 -0.295,-1.357 -1.593,-1.77 -1.298,-0.413 -4.189,-0.413 -0.354,0 -0.354,-0.472 0,-0.472 0.295,-0.472 4.012,0.236 7.198,0.295 3.245,0 6.785,-0.177 0.236,0 0.236,0.413 0.059,0.413 -0.236,0.413 -1.121,-0.059 -1.652,0.413 -0.531,0.413 -0.708,1.888 -0.118,1.475 -0.118,4.602 0,1.947 0.118,2.891 0.118,0.944 0.177,1.416 0.118,0.413 0.118,0.885 0,0.354 -0.118,0.472 -0.118,0.118 -0.531,0.236 -3.127,0.708 -6.608,1.18 -3.481,0.472 -6.608,0.472 z"
         id="path250" />
    </g>
    <g
       aria-label="S"
       transform="rotate(69.66,500.65,225.6)"
       id="text26"
       style="font-size:59px;font-family:'Cormorant Garamond SemiBold';text-anchor:middle;fill:#f4efe6">
      <path
         d="m 495.36949,195.03801 q 0,2.301 1.18,4.012 1.18,1.652 3.009,3.009 1.888,1.357 3.953,2.655 2.242,1.357 4.248,2.891 2.065,1.534 3.363,3.54 1.357,1.947 1.357,4.779 0,3.068 -1.593,5.428 -1.593,2.301 -4.425,3.658 -2.773,1.298 -6.549,1.298 -1.593,0 -3.363,-0.295 -1.711,-0.295 -3.245,-0.826 -1.475,-0.531 -2.419,-1.121 -0.236,-0.177 -0.413,-0.413 -0.118,-0.236 -0.177,-0.708 l -0.354,-8.909 q -0.059,-0.295 0.236,-0.295 0.354,-0.059 0.413,0.177 0.708,1.77 1.652,3.776 1.003,1.947 2.301,3.599 1.298,1.652 2.95,2.714 1.711,1.003 3.894,1.003 1.534,0 2.891,-0.531 1.357,-0.531 2.242,-1.829 0.885,-1.357 0.885,-3.658 0,-2.773 -1.298,-4.72 -1.239,-2.006 -3.186,-3.481 -1.947,-1.475 -4.071,-2.773 -2.065,-1.357 -3.953,-2.773 -1.888,-1.416 -3.127,-3.245 -1.18,-1.888 -1.18,-4.543 0,-3.245 1.77,-5.31 1.77,-2.065 4.484,-3.068 2.773,-1.003 5.664,-1.003 1.947,0 3.953,0.354 2.006,0.354 3.422,1.003 0.531,0.177 0.708,0.472 0.177,0.295 0.177,0.649 l 0.118,7.965 q 0,0.236 -0.295,0.295 -0.236,0.059 -0.354,-0.118 -0.295,-0.885 -0.885,-2.419 -0.59,-1.593 -1.652,-3.186 -1.062,-1.593 -2.655,-2.714 -1.593,-1.121 -3.894,-1.121 -1.77,0 -3.068,0.708 -1.298,0.708 -2.006,2.006 -0.708,1.239 -0.708,3.068 z"
         id="path253" />
    </g>
    <g
       aria-label="F"
       transform="rotate(20.52,214.11,529.45)"
       id="text28"
       style="font-size:50px;font-family:'Cormorant Garamond SemiBold';text-anchor:middle;fill:#f4efe6">
      <path
         d="m 203.01001,529.45001 q -0.15,0 -0.15,-0.3 0,-0.3 0.15,-0.3 1.75,0 2.6,-0.25 0.85,-0.25 1.15,-1 0.3,-0.75 0.3,-2.2 v -23.15 q 0,-1.45 -0.3,-2.15 -0.25,-0.75 -1.05,-1 -0.8,-0.3 -2.45,-0.3 -0.15,0 -0.15,-0.3 0,-0.3 0.15,-0.3 h 20.8 q 0.5,0 0.5,0.45 l 0.1,6.5 q 0,0.1 -0.25,0.15 -0.25,0 -0.35,-0.15 -0.55,-2.85 -2.3,-4.25 -1.75,-1.4 -4.6,-1.4 h -2.05 q -1.85,0 -2.6,0.65 -0.7,0.65 -0.7,2.15 v 22.9 q 0,1.5 0.4,2.3 0.4,0.75 1.6,1.05 1.2,0.3 3.6,0.3 0.1,0 0.1,0.3 0,0.3 -0.1,0.3 -1.7,0 -3.65,-0.05 -1.95,-0.05 -4.45,-0.05 -1.75,0 -3.4,0.05 -1.65,0.05 -2.9,0.05 z m 18.55,-10.75 q 0,-2.05 -1.45,-3.15 -1.4,-1.1 -4.3,-1.1 h -6.25 v -1.3 h 6.35 q 2.85,0 4.2,-0.95 1.4,-1 1.4,-2.8 0,-0.1 0.3,-0.1 0.3,0 0.3,0.1 0,1.65 -0.05,2.55 0,0.9 0,1.85 0,1.2 0.05,2.4 0.05,1.15 0.05,2.5 0,0.15 -0.3,0.15 -0.3,0 -0.3,-0.15 z"
         id="path256" />
    </g>
    <g
       aria-label="A"
       transform="rotate(8.42,264.1,542.36)"
       id="text30"
       style="font-size:50px;font-family:'Cormorant Garamond SemiBold';text-anchor:middle;fill:#f4efe6">
      <path
         d="m 255.275,530.10999 0.65,-1.25 h 14 l 0.35,1.25 z m 26.6,11.65 q 0.2,0 0.2,0.3 0,0.3 -0.2,0.3 -1.5,0 -3.1,-0.1 -1.55,-0.1 -3,-0.1 -1.65,0 -2.9,0.1 -1.2,0.1 -2.7,0.1 -0.2,0 -0.2,-0.3 0,-0.3 0.2,-0.3 2.25,0 2.7,-0.8 0.45,-0.8 -0.75,-3.15 l -10.45,-21.25 2.05,-3.35 -9.9,22.3 q -1.3,3.05 -0.1,4.65 1.25,1.6 4.2,1.6 0.25,0 0.25,0.3 0,0.3 -0.25,0.3 -1.5,0 -2.75,-0.1 -1.25,-0.1 -3.15,-0.1 -1.9,0 -3.05,0.1 -1.1,0.1 -2.75,0.1 -0.2,0 -0.2,-0.3 0,-0.3 0.2,-0.3 1.35,0 2.3,-0.55 1,-0.55 1.95,-2 0.95,-1.5 2.1,-4.15 l 10.75,-24.25 q 0.1,-0.15 0.45,-0.15 0.35,0 0.4,0.15 l 12.25,24.7 q 1.15,2.4 2.05,3.8 0.9,1.35 1.7,1.9 0.8,0.55 1.7,0.55 z"
         id="path259" />
    </g>
    <g
       aria-label="R"
       transform="rotate(-4.67,319.95,544.19)"
       id="text32"
       style="font-size:50px;font-family:'Cormorant Garamond SemiBold';text-anchor:middle;fill:#f4efe6">
      <path
         d="m 329.62503,544.19 q -0.75,0 -2.5,-1.9 -1.75,-1.9 -4.25,-5.45 -2.45,-3.6 -5.5,-8.55 l 4,-1.2 q 4.05,6.05 6.9,9.7 2.9,3.6 5.1,5.2 2.25,1.6 4.3,1.6 0.1,0 0.1,0.3 0,0.3 -0.1,0.3 -3.15,0 -5.15,0 -1.95,0 -2.9,0 z m -11.35,-31.4 q 4.35,0 6.7,1.75 2.4,1.7 2.4,4.7 0,2.85 -1.65,5.1 -1.6,2.25 -4.2,3.5 -2.55,1.25 -5.5,1.25 -0.6,0 -1.3,0 -0.7,-0.05 -1.25,-0.1 v 11.15 q 0,1.45 0.25,2.2 0.25,0.75 1.05,1 0.85,0.25 2.45,0.25 0.15,0 0.15,0.3 0,0.3 -0.15,0.3 -1.25,0 -2.8,-0.05 -1.55,-0.05 -3.4,-0.05 -1.75,0 -3.35,0.05 -1.6,0.05 -2.85,0.05 -0.15,0 -0.15,-0.3 0,-0.3 0.15,-0.3 1.65,0 2.45,-0.25 0.8,-0.25 1.1,-1 0.3,-0.75 0.3,-2.2 v -23.15 q 0,-1.45 -0.3,-2.15 -0.25,-0.75 -1.05,-1 -0.8,-0.3 -2.45,-0.3 -0.1,0 -0.1,-0.3 0,-0.3 0.1,-0.3 1.25,0 2.8,0.1 1.6,0.05 3.35,0.05 1.6,0 3.6,-0.15 2,-0.15 3.65,-0.15 z m 4.15,8.2 q 0,-2.9 -0.7,-4.45 -0.65,-1.6 -1.85,-2.2 -1.2,-0.6 -2.8,-0.6 -1.95,0 -2.8,0.75 -0.8,0.7 -0.8,2.6 v 10.55 q 0.7,0.1 1.5,0.15 0.8,0.05 1.4,0.05 3.35,0 4.7,-1.65 1.35,-1.7 1.35,-5.2 z"
         id="path262" />
    </g>
    <g
       aria-label="M"
       transform="rotate(-18.58,378.06,532.23)"
       id="text34"
       style="font-size:50px;font-family:'Cormorant Garamond SemiBold';text-anchor:middle;fill:#f4efe6">
      <path
         d="m 362.70999,526.17998 0.5,-24.05 1.35,0.1 -0.55,23.95 q -0.05,2.65 1,4.05 1.1,1.4 3.25,1.4 0.15,0 0.15,0.3 0,0.3 -0.15,0.3 -1.1,0 -2.25,-0.05 -1.15,-0.05 -2.6,-0.05 -1.5,0 -2.75,0.05 -1.2,0.05 -2.3,0.05 -0.15,0 -0.15,-0.3 0,-0.3 0.15,-0.3 2.05,0 3.15,-1.4 1.15,-1.4 1.2,-4.05 z m 35.4,5.45 q 0.1,0 0.1,0.3 0,0.3 -0.1,0.3 -1.3,0 -2.9,-0.05 -1.6,-0.05 -3.35,-0.05 -1.75,0 -3.3,0.05 -1.5,0.05 -2.75,0.05 -0.1,0 -0.1,-0.3 0,-0.3 0.1,-0.3 2.4,0 3.1,-0.65 0.7,-0.65 0.55,-2.8 l -1.05,-22.85 2.2,-3.45 -12.8,30 q -0.05,0.2 -0.4,0.2 -0.35,0 -0.45,-0.2 l -13.55,-26.75 q -1.8,-3.55 -4.7,-3.55 -0.15,0 -0.15,-0.3 0,-0.3 0.15,-0.3 0.95,0 2,0.05 1.1,0.05 1.85,0.05 1.1,0 1.95,-0.05 0.9,-0.05 1.4,-0.05 0.7,0 1.05,0.5 0.4,0.45 1.25,2.1 l 11.25,22.05 -2.15,3.8 11.85,-27.2 q 0.3,-0.65 0.65,-0.95 0.35,-0.3 0.85,-0.3 0.45,0 0.95,0.05 0.55,0.05 1.3,0.05 1.5,0 2.55,-0.05 1.05,-0.05 2.05,-0.05 0.15,0 0.15,0.3 0,0.3 -0.15,0.3 -2.3,0 -3.4,0.85 -1.1,0.85 -1,2.9 l 1.1,22.85 q 0.1,1.45 0.35,2.2 0.3,0.75 1.1,1 0.85,0.25 2.45,0.25 z"
         id="path265" />
    </g>
    <path
       id="circle36"
       style="fill:#b0813b"
       d="m 418.29999,491.20001 a 5.5,5.5 0 0 1 -5.5,5.5 5.5,5.5 0 0 1 -5.5,-5.5 5.5,5.5 0 0 1 5.5,-5.5 5.5,5.5 0 0 1 5.5,5.5 z" />
    <path
       id="circle38"
       style="fill:#b0813b"
       d="m 192.7,491.20001 a 5.5,5.5 0 0 1 -5.5,5.5 5.5,5.5 0 0 1 -5.5,-5.5 5.5,5.5 0 0 1 5.5,-5.5 5.5,5.5 0 0 1 5.5,5.5 z" />
    <path
       d="M 145.2,478.1 A 236,236 0 0 1 64.1,291.8"
       fill="none"
       stroke="#f4efe6"
       stroke-width="4.5"
       stroke-linecap="round"
       id="path40" />
    <path
       d="m 129.9,463.6 q -8.2,-3.6 -15.9,1.1 8.3,3.7 15.9,-1.1 z"
       fill="none"
       stroke="#f4efe6"
       stroke-width="4.05"
       stroke-linejoin="round"
       id="path42" />
    <path
       d="m 129.9,463.6 q 5.1,-7.5 1.8,-15.9 -5.1,7.5 -1.8,15.9 z"
       fill="none"
       stroke="#f4efe6"
       stroke-width="4.05"
       stroke-linejoin="round"
       id="path44" />
    <path
       d="m 103.7,430.9 q -7.5,-5 -15.9,-1.7 7.4,5 15.9,1.7 z"
       fill="none"
       stroke="#f4efe6"
       stroke-width="4.05"
       stroke-linejoin="round"
       id="path46" />
    <path
       d="m 103.7,430.9 q 6.2,-6.5 4.4,-15.3 -6.2,6.5 -4.4,15.3 z"
       fill="none"
       stroke="#f4efe6"
       stroke-width="4.05"
       stroke-linejoin="round"
       id="path48" />
    <path
       d="m 83.6,394.1 q -6.5,-6.3 -15.4,-4.5 6.5,6.3 15.4,4.5 z"
       fill="none"
       stroke="#f4efe6"
       stroke-width="4.05"
       stroke-linejoin="round"
       id="path50" />
    <path
       d="m 83.6,394.1 q 7.3,-5.3 7.1,-14.3 -7.3,5.3 -7.1,14.3 z"
       fill="none"
       stroke="#f4efe6"
       stroke-width="4.05"
       stroke-linejoin="round"
       id="path52" />
    <path
       d="m 70.3,354.3 q -5.2,-7.4 -14.3,-7.2 5.3,7.3 14.3,7.2 z"
       fill="none"
       stroke="#f4efe6"
       stroke-width="4.05"
       stroke-linejoin="round"
       id="path54" />
    <path
       d="m 70.3,354.3 q 8.2,-3.9 9.6,-12.8 -8.2,3.9 -9.6,12.8 z"
       fill="none"
       stroke="#f4efe6"
       stroke-width="4.05"
       stroke-linejoin="round"
       id="path56" />
    <path
       d="m 64.3,312.8 q -3.8,-8.2 -12.7,-9.6 3.8,8.1 12.7,9.6 z"
       fill="none"
       stroke="#f4efe6"
       stroke-width="4.05"
       stroke-linejoin="round"
       id="path58" />
    <path
       d="m 64.3,312.8 q 8.8,-2.4 11.7,-11 -8.7,2.4 -11.7,11 z"
       fill="none"
       stroke="#f4efe6"
       stroke-width="4.05"
       stroke-linejoin="round"
       id="path60" />
    <path
       d="m 64.1,291.8 q 4.5,-8.7 0.7,-17.6 -4.5,8.6 -0.7,17.6 z"
       fill="none"
       stroke="#f4efe6"
       stroke-width="4.05"
       stroke-linejoin="round"
       id="path62" />
    <path
       d="M 454.8,478.1 A 236,236 0 0 0 535.9,291.8"
       fill="none"
       stroke="#f4efe6"
       stroke-width="4.5"
       stroke-linecap="round"
       id="path64" />
    <path
       d="m 470.1,463.6 q 3.3,-8.4 -1.8,-15.9 -3.3,8.4 1.8,15.9 z"
       fill="none"
       stroke="#f4efe6"
       stroke-width="4.05"
       stroke-linejoin="round"
       id="path66" />
    <path
       d="m 470.1,463.6 q 7.6,4.8 15.9,1.1 -7.7,-4.7 -15.9,-1.1 z"
       fill="none"
       stroke="#f4efe6"
       stroke-width="4.05"
       stroke-linejoin="round"
       id="path68" />
    <path
       d="m 496.3,430.9 q 1.8,-8.8 -4.4,-15.3 -1.8,8.8 4.4,15.3 z"
       fill="none"
       stroke="#f4efe6"
       stroke-width="4.05"
       stroke-linejoin="round"
       id="path70" />
    <path
       d="m 496.3,430.9 q 8.5,3.3 15.9,-1.7 -8.4,-3.3 -15.9,1.7 z"
       fill="none"
       stroke="#f4efe6"
       stroke-width="4.05"
       stroke-linejoin="round"
       id="path72" />
    <path
       d="m 516.4,394.1 q 0.2,-9 -7.1,-14.3 -0.2,9 7.1,14.3 z"
       fill="none"
       stroke="#f4efe6"
       stroke-width="4.05"
       stroke-linejoin="round"
       id="path74" />
    <path
       d="m 516.4,394.1 q 8.9,1.8 15.4,-4.5 -8.9,-1.8 -15.4,4.5 z"
       fill="none"
       stroke="#f4efe6"
       stroke-width="4.05"
       stroke-linejoin="round"
       id="path76" />
    <path
       d="m 529.7,354.3 q -1.4,-8.9 -9.6,-12.8 1.4,8.9 9.6,12.8 z"
       fill="none"
       stroke="#f4efe6"
       stroke-width="4.05"
       stroke-linejoin="round"
       id="path78" />
    <path
       d="m 529.7,354.3 q 9,0.1 14.3,-7.2 -9.1,-0.2 -14.3,7.2 z"
       fill="none"
       stroke="#f4efe6"
       stroke-width="4.05"
       stroke-linejoin="round"
       id="path80" />
    <path
       d="m 535.7,312.8 q -3,-8.6 -11.7,-11 2.9,8.6 11.7,11 z"
       fill="none"
       stroke="#f4efe6"
       stroke-width="4.05"
       stroke-linejoin="round"
       id="path82" />
    <path
       d="m 535.7,312.8 q 8.9,-1.5 12.7,-9.6 -8.9,1.4 -12.7,9.6 z"
       fill="none"
       stroke="#f4efe6"
       stroke-width="4.05"
       stroke-linejoin="round"
       id="path84" />
    <path
       d="m 535.9,291.8 q 3.8,-9 -0.7,-17.6 -3.8,8.9 0.7,17.6 z"
       fill="none"
       stroke="#f4efe6"
       stroke-width="4.05"
       stroke-linejoin="round"
       id="path86" />
    <path
       id="line88"
       style="stroke:#f4efe6;stroke-width:6.5;stroke-linecap:round"
       d="M 300,398 V 277.39999" />
    <path
       d="m 300,277.4 c 0,-18.6 -13.9,-23.2 -30.2,-32.5"
       fill="none"
       stroke="#f4efe6"
       stroke-width="6.5"
       stroke-linecap="round"
       id="path90" />
    <path
       d="m 269.8,244.9 c -42.8,-11 -64.5,-49.1 -62.6,-78.9 26.7,7.1 58,37.6 62.6,78.9 z"
       fill="none"
       stroke="#f4efe6"
       stroke-width="6.5"
       stroke-linejoin="round"
       id="path92" />
    <path
       d="M 269.8,244.9 Q 241.4,213.4 218.5,180.2"
       fill="none"
       stroke="#f4efe6"
       stroke-width="5.52"
       stroke-linecap="round"
       id="path94" />
    <path
       d="m 300,277.4 c 0,-18.6 13.9,-23.2 30.2,-32.5"
       fill="none"
       stroke="#f4efe6"
       stroke-width="6.5"
       stroke-linecap="round"
       id="path96" />
    <path
       d="m 330.2,244.9 c 42.8,-11 64.5,-49.1 62.6,-78.9 -26.7,7.1 -58,37.6 -62.6,78.9 z"
       fill="none"
       stroke="#f4efe6"
       stroke-width="6.5"
       stroke-linejoin="round"
       id="path98" />
    <path
       d="m 330.2,244.9 q 28.4,-31.5 51.3,-64.7"
       fill="none"
       stroke="#f4efe6"
       stroke-width="5.52"
       stroke-linecap="round"
       id="path100" />
    <path
       id="circle102"
       style="fill:#b0813b"
       d="m 315,398 a 15,15 0 0 1 -15,15 15,15 0 0 1 -15,-15 15,15 0 0 1 15,-15 15,15 0 0 1 15,15 z" />
  </g>
  <line
     x1="392"
     y1="66"
     x2="392"
     y2="214"
     stroke="#B0813B"
     stroke-width="2.4"
     id="line106" />
  <g
     aria-label="S"
     id="text108"
     style="font-size:74px;font-family:'Cormorant Garamond SemiBold';text-anchor:middle;fill:#f4efe6">
    <path
       d="m 534.76702,113.668 q 0,2.886 1.48,5.032 1.48,2.072 3.774,3.774 2.368,1.702 4.958,3.33 2.812,1.702 5.328,3.626 2.59,1.924 4.218,4.44 1.702,2.442 1.702,5.994 0,3.848 -1.998,6.808 -1.998,2.886 -5.55,4.588 -3.478,1.628 -8.214,1.628 -1.998,0 -4.218,-0.37 -2.146,-0.37 -4.07,-1.036 -1.85,-0.666 -3.034,-1.406 -0.296,-0.222 -0.518,-0.518 -0.148,-0.296 -0.222,-0.888 l -0.444,-11.174 q -0.074,-0.37 0.296,-0.37 0.444,-0.074 0.518,0.222 0.888,2.22 2.072,4.736 1.258,2.442 2.886,4.514 1.628,2.072 3.7,3.404 2.146,1.258 4.884,1.258 1.924,0 3.626,-0.666 1.702,-0.666 2.812,-2.294 1.11,-1.702 1.11,-4.588 0,-3.478 -1.628,-5.92 -1.554,-2.516 -3.996,-4.366 -2.442,-1.85 -5.106,-3.478 -2.59,-1.702 -4.958,-3.478 -2.368,-1.776 -3.922,-4.07 -1.48,-2.368 -1.48,-5.698 0,-4.07 2.22,-6.66 2.22,-2.59 5.624,-3.848 3.478,-1.258 7.104,-1.258 2.442,0 4.958,0.444 2.516,0.444 4.292,1.258 0.666,0.222 0.888,0.592 0.222,0.37 0.222,0.814 l 0.148,9.99 q 0,0.296 -0.37,0.37 -0.296,0.074 -0.444,-0.148 -0.37,-1.11 -1.11,-3.034 -0.74,-1.998 -2.072,-3.996 -1.332,-1.998 -3.33,-3.404 -1.998,-1.406 -4.884,-1.406 -2.22,0 -3.848,0.888 -1.628,0.888 -2.516,2.516 -0.888,1.554 -0.888,3.848 z"
       id="path272" />
  </g>
  <g
     aria-label="M"
     id="text110"
     style="font-size:74px;font-family:'Cormorant Garamond SemiBold';text-anchor:middle;fill:#f4efe6">
    <path
       d="m 581.88196,143.046 0.74,-35.594 1.998,0.148 -0.814,35.446 q -0.074,3.922 1.48,5.994 1.628,2.072 4.81,2.072 0.222,0 0.222,0.444 0,0.444 -0.222,0.444 -1.628,0 -3.33,-0.074 -1.702,-0.074 -3.848,-0.074 -2.22,0 -4.07,0.074 -1.776,0.074 -3.404,0.074 -0.222,0 -0.222,-0.444 0,-0.444 0.222,-0.444 3.034,0 4.662,-2.072 1.702,-2.072 1.776,-5.994 z m 52.392,8.066 q 0.148,0 0.148,0.444 0,0.444 -0.148,0.444 -1.924,0 -4.292,-0.074 -2.368,-0.074 -4.958,-0.074 -2.59,0 -4.884,0.074 -2.22,0.074 -4.07,0.074 -0.148,0 -0.148,-0.444 0,-0.444 0.148,-0.444 3.552,0 4.588,-0.962 1.036,-0.962 0.814,-4.144 l -1.554,-33.818 3.256,-5.106 -18.944,44.4 q -0.074,0.296 -0.592,0.296 -0.518,0 -0.666,-0.296 l -20.054,-39.59 q -2.664,-5.254 -6.956,-5.254 -0.222,0 -0.222,-0.444 0,-0.444 0.222,-0.444 1.406,0 2.96,0.074 1.628,0.074 2.738,0.074 1.628,0 2.886,-0.074 1.332,-0.074 2.072,-0.074 1.036,0 1.554,0.74 0.592,0.666 1.85,3.108 l 16.65,32.634 -3.182,5.624 17.538,-40.256 q 0.444,-0.962 0.962,-1.406 0.518,-0.444 1.258,-0.444 0.666,0 1.406,0.074 0.814,0.074 1.924,0.074 2.22,0 3.774,-0.074 1.554,-0.074 3.034,-0.074 0.222,0 0.222,0.444 0,0.444 -0.222,0.444 -3.404,0 -5.032,1.258 -1.628,1.258 -1.48,4.292 l 1.628,33.818 q 0.148,2.146 0.518,3.256 0.444,1.11 1.628,1.48 1.258,0.37 3.626,0.37 z"
       id="path275" />
  </g>
  <g
     aria-label="A"
     id="text112"
     style="font-size:74px;font-family:'Cormorant Garamond SemiBold';text-anchor:middle;fill:#f4efe6">
    <path
       d="m 662.29897,133.87 0.962,-1.85 h 20.72 l 0.518,1.85 z m 39.368,17.242 q 0.296,0 0.296,0.444 0,0.444 -0.296,0.444 -2.22,0 -4.588,-0.148 -2.294,-0.148 -4.44,-0.148 -2.442,0 -4.292,0.148 -1.776,0.148 -3.996,0.148 -0.296,0 -0.296,-0.444 0,-0.444 0.296,-0.444 3.33,0 3.996,-1.184 0.666,-1.184 -1.11,-4.662 l -15.466,-31.45 3.034,-4.958 -14.652,33.004 q -1.924,4.514 -0.148,6.882 1.85,2.368 6.216,2.368 0.37,0 0.37,0.444 0,0.444 -0.37,0.444 -2.22,0 -4.07,-0.148 -1.85,-0.148 -4.662,-0.148 -2.812,0 -4.514,0.148 -1.628,0.148 -4.07,0.148 -0.296,0 -0.296,-0.444 0,-0.444 0.296,-0.444 1.998,0 3.404,-0.814 1.48,-0.814 2.886,-2.96 1.406,-2.22 3.108,-6.142 l 15.91,-35.89 q 0.148,-0.222 0.666,-0.222 0.518,0 0.592,0.222 l 18.13,36.556 q 1.702,3.552 3.034,5.624 1.332,1.998 2.516,2.812 1.184,0.814 2.516,0.814 z"
       id="path278" />
  </g>
  <g
     aria-label="L"
     id="text114"
     style="font-size:74px;font-family:'Cormorant Garamond SemiBold';text-anchor:middle;fill:#f4efe6">
    <path
       d="m 729.68498,111.818 v 33.892 q 0,1.85 0.37,2.812 0.37,0.962 1.406,1.258 1.036,0.296 3.034,0.296 h 4.44 q 5.254,0 8.88,-2.96 3.626,-2.96 4.81,-7.844 0.074,-0.222 0.444,-0.148 0.37,0.074 0.37,0.296 -0.222,2.294 -0.444,5.55 -0.222,3.182 -0.222,5.92 0,1.11 -1.11,1.11 h -34.632 q -0.148,0 -0.148,-0.444 0,-0.444 0.148,-0.444 2.368,0 3.552,-0.37 1.258,-0.37 1.628,-1.48 0.444,-1.11 0.444,-3.256 v -34.262 q 0,-2.146 -0.444,-3.182 -0.37,-1.11 -1.628,-1.48 -1.184,-0.444 -3.552,-0.444 -0.148,0 -0.148,-0.444 0,-0.444 0.148,-0.444 1.776,0 4.144,0.148 2.368,0.074 4.958,0.074 2.738,0 5.032,-0.074 2.368,-0.148 4.144,-0.148 0.222,0 0.222,0.444 0,0.444 -0.222,0.444 -2.368,0 -3.626,0.444 -1.184,0.37 -1.628,1.48 -0.37,1.11 -0.37,3.256 z"
       id="path281" />
  </g>
  <g
     aria-label="L"
     id="text116"
     style="font-size:74px;font-family:'Cormorant Garamond SemiBold';text-anchor:middle;fill:#f4efe6">
    <path
       d="m 782.72496,111.818 v 33.892 q 0,1.85 0.37,2.812 0.37,0.962 1.406,1.258 1.036,0.296 3.034,0.296 h 4.44 q 5.254,0 8.88,-2.96 3.626,-2.96 4.81,-7.844 0.074,-0.222 0.444,-0.148 0.37,0.074 0.37,0.296 -0.222,2.294 -0.444,5.55 -0.222,3.182 -0.222,5.92 0,1.11 -1.11,1.11 h -34.632 q -0.148,0 -0.148,-0.444 0,-0.444 0.148,-0.444 2.368,0 3.552,-0.37 1.258,-0.37 1.628,-1.48 0.444,-1.11 0.444,-3.256 v -34.262 q 0,-2.146 -0.444,-3.182 -0.37,-1.11 -1.628,-1.48 -1.184,-0.444 -3.552,-0.444 -0.148,0 -0.148,-0.444 0,-0.444 0.148,-0.444 1.776,0 4.144,0.148 2.368,0.074 4.958,0.074 2.738,0 5.032,-0.074 2.368,-0.148 4.144,-0.148 0.222,0 0.222,0.444 0,0.444 -0.222,0.444 -2.368,0 -3.626,0.444 -1.184,0.37 -1.628,1.48 -0.37,1.11 -0.37,3.256 z"
       id="path284" />
  </g>
  <g
     aria-label="T"
     id="text118"
     style="font-size:74px;font-family:'Cormorant Garamond SemiBold';text-anchor:middle;fill:#f4efe6">
    <path
       d="m 866.59,107.304 q -4.514,0 -7.4,2.812 -2.812,2.812 -4.44,8.288 0,0.222 -0.444,0.222 -0.37,-0.074 -0.37,-0.222 0.148,-1.036 0.296,-2.812 0.148,-1.85 0.296,-3.996 0.222,-2.146 0.296,-4.144 0.148,-2.072 0.148,-3.33 0,-0.37 0.37,-0.37 0.444,0 0.444,0.37 0,0.74 0.74,1.11 0.814,0.296 1.776,0.444 0.962,0.074 1.628,0.074 6.364,0.222 14.874,0.222 5.254,0 8.288,-0.074 3.108,-0.148 5.994,-0.148 2.664,0 3.996,-0.296 1.406,-0.37 1.776,-1.554 0.074,-0.296 0.444,-0.296 0.37,0 0.37,0.296 -0.074,1.184 -0.222,3.256 -0.148,1.998 -0.222,4.292 -0.074,2.22 -0.148,4.144 -0.074,1.85 -0.074,2.812 0,0.148 -0.444,0.148 -0.37,0 -0.444,-0.148 -0.814,-5.846 -3.552,-8.436 -2.738,-2.664 -7.326,-2.664 -1.998,0 -3.034,0.37 -1.036,0.37 -1.406,1.406 -0.37,0.962 -0.37,2.812 v 34.114 q 0,2.146 0.444,3.256 0.518,1.11 1.85,1.48 1.406,0.37 4.218,0.37 0.222,0 0.222,0.444 0,0.444 -0.222,0.444 -1.998,0 -4.588,-0.074 -2.516,-0.074 -5.55,-0.074 -2.886,0 -5.402,0.074 -2.516,0.074 -4.662,0.074 -0.148,0 -0.148,-0.444 0,-0.444 0.148,-0.444 2.812,0 4.218,-0.37 1.406,-0.37 1.85,-1.48 0.518,-1.11 0.518,-3.256 v -34.262 q 0,-1.85 -0.37,-2.738 -0.296,-0.962 -1.332,-1.332 -1.036,-0.37 -3.034,-0.37 z"
       id="path287" />
  </g>
  <g
     aria-label="H"
     id="text120"
     style="font-size:74px;font-family:'Cormorant Garamond SemiBold';text-anchor:middle;fill:#f4efe6">
    <path
       d="m 952.33802,111.892 q 0,-2.146 -0.444,-3.256 -0.444,-1.11 -1.776,-1.554 -1.332,-0.444 -4.07,-0.444 -0.222,0 -0.222,-0.444 0,-0.444 0.222,-0.444 1.85,0 4.218,0.148 2.442,0.074 5.624,0.074 2.59,0 5.106,-0.074 2.516,-0.148 4.366,-0.148 0.222,0 0.222,0.444 0,0.444 -0.222,0.444 -2.59,0 -3.922,0.444 -1.258,0.37 -1.702,1.48 -0.444,1.036 -0.444,3.182 v 34.262 q 0,2.146 0.444,3.256 0.444,1.11 1.702,1.48 1.332,0.37 3.922,0.37 0.222,0 0.222,0.444 0,0.444 -0.222,0.444 -1.85,0 -4.366,-0.074 -2.516,-0.074 -5.106,-0.074 -3.182,0 -5.624,0.074 -2.368,0.074 -4.218,0.074 -0.222,0 -0.222,-0.444 0,-0.444 0.222,-0.444 2.738,0 4.07,-0.37 1.332,-0.37 1.776,-1.48 0.444,-1.11 0.444,-3.256 z m -29.23,17.02 v -1.924 h 32.412 v 1.924 z m -3.256,17.094 v -34.262 q 0,-2.146 -0.444,-3.182 -0.444,-1.11 -1.702,-1.48 -1.258,-0.444 -3.848,-0.444 -0.148,0 -0.148,-0.444 0,-0.444 0.148,-0.444 1.924,0 4.292,0.148 2.368,0.074 4.958,0.074 3.182,0 5.624,-0.074 2.442,-0.148 4.366,-0.148 0.148,0 0.148,0.444 0,0.444 -0.148,0.444 -2.664,0 -3.996,0.444 -1.332,0.444 -1.776,1.554 -0.444,1.11 -0.444,3.256 v 34.114 q 0,2.146 0.444,3.256 0.444,1.11 1.776,1.48 1.406,0.37 3.996,0.37 0.148,0 0.148,0.444 0,0.444 -0.148,0.444 -1.998,0 -4.44,-0.074 -2.368,-0.074 -5.55,-0.074 -2.59,0 -5.032,0.074 -2.442,0.074 -4.292,0.074 -0.148,0 -0.148,-0.444 0,-0.444 0.148,-0.444 2.59,0 3.848,-0.37 1.258,-0.37 1.702,-1.48 0.518,-1.11 0.518,-3.256 z"
       id="path290" />
  </g>
  <g
     aria-label="I"
     id="text122"
     style="font-size:74px;font-family:'Cormorant Garamond SemiBold';text-anchor:middle;fill:#f4efe6">
    <path
       d="m 996.855,146.006 q 0,2.146 0.37,3.256 0.444,1.11 1.628,1.48 1.184,0.37 3.626,0.37 0.222,0 0.222,0.444 0,0.444 -0.222,0.444 -1.85,0 -4.144,-0.074 -2.294,-0.074 -5.106,-0.074 -2.59,0 -4.958,0.074 -2.368,0.074 -4.218,0.074 -0.222,0 -0.222,-0.444 0,-0.444 0.222,-0.444 2.368,0 3.626,-0.37 1.258,-0.37 1.628,-1.48 0.444,-1.11 0.444,-3.256 v -34.262 q 0,-2.146 -0.444,-3.182 -0.37,-1.11 -1.628,-1.48 -1.258,-0.444 -3.626,-0.444 -0.222,0 -0.222,-0.444 0,-0.444 0.222,-0.444 1.85,0 4.218,0.148 2.368,0.074 4.958,0.074 2.812,0 5.106,-0.074 2.368,-0.148 4.144,-0.148 0.222,0 0.222,0.444 0,0.444 -0.222,0.444 -2.368,0 -3.626,0.444 -1.184,0.444 -1.628,1.554 -0.37,1.11 -0.37,3.256 z"
       id="path293" />
  </g>
  <g
     aria-label="N"
     id="text124"
     style="font-size:74px;font-family:'Cormorant Garamond SemiBold';text-anchor:middle;fill:#f4efe6">
    <path
       d="m 1028.136,143.046 v -35.594 l 1.998,0.148 v 35.446 q 0,3.922 1.554,5.994 1.554,2.072 4.44,2.072 0.222,0 0.222,0.444 0,0.444 -0.222,0.444 -1.554,0 -3.256,-0.074 -1.628,-0.074 -3.626,-0.074 -2.146,0 -4.144,0.074 -1.924,0.074 -3.626,0.074 -0.222,0 -0.222,-0.444 0,-0.444 0.222,-0.444 3.256,0 4.958,-2.072 1.702,-2.072 1.702,-5.994 z m 37.592,9.99 q 0,0.222 -0.37,0.222 -0.37,0.074 -0.518,0 l -35.594,-41.44 q -2.664,-3.034 -4.588,-4.07 -1.85,-1.11 -3.626,-1.11 -0.222,0 -0.222,-0.444 0,-0.444 0.222,-0.444 1.406,0 2.886,0.074 1.48,0.074 2.738,0.074 2.22,0 3.996,-0.074 1.85,-0.074 2.812,-0.074 0.962,0 1.406,0.888 0.444,0.814 2.22,2.96 l 28.046,33.004 z m 0,-38.258 v 38.258 l -1.998,-2.22 v -36.038 q 0,-3.922 -1.554,-5.994 -1.48,-2.146 -4.44,-2.146 -0.148,0 -0.148,-0.444 0,-0.444 0.148,-0.444 1.554,0 3.256,0.148 1.702,0.074 3.7,0.074 1.924,0 3.774,-0.074 1.85,-0.148 3.404,-0.148 0.222,0 0.222,0.444 0,0.444 -0.222,0.444 -2.96,0 -4.588,2.146 -1.554,2.072 -1.554,5.994 z"
       id="path296" />
  </g>
  <g
     aria-label="G"
     id="text126"
     style="font-size:74px;font-family:'Cormorant Garamond SemiBold';text-anchor:middle;fill:#f4efe6">
    <path
       d="m 1116.913,152.888 q -6.438,0 -11.544,-1.85 -5.032,-1.924 -8.584,-5.18 -3.478,-3.33 -5.328,-7.622 -1.776,-4.292 -1.776,-9.25 0,-5.402 2.146,-9.768 2.146,-4.44 5.994,-7.622 3.848,-3.182 9.028,-4.884 5.18,-1.776 11.322,-1.776 3.626,0 7.104,0.592 3.552,0.592 5.772,1.702 0.74,0.296 0.814,0.518 0.148,0.148 0.222,1.184 l 0.962,9.694 q 0,0.222 -0.37,0.296 -0.37,0.074 -0.518,-0.148 -0.592,-1.85 -1.924,-3.996 -1.258,-2.146 -3.256,-3.996 -1.998,-1.924 -4.81,-3.182 -2.738,-1.258 -6.364,-1.258 -5.106,0 -9.25,2.59 -4.144,2.59 -6.586,7.326 -2.442,4.736 -2.442,11.322 0,5.106 1.48,9.472 1.48,4.292 4.218,7.622 2.812,3.33 6.734,5.18 3.922,1.85 8.806,1.85 3.034,0 4.884,-0.74 1.85,-0.74 2.664,-2.664 0.814,-1.998 0.814,-5.624 0,-3.552 -0.444,-5.18 -0.37,-1.702 -1.998,-2.22 -1.628,-0.518 -5.254,-0.518 -0.444,0 -0.444,-0.592 0,-0.592 0.37,-0.592 5.032,0.296 9.028,0.37 4.07,0 8.51,-0.222 0.296,0 0.296,0.518 0.074,0.518 -0.296,0.518 -1.406,-0.074 -2.072,0.518 -0.666,0.518 -0.888,2.368 -0.148,1.85 -0.148,5.772 0,2.442 0.148,3.626 0.148,1.184 0.222,1.776 0.148,0.518 0.148,1.11 0,0.444 -0.148,0.592 -0.148,0.148 -0.666,0.296 -3.922,0.888 -8.288,1.48 -4.366,0.592 -8.288,0.592 z"
       id="path299" />
  </g>
  <g
     aria-label="S"
     id="text128"
     style="font-size:74px;font-family:'Cormorant Garamond SemiBold';text-anchor:middle;fill:#f4efe6">
    <path
       d="m 1164.837,113.668 q 0,2.886 1.48,5.032 1.48,2.072 3.774,3.774 2.368,1.702 4.958,3.33 2.812,1.702 5.328,3.626 2.59,1.924 4.218,4.44 1.702,2.442 1.702,5.994 0,3.848 -1.998,6.808 -1.998,2.886 -5.55,4.588 -3.478,1.628 -8.214,1.628 -1.998,0 -4.218,-0.37 -2.146,-0.37 -4.07,-1.036 -1.85,-0.666 -3.034,-1.406 -0.296,-0.222 -0.518,-0.518 -0.148,-0.296 -0.222,-0.888 l -0.444,-11.174 q -0.074,-0.37 0.296,-0.37 0.444,-0.074 0.518,0.222 0.888,2.22 2.072,4.736 1.258,2.442 2.886,4.514 1.628,2.072 3.7,3.404 2.146,1.258 4.884,1.258 1.924,0 3.626,-0.666 1.702,-0.666 2.812,-2.294 1.11,-1.702 1.11,-4.588 0,-3.478 -1.628,-5.92 -1.554,-2.516 -3.996,-4.366 -2.442,-1.85 -5.106,-3.478 -2.59,-1.702 -4.958,-3.478 -2.368,-1.776 -3.922,-4.07 -1.48,-2.368 -1.48,-5.698 0,-4.07 2.22,-6.66 2.22,-2.59 5.624,-3.848 3.478,-1.258 7.104,-1.258 2.442,0 4.958,0.444 2.516,0.444 4.292,1.258 0.666,0.222 0.888,0.592 0.222,0.37 0.222,0.814 l 0.148,9.99 q 0,0.296 -0.37,0.37 -0.296,0.074 -0.444,-0.148 -0.37,-1.11 -1.11,-3.034 -0.74,-1.998 -2.072,-3.996 -1.332,-1.998 -3.33,-3.404 -1.998,-1.406 -4.884,-1.406 -2.22,0 -3.848,0.888 -1.628,0.888 -2.516,2.516 -0.888,1.554 -0.888,3.848 z"
       id="path302" />
  </g>
  <g
     aria-label="F"
     id="text130"
     style="font-size:74px;font-family:'Cormorant Garamond SemiBold';text-anchor:middle;fill:#f4efe6">
    <path
       d="m 1236.272,152 q -0.222,0 -0.222,-0.444 0,-0.444 0.222,-0.444 2.59,0 3.848,-0.37 1.258,-0.37 1.702,-1.48 0.444,-1.11 0.444,-3.256 v -34.262 q 0,-2.146 -0.444,-3.182 -0.37,-1.11 -1.554,-1.48 -1.184,-0.444 -3.626,-0.444 -0.222,0 -0.222,-0.444 0,-0.444 0.222,-0.444 h 30.784 q 0.74,0 0.74,0.666 l 0.148,9.62 q 0,0.148 -0.37,0.222 -0.37,0 -0.518,-0.222 -0.814,-4.218 -3.404,-6.29 -2.59,-2.072 -6.808,-2.072 h -3.034 q -2.738,0 -3.848,0.962 -1.036,0.962 -1.036,3.182 v 33.892 q 0,2.22 0.592,3.404 0.592,1.11 2.368,1.554 1.776,0.444 5.328,0.444 0.148,0 0.148,0.444 0,0.444 -0.148,0.444 -2.516,0 -5.402,-0.074 -2.886,-0.074 -6.586,-0.074 -2.59,0 -5.032,0.074 -2.442,0.074 -4.292,0.074 z m 27.454,-15.91 q 0,-3.034 -2.146,-4.662 -2.072,-1.628 -6.364,-1.628 h -9.25 v -1.924 h 9.398 q 4.218,0 6.216,-1.406 2.072,-1.48 2.072,-4.144 0,-0.148 0.444,-0.148 0.444,0 0.444,0.148 0,2.442 -0.074,3.774 0,1.332 0,2.738 0,1.776 0.074,3.552 0.074,1.702 0.074,3.7 0,0.222 -0.444,0.222 -0.444,0 -0.444,-0.222 z"
       id="path305" />
  </g>
  <g
     aria-label="A"
     id="text132"
     style="font-size:74px;font-family:'Cormorant Garamond SemiBold';text-anchor:middle;fill:#f4efe6">
    <path
       d="m 1298.119,133.87 0.962,-1.85 h 20.72 l 0.518,1.85 z m 39.368,17.242 q 0.296,0 0.296,0.444 0,0.444 -0.296,0.444 -2.22,0 -4.588,-0.148 -2.294,-0.148 -4.44,-0.148 -2.442,0 -4.292,0.148 -1.776,0.148 -3.996,0.148 -0.296,0 -0.296,-0.444 0,-0.444 0.296,-0.444 3.33,0 3.996,-1.184 0.666,-1.184 -1.11,-4.662 l -15.466,-31.45 3.034,-4.958 -14.652,33.004 q -1.924,4.514 -0.148,6.882 1.85,2.368 6.216,2.368 0.37,0 0.37,0.444 0,0.444 -0.37,0.444 -2.22,0 -4.07,-0.148 -1.85,-0.148 -4.662,-0.148 -2.812,0 -4.514,0.148 -1.628,0.148 -4.07,0.148 -0.296,0 -0.296,-0.444 0,-0.444 0.296,-0.444 1.998,0 3.404,-0.814 1.48,-0.814 2.886,-2.96 1.406,-2.22 3.108,-6.142 l 15.91,-35.89 q 0.148,-0.222 0.666,-0.222 0.518,0 0.592,0.222 l 18.13,36.556 q 1.702,3.552 3.034,5.624 1.332,1.998 2.516,2.812 1.184,0.814 2.516,0.814 z"
       id="path308" />
  </g>
  <g
     aria-label="R"
     id="text134"
     style="font-size:74px;font-family:'Cormorant Garamond SemiBold';text-anchor:middle;fill:#f4efe6">
    <path
       d="m 1390.289,152 q -1.11,0 -3.7,-2.812 -2.59,-2.812 -6.29,-8.066 -3.626,-5.328 -8.14,-12.654 l 5.92,-1.776 q 5.994,8.954 10.212,14.356 4.292,5.328 7.548,7.696 3.33,2.368 6.364,2.368 0.148,0 0.148,0.444 0,0.444 -0.148,0.444 -4.662,0 -7.622,0 -2.886,0 -4.292,0 z m -16.798,-46.472 q 6.438,0 9.916,2.59 3.552,2.516 3.552,6.956 0,4.218 -2.442,7.548 -2.368,3.33 -6.216,5.18 -3.774,1.85 -8.14,1.85 -0.888,0 -1.924,0 -1.036,-0.074 -1.85,-0.148 v 16.502 q 0,2.146 0.37,3.256 0.37,1.11 1.554,1.48 1.258,0.37 3.626,0.37 0.222,0 0.222,0.444 0,0.444 -0.222,0.444 -1.85,0 -4.144,-0.074 -2.294,-0.074 -5.032,-0.074 -2.59,0 -4.958,0.074 -2.368,0.074 -4.218,0.074 -0.222,0 -0.222,-0.444 0,-0.444 0.222,-0.444 2.442,0 3.626,-0.37 1.184,-0.37 1.628,-1.48 0.444,-1.11 0.444,-3.256 v -34.262 q 0,-2.146 -0.444,-3.182 -0.37,-1.11 -1.554,-1.48 -1.184,-0.444 -3.626,-0.444 -0.148,0 -0.148,-0.444 0,-0.444 0.148,-0.444 1.85,0 4.144,0.148 2.368,0.074 4.958,0.074 2.368,0 5.328,-0.222 2.96,-0.222 5.402,-0.222 z m 6.142,12.136 q 0,-4.292 -1.036,-6.586 -0.962,-2.368 -2.738,-3.256 -1.776,-0.888 -4.144,-0.888 -2.886,0 -4.144,1.11 -1.184,1.036 -1.184,3.848 v 15.614 q 1.036,0.148 2.22,0.222 1.184,0.074 2.072,0.074 4.958,0 6.956,-2.442 1.998,-2.516 1.998,-7.696 z"
       id="path311" />
  </g>
  <g
     aria-label="M"
     id="text136"
     style="font-size:74px;font-family:'Cormorant Garamond SemiBold';text-anchor:middle;fill:#f4efe6">
    <path
       d="m 1423.202,143.046 0.74,-35.594 1.998,0.148 -0.814,35.446 q -0.074,3.922 1.48,5.994 1.628,2.072 4.81,2.072 0.222,0 0.222,0.444 0,0.444 -0.222,0.444 -1.628,0 -3.33,-0.074 -1.702,-0.074 -3.848,-0.074 -2.22,0 -4.07,0.074 -1.776,0.074 -3.404,0.074 -0.222,0 -0.222,-0.444 0,-0.444 0.222,-0.444 3.034,0 4.662,-2.072 1.702,-2.072 1.776,-5.994 z m 52.392,8.066 q 0.148,0 0.148,0.444 0,0.444 -0.148,0.444 -1.924,0 -4.292,-0.074 -2.368,-0.074 -4.958,-0.074 -2.59,0 -4.884,0.074 -2.22,0.074 -4.07,0.074 -0.148,0 -0.148,-0.444 0,-0.444 0.148,-0.444 3.552,0 4.588,-0.962 1.036,-0.962 0.814,-4.144 l -1.554,-33.818 3.256,-5.106 -18.944,44.4 q -0.074,0.296 -0.592,0.296 -0.518,0 -0.666,-0.296 l -20.054,-39.59 q -2.664,-5.254 -6.956,-5.254 -0.222,0 -0.222,-0.444 0,-0.444 0.222,-0.444 1.406,0 2.96,0.074 1.628,0.074 2.738,0.074 1.628,0 2.886,-0.074 1.332,-0.074 2.072,-0.074 1.036,0 1.554,0.74 0.592,0.666 1.85,3.108 l 16.65,32.634 -3.182,5.624 17.538,-40.256 q 0.444,-0.962 0.962,-1.406 0.518,-0.444 1.258,-0.444 0.666,0 1.406,0.074 0.814,0.074 1.924,0.074 2.22,0 3.774,-0.074 1.554,-0.074 3.034,-0.074 0.222,0 0.222,0.444 0,0.444 -0.222,0.444 -3.404,0 -5.032,1.258 -1.628,1.258 -1.48,4.292 l 1.628,33.818 q 0.148,2.146 0.518,3.256 0.444,1.11 1.628,1.48 1.258,0.37 3.626,0.37 z"
       id="path314" />
  </g>
  <g
     aria-label="T"
     id="text138"
     style="font-size:30px;font-family:'Cormorant Garamond Medium';text-anchor:middle;fill:#b0813b">
    <path
       d="m 731.63498,191.85 q -1.86,0 -2.91,1.05 -1.05,1.02 -1.56,3.3 -0.03,0.06 -0.21,0.06 -0.15,0 -0.15,-0.09 0.06,-0.39 0.12,-1.11 0.09,-0.72 0.15,-1.56 0.06,-0.84 0.09,-1.62 0.06,-0.78 0.06,-1.29 0,-0.15 0.18,-0.15 0.18,0 0.18,0.15 0,0.3 0.3,0.45 0.3,0.12 0.69,0.18 0.39,0.03 0.66,0.03 2.58,0.09 6.03,0.09 2.1,0 3.36,-0.03 1.26,-0.06 2.43,-0.06 1.02,0 1.56,-0.12 0.57,-0.15 0.72,-0.63 0.03,-0.12 0.18,-0.12 0.18,0 0.18,0.12 -0.06,0.45 -0.12,1.26 -0.03,0.81 -0.09,1.68 -0.03,0.87 -0.06,1.62 -0.03,0.75 -0.03,1.11 0,0.09 -0.18,0.09 -0.15,0 -0.15,-0.09 -0.21,-2.34 -1.2,-3.33 -0.99,-0.99 -2.94,-0.99 -1.05,0 -1.59,0.15 -0.51,0.12 -0.69,0.51 -0.15,0.39 -0.15,1.23 v 13.83 q 0,0.87 0.18,1.32 0.21,0.45 0.78,0.6 0.6,0.15 1.83,0.15 0.06,0 0.06,0.18 0,0.18 -0.06,0.18 -0.81,0 -1.83,-0.03 -0.99,-0.03 -2.19,-0.03 -1.14,0 -2.16,0.03 -0.99,0.03 -1.83,0.03 -0.09,0 -0.09,-0.18 0,-0.18 0.09,-0.18 1.17,0 1.77,-0.15 0.63,-0.15 0.84,-0.6 0.21,-0.45 0.21,-1.32 v -13.89 q 0,-0.81 -0.18,-1.2 -0.18,-0.42 -0.72,-0.51 -0.54,-0.12 -1.56,-0.12 z"
       id="path317" />
  </g>
  <g
     aria-label="H"
     id="text140"
     style="font-size:30px;font-family:'Cormorant Garamond Medium';text-anchor:middle;fill:#b0813b">
    <path
       d="m 767.63501,193.74 q 0,-0.87 -0.18,-1.32 -0.15,-0.45 -0.72,-0.63 -0.54,-0.18 -1.68,-0.18 -0.09,0 -0.09,-0.18 0,-0.18 0.09,-0.18 0.72,0 1.65,0.06 0.96,0.03 2.13,0.03 1.02,0 1.98,-0.03 0.99,-0.06 1.71,-0.06 0.09,0 0.09,0.18 0,0.18 -0.09,0.18 -1.05,0 -1.62,0.18 -0.54,0.15 -0.72,0.6 -0.18,0.42 -0.18,1.29 v 13.89 q 0,0.87 0.18,1.32 0.18,0.45 0.72,0.6 0.57,0.15 1.62,0.15 0.09,0 0.09,0.18 0,0.18 -0.09,0.18 -0.72,0 -1.71,-0.03 -0.96,-0.03 -1.98,-0.03 -1.17,0 -2.13,0.03 -0.93,0.03 -1.65,0.03 -0.09,0 -0.09,-0.18 0,-0.18 0.09,-0.18 1.14,0 1.68,-0.15 0.57,-0.15 0.72,-0.6 0.18,-0.45 0.18,-1.32 z m -12.21,6.84 v -0.69 h 13.26 v 0.69 z m -1.11,6.99 v -13.89 q 0,-0.87 -0.18,-1.29 -0.18,-0.45 -0.72,-0.6 -0.54,-0.18 -1.59,-0.18 -0.09,0 -0.09,-0.18 0,-0.18 0.09,-0.18 0.75,0 1.68,0.06 0.93,0.03 1.95,0.03 1.2,0 2.13,-0.03 0.96,-0.06 1.71,-0.06 0.06,0 0.06,0.18 0,0.18 -0.06,0.18 -1.11,0 -1.68,0.18 -0.54,0.18 -0.75,0.63 -0.18,0.45 -0.18,1.32 v 13.83 q 0,0.87 0.18,1.32 0.18,0.45 0.75,0.6 0.57,0.15 1.68,0.15 0.06,0 0.06,0.18 0,0.18 -0.06,0.18 -0.78,0 -1.71,-0.03 -0.93,-0.03 -2.13,-0.03 -1.02,0 -1.98,0.03 -0.96,0.03 -1.71,0.03 -0.06,0 -0.06,-0.18 0,-0.18 0.06,-0.18 1.08,0 1.62,-0.15 0.57,-0.15 0.75,-0.6 0.18,-0.45 0.18,-1.32 z"
       id="path320" />
  </g>
  <g
     aria-label="E"
     id="text142"
     style="font-size:30px;font-family:'Cormorant Garamond Medium';text-anchor:middle;fill:#b0813b">
    <path
       d="m 793.67999,210 h -12.78 q -0.09,0 -0.09,-0.18 0,-0.18 0.09,-0.18 1.02,0 1.53,-0.15 0.54,-0.15 0.72,-0.6 0.18,-0.45 0.18,-1.32 v -13.89 q 0,-0.87 -0.18,-1.29 -0.18,-0.45 -0.72,-0.6 -0.51,-0.18 -1.53,-0.18 -0.09,0 -0.09,-0.18 0,-0.18 0.09,-0.18 h 12.24 q 0.3,0 0.3,0.27 l 0.06,3.78 q 0,0.09 -0.18,0.12 -0.15,0 -0.18,-0.09 -0.21,-1.65 -1.17,-2.49 -0.96,-0.87 -2.52,-0.87 h -1.53 q -0.9,0 -1.38,0.15 -0.48,0.15 -0.66,0.57 -0.18,0.39 -0.18,1.11 v 13.65 q 0,0.72 0.15,1.14 0.18,0.39 0.63,0.57 0.45,0.15 1.26,0.15 h 1.98 q 1.71,0 2.82,-0.99 1.11,-1.02 1.53,-2.88 0,-0.09 0.18,-0.06 0.18,0.03 0.18,0.12 -0.12,0.81 -0.21,1.95 -0.09,1.14 -0.09,2.1 0,0.45 -0.45,0.45 z m -1.68,-6.9 q 0,-1.29 -0.75,-1.89 -0.72,-0.63 -2.34,-0.63 h -4.35 v -0.69 h 4.44 q 1.53,0 2.25,-0.51 0.72,-0.54 0.72,-1.65 0,-0.06 0.15,-0.06 0.18,0 0.18,0.06 0,0.93 -0.03,1.44 0,0.51 0,1.08 0,0.69 0.03,1.38 0.06,0.69 0.06,1.47 0,0.06 -0.18,0.06 -0.18,0 -0.18,-0.06 z"
       id="path323" />
  </g>
  <g
     aria-label="S"
     id="text144"
     style="font-size:30px;font-family:'Cormorant Garamond Medium';text-anchor:middle;fill:#b0813b">
    <path
       d="m 819.50499,194.61 q 0,1.2 0.6,2.07 0.6,0.87 1.56,1.56 0.96,0.66 2.04,1.32 1.11,0.66 2.13,1.41 1.05,0.75 1.71,1.77 0.69,0.99 0.69,2.43 0,1.47 -0.78,2.64 -0.75,1.17 -2.16,1.86 -1.38,0.69 -3.33,0.69 -0.78,0 -1.59,-0.15 -0.78,-0.12 -1.5,-0.36 -0.72,-0.24 -1.32,-0.6 -0.12,-0.09 -0.21,-0.21 -0.06,-0.12 -0.06,-0.36 l -0.3,-4.29 q -0.03,-0.15 0.12,-0.15 0.18,-0.03 0.21,0.09 0.27,0.93 0.72,1.89 0.45,0.96 1.08,1.77 0.63,0.78 1.5,1.29 0.9,0.51 2.07,0.51 0.81,0 1.56,-0.3 0.78,-0.3 1.26,-0.99 0.48,-0.72 0.48,-1.98 0,-1.44 -0.63,-2.43 -0.63,-0.99 -1.62,-1.71 -0.99,-0.72 -2.1,-1.38 -1.05,-0.66 -2.04,-1.38 -0.96,-0.72 -1.56,-1.65 -0.6,-0.96 -0.6,-2.31 0,-1.62 0.84,-2.67 0.87,-1.05 2.19,-1.56 1.35,-0.51 2.76,-0.51 0.93,0 1.89,0.18 0.96,0.18 1.74,0.51 0.27,0.12 0.36,0.27 0.09,0.12 0.09,0.27 l 0.15,3.75 q 0,0.09 -0.15,0.12 -0.15,0.03 -0.21,-0.09 -0.09,-0.51 -0.39,-1.26 -0.3,-0.78 -0.81,-1.5 -0.51,-0.75 -1.32,-1.23 -0.78,-0.51 -1.92,-0.51 -1.05,0 -1.74,0.45 -0.69,0.42 -1.05,1.14 -0.36,0.69 -0.36,1.59 z"
       id="path326" />
  </g>
  <g
     aria-label="M"
     id="text146"
     style="font-size:30px;font-family:'Cormorant Garamond Medium';text-anchor:middle;fill:#b0813b">
    <path
       d="m 839.42998,206.58 0.3,-14.64 0.75,0.06 -0.3,14.58 q -0.03,1.56 0.54,2.31 0.6,0.75 1.98,0.75 0.09,0 0.09,0.18 0,0.18 -0.09,0.18 -0.66,0 -1.35,-0.03 -0.69,-0.03 -1.56,-0.03 -0.81,0 -1.53,0.03 -0.72,0.03 -1.35,0.03 -0.06,0 -0.06,-0.18 0,-0.18 0.06,-0.18 1.26,0 1.86,-0.75 0.63,-0.75 0.66,-2.31 z m 21,3.06 q 0.06,0 0.06,0.18 0,0.18 -0.06,0.18 -0.75,0 -1.68,-0.03 -0.93,-0.03 -1.98,-0.03 -0.99,0 -1.86,0.03 -0.87,0.03 -1.56,0.03 -0.09,0 -0.09,-0.18 0,-0.18 0.09,-0.18 1.47,0 1.89,-0.39 0.42,-0.39 0.33,-1.68 l -0.6,-14.13 1.17,-1.68 -7.77,18.03 q -0.03,0.12 -0.24,0.12 -0.18,0 -0.24,-0.12 l -7.83,-16.05 q -1.05,-2.13 -2.94,-2.13 -0.06,0 -0.06,-0.18 0,-0.18 0.06,-0.18 0.54,0 1.11,0.03 0.6,0.03 1.02,0.03 0.57,0 1.02,-0.03 0.48,-0.03 0.72,-0.03 0.42,0 0.66,0.3 0.24,0.27 0.72,1.26 l 6.81,13.83 -1.11,1.92 7.23,-16.56 q 0.15,-0.36 0.36,-0.54 0.24,-0.21 0.54,-0.21 0.21,0 0.51,0.03 0.33,0.03 0.75,0.03 0.84,0 1.41,-0.03 0.57,-0.03 1.17,-0.03 0.06,0 0.06,0.18 0,0.18 -0.06,0.18 -1.44,0 -2.1,0.48 -0.66,0.45 -0.63,1.68 l 0.63,13.8 q 0.06,0.87 0.24,1.32 0.18,0.45 0.69,0.6 0.51,0.15 1.56,0.15 z"
       id="path329" />
  </g>
  <g
     aria-label="A"
     id="text148"
     style="font-size:30px;font-family:'Cormorant Garamond Medium';text-anchor:middle;fill:#b0813b">
    <path
       d="m 872.73003,202.17 0.36,-0.66 h 8.16 l 0.21,0.66 z m 15.51,7.47 q 0.15,0 0.15,0.18 0,0.18 -0.15,0.18 -0.87,0 -1.8,-0.06 -0.9,-0.06 -1.77,-0.06 -0.96,0 -1.68,0.06 -0.69,0.06 -1.56,0.06 -0.12,0 -0.12,-0.18 0,-0.18 0.12,-0.18 1.47,0 1.8,-0.45 0.33,-0.48 -0.33,-1.86 l -6.45,-13.41 0.96,-1.44 -5.85,13.56 q -0.78,1.83 -0.09,2.73 0.69,0.87 2.58,0.87 0.15,0 0.15,0.18 0,0.18 -0.15,0.18 -0.9,0 -1.65,-0.06 -0.75,-0.06 -1.89,-0.06 -1.11,0 -1.8,0.06 -0.66,0.06 -1.62,0.06 -0.12,0 -0.12,-0.18 0,-0.18 0.12,-0.18 0.81,0 1.41,-0.3 0.6,-0.33 1.14,-1.17 0.57,-0.84 1.23,-2.4 l 6.39,-14.73 q 0.03,-0.09 0.21,-0.09 0.18,-0.03 0.21,0.09 l 7.2,14.85 q 0.72,1.47 1.23,2.31 0.54,0.81 1.05,1.14 0.51,0.3 1.08,0.3 z"
       id="path332" />
  </g>
  <g
     aria-label="L"
     id="text150"
     style="font-size:30px;font-family:'Cormorant Garamond Medium';text-anchor:middle;fill:#b0813b">
    <path
       d="m 900.11497,193.71 v 13.74 q 0,0.78 0.15,1.2 0.18,0.39 0.63,0.54 0.48,0.12 1.41,0.12 h 2.55 q 1.95,0 3.18,-1.14 1.23,-1.14 1.62,-3.03 0,-0.09 0.15,-0.06 0.18,0 0.18,0.09 -0.09,0.87 -0.18,2.1 -0.09,1.23 -0.09,2.28 0,0.45 -0.45,0.45 h -13.98 q -0.06,0 -0.06,-0.18 0,-0.18 0.06,-0.18 1.05,0 1.56,-0.15 0.54,-0.15 0.72,-0.6 0.18,-0.45 0.18,-1.32 v -13.89 q 0,-0.87 -0.18,-1.29 -0.18,-0.45 -0.72,-0.6 -0.51,-0.18 -1.56,-0.18 -0.06,0 -0.06,-0.18 0,-0.18 0.06,-0.18 0.72,0 1.65,0.06 0.96,0.03 1.98,0.03 1.08,0 1.98,-0.03 0.93,-0.06 1.65,-0.06 0.06,0 0.06,0.18 0,0.18 -0.06,0.18 -1.05,0 -1.56,0.18 -0.51,0.15 -0.69,0.6 -0.18,0.45 -0.18,1.32 z"
       id="path335" />
  </g>
  <g
     aria-label="L"
     id="text152"
     style="font-size:30px;font-family:'Cormorant Garamond Medium';text-anchor:middle;fill:#b0813b">
    <path
       d="m 922.22501,193.71 v 13.74 q 0,0.78 0.15,1.2 0.18,0.39 0.63,0.54 0.48,0.12 1.41,0.12 h 2.55 q 1.95,0 3.18,-1.14 1.23,-1.14 1.62,-3.03 0,-0.09 0.15,-0.06 0.18,0 0.18,0.09 -0.09,0.87 -0.18,2.1 -0.09,1.23 -0.09,2.28 0,0.45 -0.45,0.45 h -13.98 q -0.06,0 -0.06,-0.18 0,-0.18 0.06,-0.18 1.05,0 1.56,-0.15 0.54,-0.15 0.72,-0.6 0.18,-0.45 0.18,-1.32 v -13.89 q 0,-0.87 -0.18,-1.29 -0.18,-0.45 -0.72,-0.6 -0.51,-0.18 -1.56,-0.18 -0.06,0 -0.06,-0.18 0,-0.18 0.06,-0.18 0.72,0 1.65,0.06 0.96,0.03 1.98,0.03 1.08,0 1.98,-0.03 0.93,-0.06 1.65,-0.06 0.06,0 0.06,0.18 0,0.18 -0.06,0.18 -1.05,0 -1.56,0.18 -0.51,0.15 -0.69,0.6 -0.18,0.45 -0.18,1.32 z"
       id="path338" />
  </g>
  <g
     aria-label="T"
     id="text154"
     style="font-size:30px;font-family:'Cormorant Garamond Medium';text-anchor:middle;fill:#b0813b">
    <path
       d="m 957.50504,191.85 q -1.86,0 -2.91,1.05 -1.05,1.02 -1.56,3.3 -0.03,0.06 -0.21,0.06 -0.15,0 -0.15,-0.09 0.06,-0.39 0.12,-1.11 0.09,-0.72 0.15,-1.56 0.06,-0.84 0.09,-1.62 0.06,-0.78 0.06,-1.29 0,-0.15 0.18,-0.15 0.18,0 0.18,0.15 0,0.3 0.3,0.45 0.3,0.12 0.69,0.18 0.39,0.03 0.66,0.03 2.58,0.09 6.03,0.09 2.1,0 3.36,-0.03 1.26,-0.06 2.43,-0.06 1.02,0 1.56,-0.12 0.57,-0.15 0.72,-0.63 0.03,-0.12 0.18,-0.12 0.18,0 0.18,0.12 -0.06,0.45 -0.12,1.26 -0.03,0.81 -0.09,1.68 -0.03,0.87 -0.06,1.62 -0.03,0.75 -0.03,1.11 0,0.09 -0.18,0.09 -0.15,0 -0.15,-0.09 -0.21,-2.34 -1.2,-3.33 -0.99,-0.99 -2.94,-0.99 -1.05,0 -1.59,0.15 -0.51,0.12 -0.69,0.51 -0.15,0.39 -0.15,1.23 v 13.83 q 0,0.87 0.18,1.32 0.21,0.45 0.78,0.6 0.6,0.15 1.83,0.15 0.06,0 0.06,0.18 0,0.18 -0.06,0.18 -0.81,0 -1.83,-0.03 -0.99,-0.03 -2.19,-0.03 -1.14,0 -2.16,0.03 -0.99,0.03 -1.83,0.03 -0.09,0 -0.09,-0.18 0,-0.18 0.09,-0.18 1.17,0 1.77,-0.15 0.63,-0.15 0.84,-0.6 0.21,-0.45 0.21,-1.32 v -13.89 q 0,-0.81 -0.18,-1.2 -0.18,-0.42 -0.72,-0.51 -0.54,-0.12 -1.56,-0.12 z"
       id="path341" />
  </g>
  <g
     aria-label="H"
     id="text156"
     style="font-size:30px;font-family:'Cormorant Garamond Medium';text-anchor:middle;fill:#b0813b">
    <path
       d="m 993.505,193.74 q 0,-0.87 -0.18,-1.32 -0.15,-0.45 -0.72,-0.63 -0.54,-0.18 -1.68,-0.18 -0.09,0 -0.09,-0.18 0,-0.18 0.09,-0.18 0.72,0 1.65,0.06 0.96,0.03 2.13,0.03 1.02,0 1.98,-0.03 0.99,-0.06 1.71,-0.06 0.09,0 0.09,0.18 0,0.18 -0.09,0.18 -1.05,0 -1.62,0.18 -0.54,0.15 -0.72,0.6 -0.18,0.42 -0.18,1.29 v 13.89 q 0,0.87 0.18,1.32 0.18,0.45 0.72,0.6 0.57,0.15 1.62,0.15 0.09,0 0.09,0.18 0,0.18 -0.09,0.18 -0.72,0 -1.71,-0.03 -0.96,-0.03 -1.98,-0.03 -1.17,0 -2.13,0.03 -0.93,0.03 -1.65,0.03 -0.09,0 -0.09,-0.18 0,-0.18 0.09,-0.18 1.14,0 1.68,-0.15 0.57,-0.15 0.72,-0.6 0.18,-0.45 0.18,-1.32 z m -12.21,6.84 v -0.69 h 13.26 v 0.69 z m -1.11,6.99 v -13.89 q 0,-0.87 -0.18,-1.29 -0.18,-0.45 -0.72,-0.6 -0.54,-0.18 -1.59,-0.18 -0.09,0 -0.09,-0.18 0,-0.18 0.09,-0.18 0.75,0 1.68,0.06 0.93,0.03 1.95,0.03 1.2,0 2.13,-0.03 0.96,-0.06 1.71,-0.06 0.06,0 0.06,0.18 0,0.18 -0.06,0.18 -1.11,0 -1.68,0.18 -0.54,0.18 -0.75,0.63 -0.18,0.45 -0.18,1.32 v 13.83 q 0,0.87 0.18,1.32 0.18,0.45 0.75,0.6 0.57,0.15 1.68,0.15 0.06,0 0.06,0.18 0,0.18 -0.06,0.18 -0.78,0 -1.71,-0.03 -0.93,-0.03 -2.13,-0.03 -1.02,0 -1.98,0.03 -0.96,0.03 -1.71,0.03 -0.06,0 -0.06,-0.18 0,-0.18 0.06,-0.18 1.08,0 1.62,-0.15 0.57,-0.15 0.75,-0.6 0.18,-0.45 0.18,-1.32 z"
       id="path344" />
  </g>
  <g
     aria-label="I"
     id="text158"
     style="font-size:30px;font-family:'Cormorant Garamond Medium';text-anchor:middle;fill:#b0813b">
    <path
       d="m 1011.715,207.57 q 0,0.87 0.15,1.32 0.18,0.45 0.69,0.6 0.54,0.15 1.59,0.15 0.06,0 0.06,0.18 0,0.18 -0.06,0.18 -0.75,0 -1.68,-0.03 -0.9,-0.03 -1.98,-0.03 -1.05,0 -1.98,0.03 -0.93,0.03 -1.68,0.03 -0.06,0 -0.06,-0.18 0,-0.18 0.06,-0.18 1.05,0 1.59,-0.15 0.54,-0.15 0.72,-0.6 0.18,-0.45 0.18,-1.32 v -13.89 q 0,-0.87 -0.18,-1.29 -0.18,-0.45 -0.72,-0.6 -0.54,-0.18 -1.59,-0.18 -0.06,0 -0.06,-0.18 0,-0.18 0.06,-0.18 0.75,0 1.68,0.06 0.93,0.03 1.98,0.03 1.08,0 2.01,-0.03 0.93,-0.06 1.65,-0.06 0.06,0 0.06,0.18 0,0.18 -0.06,0.18 -1.05,0 -1.56,0.18 -0.51,0.18 -0.69,0.63 -0.18,0.45 -0.18,1.32 z"
       id="path347" />
  </g>
  <g
     aria-label="N"
     id="text160"
     style="font-size:30px;font-family:'Cormorant Garamond Medium';text-anchor:middle;fill:#b0813b">
    <path
       d="m 1025.18,206.58 v -14.64 l 0.78,0.06 v 14.58 q 0,1.56 0.57,2.31 0.57,0.75 1.8,0.75 0.06,0 0.06,0.18 0,0.18 -0.06,0.18 -0.63,0 -1.29,-0.03 -0.63,-0.03 -1.44,-0.03 -0.78,0 -1.53,0.03 -0.75,0.03 -1.41,0.03 -0.06,0 -0.06,-0.18 0,-0.18 0.06,-0.18 1.32,0 1.92,-0.75 0.6,-0.75 0.6,-2.31 z m 15.18,3.81 q 0,0.06 -0.15,0.06 -0.12,0.03 -0.18,0 l -14.13,-16.74 q -1.05,-1.23 -1.83,-1.65 -0.75,-0.45 -1.5,-0.45 -0.06,0 -0.06,-0.18 0,-0.18 0.06,-0.18 0.57,0 1.14,0.03 0.57,0.03 1.05,0.03 0.72,0 1.32,-0.03 0.6,-0.03 0.9,-0.03 0.39,0 0.57,0.36 0.18,0.33 0.87,1.2 l 11.7,14.1 z m 0,-15.69 v 15.69 l -0.75,-0.93 V 194.7 q 0,-1.56 -0.57,-2.31 -0.54,-0.78 -1.77,-0.78 -0.06,0 -0.06,-0.18 0,-0.18 0.06,-0.18 0.63,0 1.29,0.06 0.66,0.03 1.44,0.03 0.75,0 1.47,-0.03 0.72,-0.06 1.35,-0.06 0.06,0 0.06,0.18 0,0.18 -0.06,0.18 -1.26,0 -1.86,0.78 -0.6,0.75 -0.6,2.31 z"
       id="path350" />
  </g>
  <g
     aria-label="G"
     id="text162"
     style="font-size:30px;font-family:'Cormorant Garamond Medium';text-anchor:middle;fill:#b0813b">
    <path
       d="m 1061.785,210.36 q -2.58,0 -4.62,-0.75 -2.01,-0.78 -3.42,-2.13 -1.38,-1.35 -2.13,-3.12 -0.72,-1.77 -0.72,-3.75 0,-2.25 0.84,-4.02 0.87,-1.77 2.43,-3.03 1.56,-1.29 3.63,-1.95 2.07,-0.69 4.5,-0.69 1.56,0 2.94,0.27 1.41,0.27 2.34,0.78 0.27,0.12 0.3,0.21 0.03,0.09 0.06,0.48 l 0.39,3.72 q 0,0.09 -0.15,0.12 -0.15,0.03 -0.21,-0.09 -0.3,-0.93 -0.81,-1.8 -0.51,-0.9 -1.29,-1.59 -0.78,-0.72 -1.86,-1.14 -1.05,-0.42 -2.46,-0.42 -2.22,0 -4.02,1.05 -1.8,1.02 -2.85,2.97 -1.05,1.92 -1.05,4.62 0,1.92 0.57,3.69 0.6,1.77 1.74,3.15 1.14,1.38 2.79,2.19 1.68,0.78 3.84,0.78 1.35,0 2.13,-0.33 0.81,-0.36 1.17,-1.14 0.36,-0.81 0.36,-2.19 0,-1.44 -0.18,-2.1 -0.18,-0.69 -0.87,-0.9 -0.69,-0.21 -2.25,-0.21 -0.18,0 -0.18,-0.24 0,-0.24 0.15,-0.24 1.98,0.12 3.57,0.15 1.62,0 3.36,-0.09 0.15,0 0.15,0.21 0,0.21 -0.15,0.21 -0.63,-0.03 -0.93,0.21 -0.3,0.21 -0.39,0.96 -0.06,0.75 -0.06,2.34 0,0.99 0.06,1.47 0.06,0.48 0.09,0.72 0.06,0.21 0.06,0.45 0,0.18 -0.06,0.24 -0.06,0.06 -0.27,0.12 -1.56,0.33 -3.3,0.57 -1.71,0.24 -3.24,0.24 z"
       id="path353" />
  </g>
  <g
     aria-label="S"
     id="text164"
     style="font-size:30px;font-family:'Cormorant Garamond Medium';text-anchor:middle;fill:#b0813b">
    <path
       d="m 1081.615,194.61 q 0,1.2 0.6,2.07 0.6,0.87 1.56,1.56 0.96,0.66 2.04,1.32 1.11,0.66 2.13,1.41 1.05,0.75 1.71,1.77 0.69,0.99 0.69,2.43 0,1.47 -0.78,2.64 -0.75,1.17 -2.16,1.86 -1.38,0.69 -3.33,0.69 -0.78,0 -1.59,-0.15 -0.78,-0.12 -1.5,-0.36 -0.72,-0.24 -1.32,-0.6 -0.12,-0.09 -0.21,-0.21 -0.06,-0.12 -0.06,-0.36 l -0.3,-4.29 q -0.03,-0.15 0.12,-0.15 0.18,-0.03 0.21,0.09 0.27,0.93 0.72,1.89 0.45,0.96 1.08,1.77 0.63,0.78 1.5,1.29 0.9,0.51 2.07,0.51 0.81,0 1.56,-0.3 0.78,-0.3 1.26,-0.99 0.48,-0.72 0.48,-1.98 0,-1.44 -0.63,-2.43 -0.63,-0.99 -1.62,-1.71 -0.99,-0.72 -2.1,-1.38 -1.05,-0.66 -2.04,-1.38 -0.96,-0.72 -1.56,-1.65 -0.6,-0.96 -0.6,-2.31 0,-1.62 0.84,-2.67 0.87,-1.05 2.19,-1.56 1.35,-0.51 2.76,-0.51 0.93,0 1.89,0.18 0.96,0.18 1.74,0.51 0.27,0.12 0.36,0.27 0.09,0.12 0.09,0.27 l 0.15,3.75 q 0,0.09 -0.15,0.12 -0.15,0.03 -0.21,-0.09 -0.09,-0.51 -0.39,-1.26 -0.3,-0.78 -0.81,-1.5 -0.51,-0.75 -1.32,-1.23 -0.78,-0.51 -1.92,-0.51 -1.05,0 -1.74,0.45 -0.69,0.42 -1.05,1.14 -0.36,0.69 -0.36,1.59 z"
       id="path356" />
  </g>
  <g
     aria-label="M"
     id="text166"
     style="font-size:30px;font-family:'Cormorant Garamond Medium';text-anchor:middle;fill:#b0813b">
    <path
       d="m 1114.55,206.58 0.3,-14.64 0.75,0.06 -0.3,14.58 q -0.03,1.56 0.54,2.31 0.6,0.75 1.98,0.75 0.09,0 0.09,0.18 0,0.18 -0.09,0.18 -0.66,0 -1.35,-0.03 -0.69,-0.03 -1.56,-0.03 -0.81,0 -1.53,0.03 -0.72,0.03 -1.35,0.03 -0.06,0 -0.06,-0.18 0,-0.18 0.06,-0.18 1.26,0 1.86,-0.75 0.63,-0.75 0.66,-2.31 z m 21,3.06 q 0.06,0 0.06,0.18 0,0.18 -0.06,0.18 -0.75,0 -1.68,-0.03 -0.93,-0.03 -1.98,-0.03 -0.99,0 -1.86,0.03 -0.87,0.03 -1.56,0.03 -0.09,0 -0.09,-0.18 0,-0.18 0.09,-0.18 1.47,0 1.89,-0.39 0.42,-0.39 0.33,-1.68 l -0.6,-14.13 1.17,-1.68 -7.77,18.03 q -0.03,0.12 -0.24,0.12 -0.18,0 -0.24,-0.12 l -7.83,-16.05 q -1.05,-2.13 -2.94,-2.13 -0.06,0 -0.06,-0.18 0,-0.18 0.06,-0.18 0.54,0 1.11,0.03 0.6,0.03 1.02,0.03 0.57,0 1.02,-0.03 0.48,-0.03 0.72,-0.03 0.42,0 0.66,0.3 0.24,0.27 0.72,1.26 l 6.81,13.83 -1.11,1.92 7.23,-16.56 q 0.15,-0.36 0.36,-0.54 0.24,-0.21 0.54,-0.21 0.21,0 0.51,0.03 0.33,0.03 0.75,0.03 0.84,0 1.41,-0.03 0.57,-0.03 1.17,-0.03 0.06,0 0.06,0.18 0,0.18 -0.06,0.18 -1.44,0 -2.1,0.48 -0.66,0.45 -0.63,1.68 l 0.63,13.8 q 0.06,0.87 0.24,1.32 0.18,0.45 0.69,0.6 0.51,0.15 1.56,0.15 z"
       id="path359" />
  </g>
  <g
     aria-label="A"
     id="text168"
     style="font-size:30px;font-family:'Cormorant Garamond Medium';text-anchor:middle;fill:#b0813b">
    <path
       d="m 1147.85,202.17 0.36,-0.66 h 8.16 l 0.21,0.66 z m 15.51,7.47 q 0.15,0 0.15,0.18 0,0.18 -0.15,0.18 -0.87,0 -1.8,-0.06 -0.9,-0.06 -1.77,-0.06 -0.96,0 -1.68,0.06 -0.69,0.06 -1.56,0.06 -0.12,0 -0.12,-0.18 0,-0.18 0.12,-0.18 1.47,0 1.8,-0.45 0.33,-0.48 -0.33,-1.86 l -6.45,-13.41 0.96,-1.44 -5.85,13.56 q -0.78,1.83 -0.09,2.73 0.69,0.87 2.58,0.87 0.15,0 0.15,0.18 0,0.18 -0.15,0.18 -0.9,0 -1.65,-0.06 -0.75,-0.06 -1.89,-0.06 -1.11,0 -1.8,0.06 -0.66,0.06 -1.62,0.06 -0.12,0 -0.12,-0.18 0,-0.18 0.12,-0.18 0.81,0 1.41,-0.3 0.6,-0.33 1.14,-1.17 0.57,-0.84 1.23,-2.4 l 6.39,-14.73 q 0.03,-0.09 0.21,-0.09 0.18,-0.03 0.21,0.09 l 7.2,14.85 q 0.72,1.47 1.23,2.31 0.54,0.81 1.05,1.14 0.51,0.3 1.08,0.3 z"
       id="path362" />
  </g>
  <g
     aria-label="T"
     id="text170"
     style="font-size:30px;font-family:'Cormorant Garamond Medium';text-anchor:middle;fill:#b0813b">
    <path
       d="m 1175.395,191.85 q -1.86,0 -2.91,1.05 -1.05,1.02 -1.56,3.3 -0.03,0.06 -0.21,0.06 -0.15,0 -0.15,-0.09 0.06,-0.39 0.12,-1.11 0.09,-0.72 0.15,-1.56 0.06,-0.84 0.09,-1.62 0.06,-0.78 0.06,-1.29 0,-0.15 0.18,-0.15 0.18,0 0.18,0.15 0,0.3 0.3,0.45 0.3,0.12 0.69,0.18 0.39,0.03 0.66,0.03 2.58,0.09 6.03,0.09 2.1,0 3.36,-0.03 1.26,-0.06 2.43,-0.06 1.02,0 1.56,-0.12 0.57,-0.15 0.72,-0.63 0.03,-0.12 0.18,-0.12 0.18,0 0.18,0.12 -0.06,0.45 -0.12,1.26 -0.03,0.81 -0.09,1.68 -0.03,0.87 -0.06,1.62 -0.03,0.75 -0.03,1.11 0,0.09 -0.18,0.09 -0.15,0 -0.15,-0.09 -0.21,-2.34 -1.2,-3.33 -0.99,-0.99 -2.94,-0.99 -1.05,0 -1.59,0.15 -0.51,0.12 -0.69,0.51 -0.15,0.39 -0.15,1.23 v 13.83 q 0,0.87 0.18,1.32 0.21,0.45 0.78,0.6 0.6,0.15 1.83,0.15 0.06,0 0.06,0.18 0,0.18 -0.06,0.18 -0.81,0 -1.83,-0.03 -0.99,-0.03 -2.19,-0.03 -1.14,0 -2.16,0.03 -0.99,0.03 -1.83,0.03 -0.09,0 -0.09,-0.18 0,-0.18 0.09,-0.18 1.17,0 1.77,-0.15 0.63,-0.15 0.84,-0.6 0.21,-0.45 0.21,-1.32 v -13.89 q 0,-0.81 -0.18,-1.2 -0.18,-0.42 -0.72,-0.51 -0.54,-0.12 -1.56,-0.12 z"
       id="path365" />
  </g>
  <g
     aria-label="T"
     id="text172"
     style="font-size:30px;font-family:'Cormorant Garamond Medium';text-anchor:middle;fill:#b0813b">
    <path
       d="m 1200.505,191.85 q -1.86,0 -2.91,1.05 -1.05,1.02 -1.56,3.3 -0.03,0.06 -0.21,0.06 -0.15,0 -0.15,-0.09 0.06,-0.39 0.12,-1.11 0.09,-0.72 0.15,-1.56 0.06,-0.84 0.09,-1.62 0.06,-0.78 0.06,-1.29 0,-0.15 0.18,-0.15 0.18,0 0.18,0.15 0,0.3 0.3,0.45 0.3,0.12 0.69,0.18 0.39,0.03 0.66,0.03 2.58,0.09 6.03,0.09 2.1,0 3.36,-0.03 1.26,-0.06 2.43,-0.06 1.02,0 1.56,-0.12 0.57,-0.15 0.72,-0.63 0.03,-0.12 0.18,-0.12 0.18,0 0.18,0.12 -0.06,0.45 -0.12,1.26 -0.03,0.81 -0.09,1.68 -0.03,0.87 -0.06,1.62 -0.03,0.75 -0.03,1.11 0,0.09 -0.18,0.09 -0.15,0 -0.15,-0.09 -0.21,-2.34 -1.2,-3.33 -0.99,-0.99 -2.94,-0.99 -1.05,0 -1.59,0.15 -0.51,0.12 -0.69,0.51 -0.15,0.39 -0.15,1.23 v 13.83 q 0,0.87 0.18,1.32 0.21,0.45 0.78,0.6 0.6,0.15 1.83,0.15 0.06,0 0.06,0.18 0,0.18 -0.06,0.18 -0.81,0 -1.83,-0.03 -0.99,-0.03 -2.19,-0.03 -1.14,0 -2.16,0.03 -0.99,0.03 -1.83,0.03 -0.09,0 -0.09,-0.18 0,-0.18 0.09,-0.18 1.17,0 1.77,-0.15 0.63,-0.15 0.84,-0.6 0.21,-0.45 0.21,-1.32 v -13.89 q 0,-0.81 -0.18,-1.2 -0.18,-0.42 -0.72,-0.51 -0.54,-0.12 -1.56,-0.12 z"
       id="path368" />
  </g>
  <g
     aria-label="E"
     id="text174"
     style="font-size:30px;font-family:'Cormorant Garamond Medium';text-anchor:middle;fill:#b0813b">
    <path
       d="m 1233.71,210 h -12.78 q -0.09,0 -0.09,-0.18 0,-0.18 0.09,-0.18 1.02,0 1.53,-0.15 0.54,-0.15 0.72,-0.6 0.18,-0.45 0.18,-1.32 v -13.89 q 0,-0.87 -0.18,-1.29 -0.18,-0.45 -0.72,-0.6 -0.51,-0.18 -1.53,-0.18 -0.09,0 -0.09,-0.18 0,-0.18 0.09,-0.18 h 12.24 q 0.3,0 0.3,0.27 l 0.06,3.78 q 0,0.09 -0.18,0.12 -0.15,0 -0.18,-0.09 -0.21,-1.65 -1.17,-2.49 -0.96,-0.87 -2.52,-0.87 h -1.53 q -0.9,0 -1.38,0.15 -0.48,0.15 -0.66,0.57 -0.18,0.39 -0.18,1.11 v 13.65 q 0,0.72 0.15,1.14 0.18,0.39 0.63,0.57 0.45,0.15 1.26,0.15 h 1.98 q 1.71,0 2.82,-0.99 1.11,-1.02 1.53,-2.88 0,-0.09 0.18,-0.06 0.18,0.03 0.18,0.12 -0.12,0.81 -0.21,1.95 -0.09,1.14 -0.09,2.1 0,0.45 -0.45,0.45 z m -1.68,-6.9 q 0,-1.29 -0.75,-1.89 -0.72,-0.63 -2.34,-0.63 h -4.35 v -0.69 h 4.44 q 1.53,0 2.25,-0.51 0.72,-0.54 0.72,-1.65 0,-0.06 0.15,-0.06 0.18,0 0.18,0.06 0,0.93 -0.03,1.44 0,0.51 0,1.08 0,0.69 0.03,1.38 0.06,0.69 0.06,1.47 0,0.06 -0.18,0.06 -0.18,0 -0.18,-0.06 z"
       id="path371" />
  </g>
  <g
     aria-label="R"
     id="text176"
     style="font-size:30px;font-family:'Cormorant Garamond Medium';text-anchor:middle;fill:#b0813b">
    <path
       d="m 1258.285,210 q -0.48,0 -1.59,-1.14 -1.08,-1.17 -2.61,-3.3 -1.53,-2.16 -3.45,-5.13 l 2.01,-0.63 q 2.52,3.63 4.26,5.79 1.77,2.16 3.12,3.12 1.35,0.93 2.58,0.93 0.09,0 0.09,0.18 0,0.18 -0.09,0.18 -1.68,0 -2.76,0 -1.05,0 -1.56,0 z m -7.2,-18.84 q 2.52,0 3.84,1.08 1.35,1.05 1.35,2.82 0,1.68 -0.96,3 -0.96,1.32 -2.52,2.07 -1.53,0.75 -3.3,0.75 -0.36,0 -0.75,0 -0.39,-0.03 -0.72,-0.06 v 6.75 q 0,0.87 0.15,1.32 0.18,0.45 0.69,0.6 0.54,0.15 1.59,0.15 0.09,0 0.09,0.18 0,0.18 -0.09,0.18 -0.75,0 -1.65,-0.03 -0.9,-0.03 -1.98,-0.03 -1.02,0 -1.95,0.03 -0.93,0.03 -1.68,0.03 -0.09,0 -0.09,-0.18 0,-0.18 0.09,-0.18 1.02,0 1.53,-0.15 0.54,-0.15 0.72,-0.6 0.21,-0.45 0.21,-1.32 v -13.89 q 0,-0.87 -0.18,-1.29 -0.18,-0.45 -0.69,-0.6 -0.51,-0.18 -1.56,-0.18 -0.06,0 -0.06,-0.18 0,-0.18 0.06,-0.18 0.75,0 1.65,0.06 0.93,0.03 1.95,0.03 0.96,0 2.16,-0.09 1.2,-0.09 2.1,-0.09 z m 2.73,4.86 q 0,-1.68 -0.45,-2.61 -0.45,-0.96 -1.29,-1.35 -0.81,-0.39 -1.92,-0.39 -1.14,0 -1.65,0.42 -0.48,0.39 -0.48,1.65 v 6.33 q 0.42,0.03 0.9,0.06 0.51,0.03 0.87,0.03 2.22,0 3.12,-1.02 0.9,-1.02 0.9,-3.12 z"
       id="path374" />
  </g>
  <g
     aria-label="."
     id="text178"
     style="font-size:30px;font-family:'Cormorant Garamond Medium';text-anchor:middle;fill:#b0813b">
    <path
       d="m 1271.3599,210.33 q -0.66,0 -1.08,-0.39 -0.39,-0.39 -0.39,-1.08 0,-0.63 0.39,-0.99 0.42,-0.39 1.08,-0.39 0.72,0 1.08,0.39 0.36,0.36 0.36,0.99 0,0.69 -0.36,1.08 -0.36,0.39 -1.08,0.39 z"
       id="path377" />
  </g>
  <path
     d="M 660.5,200.0 Q 682.5,196.0 704.5,200.0"
     fill="none"
     stroke="#B0813B"
     stroke-width="2.4"
     stroke-linecap="round"
     id="path180" />
  <path
     d="M 667.7,198.4 Q 673.2,197.4 675.5,192.3 Q 670.0,193.3 667.7,198.4 Z"
     fill="none"
     stroke="#B0813B"
     stroke-width="2.16"
     stroke-linejoin="round"
     id="path182" />
  <path
     d="M 667.7,198.4 Q 670.0,203.6 675.5,204.6 Q 673.2,199.5 667.7,198.4 Z"
     fill="none"
     stroke="#B0813B"
     stroke-width="2.16"
     stroke-linejoin="round"
     id="path184" />
  <path
     d="M 680.6,196.8 Q 686.1,195.8 688.5,190.7 Q 682.9,191.7 680.6,196.8 Z"
     fill="none"
     stroke="#B0813B"
     stroke-width="2.16"
     stroke-linejoin="round"
     id="path186" />
  <path
     d="M 680.6,196.8 Q 682.9,202.0 688.5,203.0 Q 686.1,197.9 680.6,196.8 Z"
     fill="none"
     stroke="#B0813B"
     stroke-width="2.16"
     stroke-linejoin="round"
     id="path188" />
  <path
     d="M 693.5,197.7 Q 699.1,196.7 701.4,191.6 Q 695.9,192.6 693.5,197.7 Z"
     fill="none"
     stroke="#B0813B"
     stroke-width="2.16"
     stroke-linejoin="round"
     id="path190" />
  <path
     d="M 693.5,197.7 Q 695.9,202.9 701.4,203.9 Q 699.1,198.8 693.5,197.7 Z"
     fill="none"
     stroke="#B0813B"
     stroke-width="2.16"
     stroke-linejoin="round"
     id="path192" />
  <path
     d="M 704.5,200.0 Q 710.0,202.6 715.5,200.0 Q 710.0,197.4 704.5,200.0 Z"
     fill="none"
     stroke="#B0813B"
     stroke-width="2.16"
     stroke-linejoin="round"
     id="path194" />
  <line
     x1="648.5"
     y1="200"
     x2="564.5"
     y2="200"
     stroke="#B0813B"
     stroke-width="2"
     id="line196" />
  <path
     d="M 1339.5,200.0 Q 1317.5,196.0 1295.5,200.0"
     fill="none"
     stroke="#B0813B"
     stroke-width="2.4"
     stroke-linecap="round"
     id="path198" />
  <path
     d="M 1332.3,198.4 Q 1330.0,193.3 1324.5,192.3 Q 1326.8,197.4 1332.3,198.4 Z"
     fill="none"
     stroke="#B0813B"
     stroke-width="2.16"
     stroke-linejoin="round"
     id="path200" />
  <path
     d="M 1332.3,198.4 Q 1326.8,199.5 1324.5,204.6 Q 1330.0,203.6 1332.3,198.4 Z"
     fill="none"
     stroke="#B0813B"
     stroke-width="2.16"
     stroke-linejoin="round"
     id="path202" />
  <path
     d="M 1319.4,196.8 Q 1317.1,191.7 1311.5,190.7 Q 1313.9,195.8 1319.4,196.8 Z"
     fill="none"
     stroke="#B0813B"
     stroke-width="2.16"
     stroke-linejoin="round"
     id="path204" />
  <path
     d="M 1319.4,196.8 Q 1313.9,197.9 1311.5,203.0 Q 1317.1,202.0 1319.4,196.8 Z"
     fill="none"
     stroke="#B0813B"
     stroke-width="2.16"
     stroke-linejoin="round"
     id="path206" />
  <path
     d="M 1306.5,197.7 Q 1304.1,192.6 1298.6,191.6 Q 1300.9,196.7 1306.5,197.7 Z"
     fill="none"
     stroke="#B0813B"
     stroke-width="2.16"
     stroke-linejoin="round"
     id="path208" />
  <path
     d="M 1306.5,197.7 Q 1300.9,198.8 1298.6,203.9 Q 1304.1,202.9 1306.5,197.7 Z"
     fill="none"
     stroke="#B0813B"
     stroke-width="2.16"
     stroke-linejoin="round"
     id="path210" />
  <path
     d="M 1295.5,200.0 Q 1290.0,197.4 1284.5,200.0 Q 1290.0,202.6 1295.5,200.0 Z"
     fill="none"
     stroke="#B0813B"
     stroke-width="2.16"
     stroke-linejoin="round"
     id="path212" />
  <line
     x1="1351.5"
     y1="200"
     x2="1435.5"
     y2="200"
     stroke="#B0813B"
     stroke-width="2"
     id="line214" />
</svg>
