<?xml version="1.0" encoding="UTF-8" standalone="no"?>
<svg
   viewBox="0 0 1000 260"
   width="1000"
   height="260"
   version="1.1"
   id="svg160"
   xmlns="http://www.w3.org/2000/svg"
   xmlns:svg="http://www.w3.org/2000/svg">
  <defs
     id="defs164" />
  <g
     transform="matrix(0.36,0,0,0.36,12,22)"
     id="g82">
    <path
       d="M 272,505 C 104,462 68,288 164,118"
       fill="none"
       stroke="#2e3c23"
       stroke-width="6"
       stroke-linecap="round"
       id="path2" />
    <path
       d="m 225.6,488.3 q -13.5,-0.2 -21.5,10.7 13.5,0.2 21.5,-10.7 z"
       fill="none"
       stroke="#2e3c23"
       stroke-width="4.96"
       stroke-linejoin="round"
       id="path4" />
    <path
       d="m 225.6,488.3 q 3.4,-13 -5.2,-23.4 -3.5,13 5.2,23.4 z"
       fill="none"
       stroke="#2e3c23"
       stroke-width="4.96"
       stroke-linejoin="round"
       id="path6" />
    <path
       d="m 176,455.2 q -12.9,-4.1 -23.7,4.1 12.9,4.1 23.7,-4.1 z"
       fill="none"
       stroke="#2e3c23"
       stroke-width="4.96"
       stroke-linejoin="round"
       id="path8" />
    <path
       d="m 176,455.2 q 7,-11.5 1.8,-23.9 -7.1,11.5 -1.8,23.9 z"
       fill="none"
       stroke="#2e3c23"
       stroke-width="4.96"
       stroke-linejoin="round"
       id="path10" />
    <path
       d="m 140.4,411.5 q -11,-7.7 -23.8,-3.1 11.1,7.7 23.8,3.1 z"
       fill="none"
       stroke="#2e3c23"
       stroke-width="4.96"
       stroke-linejoin="round"
       id="path12" />
    <path
       d="m 140.4,411.5 q 10.2,-8.9 8.8,-22.3 -10.1,8.9 -8.8,22.3 z"
       fill="none"
       stroke="#2e3c23"
       stroke-width="4.96"
       stroke-linejoin="round"
       id="path14" />
    <path
       d="m 119,359.1 q -8.5,-10.5 -22,-9.6 8.5,10.5 22,9.6 z"
       fill="none"
       stroke="#2e3c23"
       stroke-width="4.96"
       stroke-linejoin="round"
       id="path16" />
    <path
       d="m 119,359.1 q 12.2,-5.7 14.6,-19 -12.2,5.7 -14.6,19 z"
       fill="none"
       stroke="#2e3c23"
       stroke-width="4.96"
       stroke-linejoin="round"
       id="path18" />
    <path
       d="m 111.6,300 q -5.7,-12.3 -18.9,-14.7 5.7,12.2 18.9,14.7 z"
       fill="none"
       stroke="#2e3c23"
       stroke-width="4.96"
       stroke-linejoin="round"
       id="path20" />
    <path
       d="m 111.6,300 q 13.3,-2.6 18.9,-14.9 -13.3,2.6 -18.9,14.9 z"
       fill="none"
       stroke="#2e3c23"
       stroke-width="4.96"
       stroke-linejoin="round"
       id="path22" />
    <path
       d="m 118.4,235.9 q -3,-13.1 -15.5,-18.3 3,13.2 15.5,18.3 z"
       fill="none"
       stroke="#2e3c23"
       stroke-width="4.96"
       stroke-linejoin="round"
       id="path24" />
    <path
       d="m 118.4,235.9 q 13.5,0.3 21.5,-10.6 -13.5,-0.2 -21.5,10.6 z"
       fill="none"
       stroke="#2e3c23"
       stroke-width="4.96"
       stroke-linejoin="round"
       id="path26" />
    <path
       d="m 139.2,169 q -0.6,-13.5 -11.9,-20.9 0.5,13.5 11.9,20.9 z"
       fill="none"
       stroke="#2e3c23"
       stroke-width="4.96"
       stroke-linejoin="round"
       id="path28" />
    <path
       d="m 139.2,169 q 13.2,2.7 23.1,-6.5 -13.3,-2.7 -23.1,6.5 z"
       fill="none"
       stroke="#2e3c23"
       stroke-width="4.96"
       stroke-linejoin="round"
       id="path30" />
    <path
       d="M 164,118 Q 175.6,110.1 176.4,96.1 164.8,104 164,118 Z"
       fill="none"
       stroke="#2e3c23"
       stroke-width="4.96"
       stroke-linejoin="round"
       id="path32" />
    <path
       d="M 328,505 C 496,462 532,288 436,118"
       fill="none"
       stroke="#2e3c23"
       stroke-width="6"
       stroke-linecap="round"
       id="path34" />
    <path
       d="m 374.4,488.3 q 8.7,-10.4 5.2,-23.4 -8.6,10.4 -5.2,23.4 z"
       fill="none"
       stroke="#2e3c23"
       stroke-width="4.96"
       stroke-linejoin="round"
       id="path36" />
    <path
       d="m 374.4,488.3 q 8,10.9 21.5,10.7 -8,-10.9 -21.5,-10.7 z"
       fill="none"
       stroke="#2e3c23"
       stroke-width="4.96"
       stroke-linejoin="round"
       id="path38" />
    <path
       d="m 424,455.2 q 5.3,-12.4 -1.8,-23.9 -5.2,12.4 1.8,23.9 z"
       fill="none"
       stroke="#2e3c23"
       stroke-width="4.96"
       stroke-linejoin="round"
       id="path40" />
    <path
       d="m 424,455.2 q 10.8,8.2 23.7,4.1 -10.8,-8.2 -23.7,-4.1 z"
       fill="none"
       stroke="#2e3c23"
       stroke-width="4.96"
       stroke-linejoin="round"
       id="path42" />
    <path
       d="m 459.6,411.5 q 1.3,-13.4 -8.8,-22.3 -1.4,13.4 8.8,22.3 z"
       fill="none"
       stroke="#2e3c23"
       stroke-width="4.96"
       stroke-linejoin="round"
       id="path44" />
    <path
       d="m 459.6,411.5 q 12.7,4.6 23.8,-3.1 -12.8,-4.6 -23.8,3.1 z"
       fill="none"
       stroke="#2e3c23"
       stroke-width="4.96"
       stroke-linejoin="round"
       id="path46" />
    <path
       d="m 481,359.1 q -2.4,-13.3 -14.6,-19 2.4,13.3 14.6,19 z"
       fill="none"
       stroke="#2e3c23"
       stroke-width="4.96"
       stroke-linejoin="round"
       id="path48" />
    <path
       d="m 481,359.1 q 13.5,0.9 22,-9.6 -13.5,-0.9 -22,9.6 z"
       fill="none"
       stroke="#2e3c23"
       stroke-width="4.96"
       stroke-linejoin="round"
       id="path50" />
    <path
       d="m 488.4,300 q -5.6,-12.3 -18.9,-14.9 5.6,12.3 18.9,14.9 z"
       fill="none"
       stroke="#2e3c23"
       stroke-width="4.96"
       stroke-linejoin="round"
       id="path52" />
    <path
       d="m 488.4,300 q 13.2,-2.5 18.9,-14.7 -13.2,2.4 -18.9,14.7 z"
       fill="none"
       stroke="#2e3c23"
       stroke-width="4.96"
       stroke-linejoin="round"
       id="path54" />
    <path
       d="m 481.6,235.9 q -8,-10.8 -21.5,-10.6 8,10.9 21.5,10.6 z"
       fill="none"
       stroke="#2e3c23"
       stroke-width="4.96"
       stroke-linejoin="round"
       id="path56" />
    <path
       d="m 481.6,235.9 q 12.5,-5.1 15.5,-18.3 -12.5,5.2 -15.5,18.3 z"
       fill="none"
       stroke="#2e3c23"
       stroke-width="4.96"
       stroke-linejoin="round"
       id="path58" />
    <path
       d="m 460.8,169 q -9.8,-9.2 -23.1,-6.5 9.9,9.2 23.1,6.5 z"
       fill="none"
       stroke="#2e3c23"
       stroke-width="4.96"
       stroke-linejoin="round"
       id="path60" />
    <path
       d="m 460.8,169 q 11.4,-7.4 11.9,-20.9 -11.3,7.4 -11.9,20.9 z"
       fill="none"
       stroke="#2e3c23"
       stroke-width="4.96"
       stroke-linejoin="round"
       id="path62" />
    <path
       d="m 436,118 q -0.8,-14 -12.4,-21.9 0.8,14 12.4,21.9 z"
       fill="none"
       stroke="#2e3c23"
       stroke-width="4.96"
       stroke-linejoin="round"
       id="path64" />
    <path
       id="line66"
       style="stroke:#2e3c23;stroke-width:9;stroke-linecap:round"
       d="M 300,428 V 288.60001" />
    <path
       d="m 300,288.6 c 0,-21.4 -16.1,-26.8 -34.8,-37.5"
       fill="none"
       stroke="#2e3c23"
       stroke-width="9"
       stroke-linecap="round"
       id="path68" />
    <path
       d="m 265.2,251.1 c -49.5,-12.7 -74.6,-56.7 -72.4,-91.1 30.9,8.2 67,43.4 72.4,91.1 z"
       fill="none"
       stroke="#2e3c23"
       stroke-width="9"
       stroke-linejoin="round"
       id="path70" />
    <path
       d="M 265.2,251.1 Q 232.4,214.8 205.8,176.4"
       fill="none"
       stroke="#2e3c23"
       stroke-width="7.65"
       stroke-linecap="round"
       id="path72" />
    <path
       d="m 300,288.6 c 0,-21.4 16.1,-26.8 34.8,-37.5"
       fill="none"
       stroke="#2e3c23"
       stroke-width="9"
       stroke-linecap="round"
       id="path74" />
    <path
       d="m 334.8,251.1 c 49.5,-12.7 74.6,-56.7 72.4,-91.1 -30.9,8.2 -67,43.4 -72.4,91.1 z"
       fill="none"
       stroke="#2e3c23"
       stroke-width="9"
       stroke-linejoin="round"
       id="path76" />
    <path
       d="m 334.8,251.1 q 32.8,-36.3 59.4,-74.7"
       fill="none"
       stroke="#2e3c23"
       stroke-width="7.65"
       stroke-linecap="round"
       id="path78" />
    <path
       id="circle80"
       style="fill:#584025"
       d="m 321,428 a 21,21 0 0 1 -21,21 21,21 0 0 1 -21,-21 21,21 0 0 1 21,-21 21,21 0 0 1 21,21 z" />
  </g>
  <g
     aria-label="S"
     id="text84"
     style="font-size:56px;font-family:'Cormorant Garamond SemiBold';text-anchor:middle;fill:#2e3c23">
    <path
       d="m 271.18801,88.992 q 0,2.184 1.12,3.808 1.12,1.568 2.856,2.856 1.792,1.288 3.752,2.52 2.128,1.288 4.032,2.744 1.96,1.456 3.192,3.36 1.288,1.848 1.288,4.536 0,2.912 -1.512,5.152 -1.512,2.184 -4.2,3.472 -2.632,1.232 -6.216,1.232 -1.512,0 -3.192,-0.28 -1.624,-0.28 -3.08,-0.784 -1.4,-0.504 -2.296,-1.064 -0.224,-0.168 -0.392,-0.392 -0.112,-0.224 -0.168,-0.672 l -0.336,-8.456 q -0.056,-0.28 0.224,-0.28 0.336,-0.056 0.392,0.168 0.672,1.68 1.568,3.584 0.952,1.848 2.184,3.416 1.232,1.568 2.8,2.576 1.624,0.952 3.696,0.952 1.456,0 2.744,-0.504 1.288,-0.504 2.128,-1.736 0.84,-1.288 0.84,-3.472 0,-2.632 -1.232,-4.48 -1.176,-1.904 -3.024,-3.304 -1.848,-1.4 -3.864,-2.632 -1.96,-1.288 -3.752,-2.632 -1.792,-1.344 -2.968,-3.08 -1.12,-1.792 -1.12,-4.312 0,-3.08 1.68,-5.04 1.68,-1.96 4.256,-2.912 2.632,-0.952 5.376,-0.952 1.848,0 3.752,0.336 1.904,0.336 3.248,0.952 0.504,0.168 0.672,0.448 0.168,0.28 0.168,0.616 l 0.112,7.56 q 0,0.224 -0.28,0.28 -0.224,0.056 -0.336,-0.112 -0.28,-0.84 -0.84,-2.296 -0.56,-1.512 -1.568,-3.024 -1.008,-1.512 -2.52,-2.576 -1.512,-1.064 -3.696,-1.064 -1.68,0 -2.912,0.672 -1.232,0.672 -1.904,1.904 -0.672,1.176 -0.672,2.912 z"
       id="path168" />
  </g>
  <g
     aria-label="M"
     id="text86"
     style="font-size:56px;font-family:'Cormorant Garamond SemiBold';text-anchor:middle;fill:#2e3c23">
    <path
       d="m 304.99799,111.224 0.56,-26.936 1.512,0.112 -0.616,26.824 q -0.056,2.968 1.12,4.536 1.232,1.568 3.64,1.568 0.168,0 0.168,0.336 0,0.336 -0.168,0.336 -1.232,0 -2.52,-0.056 -1.288,-0.056 -2.912,-0.056 -1.68,0 -3.08,0.056 -1.344,0.056 -2.576,0.056 -0.168,0 -0.168,-0.336 0,-0.336 0.168,-0.336 2.296,0 3.528,-1.568 1.288,-1.568 1.344,-4.536 z m 39.648,6.104 q 0.112,0 0.112,0.336 0,0.336 -0.112,0.336 -1.456,0 -3.248,-0.056 -1.792,-0.056 -3.752,-0.056 -1.96,0 -3.696,0.056 -1.68,0.056 -3.08,0.056 -0.112,0 -0.112,-0.336 0,-0.336 0.112,-0.336 2.688,0 3.472,-0.728 0.784,-0.728 0.616,-3.136 l -1.176,-25.592 2.464,-3.864 -14.336,33.6 q -0.056,0.224 -0.448,0.224 -0.392,0 -0.504,-0.224 l -15.176,-29.96 q -2.016,-3.976 -5.264,-3.976 -0.168,0 -0.168,-0.336 0,-0.336 0.168,-0.336 1.064,0 2.24,0.056 1.232,0.056 2.072,0.056 1.232,0 2.184,-0.056 1.008,-0.056 1.568,-0.056 0.784,0 1.176,0.56 0.448,0.504 1.4,2.352 l 12.6,24.696 -2.408,4.256 13.272,-30.464 q 0.336,-0.728 0.728,-1.064 0.392,-0.336 0.952,-0.336 0.504,0 1.064,0.056 0.616,0.056 1.456,0.056 1.68,0 2.856,-0.056 1.176,-0.056 2.296,-0.056 0.168,0 0.168,0.336 0,0.336 -0.168,0.336 -2.576,0 -3.808,0.952 -1.232,0.952 -1.12,3.248 l 1.232,25.592 q 0.112,1.624 0.392,2.464 0.336,0.84 1.232,1.12 0.952,0.28 2.744,0.28 z"
       id="path171" />
  </g>
  <g
     aria-label="A"
     id="text88"
     style="font-size:56px;font-family:'Cormorant Garamond SemiBold';text-anchor:middle;fill:#2e3c23">
    <path
       d="m 364.01598,104.28 0.728,-1.4 h 15.68 l 0.392,1.4 z m 29.792,13.048 q 0.224,0 0.224,0.336 0,0.336 -0.224,0.336 -1.68,0 -3.472,-0.112 -1.736,-0.112 -3.36,-0.112 -1.848,0 -3.248,0.112 -1.344,0.112 -3.024,0.112 -0.224,0 -0.224,-0.336 0,-0.336 0.224,-0.336 2.52,0 3.024,-0.896 0.504,-0.896 -0.84,-3.528 l -11.704,-23.8 2.296,-3.752 -11.088,24.976 q -1.456,3.416 -0.112,5.208 1.4,1.792 4.704,1.792 0.28,0 0.28,0.336 0,0.336 -0.28,0.336 -1.68,0 -3.08,-0.112 -1.4,-0.112 -3.528,-0.112 -2.128,0 -3.416,0.112 -1.232,0.112 -3.08,0.112 -0.224,0 -0.224,-0.336 0,-0.336 0.224,-0.336 1.512,0 2.576,-0.616 1.12,-0.616 2.184,-2.24 1.064,-1.68 2.352,-4.648 l 12.04,-27.16 q 0.112,-0.168 0.504,-0.168 0.392,0 0.448,0.168 l 13.72,27.664 q 1.288,2.688 2.296,4.256 1.008,1.512 1.904,2.128 0.896,0.616 1.904,0.616 z"
       id="path174" />
  </g>
  <g
     aria-label="L"
     id="text90"
     style="font-size:56px;font-family:'Cormorant Garamond SemiBold';text-anchor:middle;fill:#2e3c23">
    <path
       d="m 413.17998,87.592 v 25.648 q 0,1.4 0.28,2.128 0.28,0.728 1.064,0.952 0.784,0.224 2.296,0.224 h 3.36 q 3.976,0 6.72,-2.24 2.744,-2.24 3.64,-5.936 0.056,-0.168 0.336,-0.112 0.28,0.056 0.28,0.224 -0.168,1.736 -0.336,4.2 -0.168,2.408 -0.168,4.48 0,0.84 -0.84,0.84 h -26.208 q -0.112,0 -0.112,-0.336 0,-0.336 0.112,-0.336 1.792,0 2.688,-0.28 0.952,-0.28 1.232,-1.12 0.336,-0.84 0.336,-2.464 V 87.536 q 0,-1.624 -0.336,-2.408 -0.28,-0.84 -1.232,-1.12 -0.896,-0.336 -2.688,-0.336 -0.112,0 -0.112,-0.336 0,-0.336 0.112,-0.336 1.344,0 3.136,0.112 1.792,0.056 3.752,0.056 2.072,0 3.808,-0.056 1.792,-0.112 3.136,-0.112 0.168,0 0.168,0.336 0,0.336 -0.168,0.336 -1.792,0 -2.744,0.336 -0.896,0.28 -1.232,1.12 -0.28,0.84 -0.28,2.464 z"
       id="path177" />
  </g>
  <g
     aria-label="L"
     id="text92"
     style="font-size:56px;font-family:'Cormorant Garamond SemiBold';text-anchor:middle;fill:#2e3c23">
    <path
       d="m 451.46999,87.592 v 25.648 q 0,1.4 0.28,2.128 0.28,0.728 1.064,0.952 0.784,0.224 2.296,0.224 h 3.36 q 3.976,0 6.72,-2.24 2.744,-2.24 3.64,-5.936 0.056,-0.168 0.336,-0.112 0.28,0.056 0.28,0.224 -0.168,1.736 -0.336,4.2 -0.168,2.408 -0.168,4.48 0,0.84 -0.84,0.84 h -26.208 q -0.112,0 -0.112,-0.336 0,-0.336 0.112,-0.336 1.792,0 2.688,-0.28 0.952,-0.28 1.232,-1.12 0.336,-0.84 0.336,-2.464 V 87.536 q 0,-1.624 -0.336,-2.408 -0.28,-0.84 -1.232,-1.12 -0.896,-0.336 -2.688,-0.336 -0.112,0 -0.112,-0.336 0,-0.336 0.112,-0.336 1.344,0 3.136,0.112 1.792,0.056 3.752,0.056 2.072,0 3.808,-0.056 1.792,-0.112 3.136,-0.112 0.168,0 0.168,0.336 0,0.336 -0.168,0.336 -1.792,0 -2.744,0.336 -0.896,0.28 -1.232,1.12 -0.28,0.84 -0.28,2.464 z"
       id="path180" />
  </g>
  <g
     aria-label="T"
     id="text94"
     style="font-size:56px;font-family:'Cormorant Garamond SemiBold';text-anchor:middle;fill:#2e3c23">
    <path
       d="m 511.27001,84.176 q -3.416,0 -5.6,2.128 -2.128,2.128 -3.36,6.272 0,0.168 -0.336,0.168 -0.28,-0.056 -0.28,-0.168 0.112,-0.784 0.224,-2.128 0.112,-1.4 0.224,-3.024 0.168,-1.624 0.224,-3.136 0.112,-1.568 0.112,-2.52 0,-0.28 0.28,-0.28 0.336,0 0.336,0.28 0,0.56 0.56,0.84 0.616,0.224 1.344,0.336 0.728,0.056 1.232,0.056 4.816,0.168 11.256,0.168 3.976,0 6.272,-0.056 2.352,-0.112 4.536,-0.112 2.016,0 3.024,-0.224 1.064,-0.28 1.344,-1.176 0.056,-0.224 0.336,-0.224 0.28,0 0.28,0.224 -0.056,0.896 -0.168,2.464 -0.112,1.512 -0.168,3.248 -0.056,1.68 -0.112,3.136 -0.056,1.4 -0.056,2.128 0,0.112 -0.336,0.112 -0.28,0 -0.336,-0.112 -0.616,-4.424 -2.688,-6.384 -2.072,-2.016 -5.544,-2.016 -1.512,0 -2.296,0.28 -0.784,0.28 -1.064,1.064 -0.28,0.728 -0.28,2.128 v 25.816 q 0,1.624 0.336,2.464 0.392,0.84 1.4,1.12 1.064,0.28 3.192,0.28 0.168,0 0.168,0.336 0,0.336 -0.168,0.336 -1.512,0 -3.472,-0.056 -1.904,-0.056 -4.2,-0.056 -2.184,0 -4.088,0.056 -1.904,0.056 -3.528,0.056 -0.112,0 -0.112,-0.336 0,-0.336 0.112,-0.336 2.128,0 3.192,-0.28 1.064,-0.28 1.4,-1.12 0.392,-0.84 0.392,-2.464 V 87.536 q 0,-1.4 -0.28,-2.072 -0.224,-0.728 -1.008,-1.008 -0.784,-0.28 -2.296,-0.28 z"
       id="path183" />
  </g>
  <g
     aria-label="H"
     id="text96"
     style="font-size:56px;font-family:'Cormorant Garamond SemiBold';text-anchor:middle;fill:#2e3c23">
    <path
       d="m 574.31202,87.648 q 0,-1.624 -0.336,-2.464 -0.336,-0.84 -1.344,-1.176 -1.008,-0.336 -3.08,-0.336 -0.168,0 -0.168,-0.336 0,-0.336 0.168,-0.336 1.4,0 3.192,0.112 1.848,0.056 4.256,0.056 1.96,0 3.864,-0.056 1.904,-0.112 3.304,-0.112 0.168,0 0.168,0.336 0,0.336 -0.168,0.336 -1.96,0 -2.968,0.336 -0.952,0.28 -1.288,1.12 -0.336,0.784 -0.336,2.408 v 25.928 q 0,1.624 0.336,2.464 0.336,0.84 1.288,1.12 1.008,0.28 2.968,0.28 0.168,0 0.168,0.336 0,0.336 -0.168,0.336 -1.4,0 -3.304,-0.056 -1.904,-0.056 -3.864,-0.056 -2.408,0 -4.256,0.056 -1.792,0.056 -3.192,0.056 -0.168,0 -0.168,-0.336 0,-0.336 0.168,-0.336 2.072,0 3.08,-0.28 1.008,-0.28 1.344,-1.12 0.336,-0.84 0.336,-2.464 z m -22.12,12.88 v -1.456 h 24.528 v 1.456 z m -2.464,12.936 V 87.536 q 0,-1.624 -0.336,-2.408 -0.336,-0.84 -1.288,-1.12 -0.952,-0.336 -2.912,-0.336 -0.112,0 -0.112,-0.336 0,-0.336 0.112,-0.336 1.456,0 3.248,0.112 1.792,0.056 3.752,0.056 2.408,0 4.256,-0.056 1.848,-0.112 3.304,-0.112 0.112,0 0.112,0.336 0,0.336 -0.112,0.336 -2.016,0 -3.024,0.336 -1.008,0.336 -1.344,1.176 -0.336,0.84 -0.336,2.464 v 25.816 q 0,1.624 0.336,2.464 0.336,0.84 1.344,1.12 1.064,0.28 3.024,0.28 0.112,0 0.112,0.336 0,0.336 -0.112,0.336 -1.512,0 -3.36,-0.056 -1.792,-0.056 -4.2,-0.056 -1.96,0 -3.808,0.056 -1.848,0.056 -3.248,0.056 -0.112,0 -0.112,-0.336 0,-0.336 0.112,-0.336 1.96,0 2.912,-0.28 0.952,-0.28 1.288,-1.12 0.392,-0.84 0.392,-2.464 z"
       id="path186" />
  </g>
  <g
     aria-label="I"
     id="text98"
     style="font-size:56px;font-family:'Cormorant Garamond SemiBold';text-anchor:middle;fill:#2e3c23">
    <path
       d="m 606.16999,113.464 q 0,1.624 0.28,2.464 0.336,0.84 1.232,1.12 0.896,0.28 2.744,0.28 0.168,0 0.168,0.336 0,0.336 -0.168,0.336 -1.4,0 -3.136,-0.056 -1.736,-0.056 -3.864,-0.056 -1.96,0 -3.752,0.056 -1.792,0.056 -3.192,0.056 -0.168,0 -0.168,-0.336 0,-0.336 0.168,-0.336 1.792,0 2.744,-0.28 0.952,-0.28 1.232,-1.12 0.336,-0.84 0.336,-2.464 V 87.536 q 0,-1.624 -0.336,-2.408 -0.28,-0.84 -1.232,-1.12 -0.952,-0.336 -2.744,-0.336 -0.168,0 -0.168,-0.336 0,-0.336 0.168,-0.336 1.4,0 3.192,0.112 1.792,0.056 3.752,0.056 2.128,0 3.864,-0.056 1.792,-0.112 3.136,-0.112 0.168,0 0.168,0.336 0,0.336 -0.168,0.336 -1.792,0 -2.744,0.336 -0.896,0.336 -1.232,1.176 -0.28,0.84 -0.28,2.464 z"
       id="path189" />
  </g>
  <g
     aria-label="N"
     id="text100"
     style="font-size:56px;font-family:'Cormorant Garamond SemiBold';text-anchor:middle;fill:#2e3c23">
    <path
       d="M 628.00399,111.224 V 84.288 l 1.512,0.112 v 26.824 q 0,2.968 1.176,4.536 1.176,1.568 3.36,1.568 0.168,0 0.168,0.336 0,0.336 -0.168,0.336 -1.176,0 -2.464,-0.056 -1.232,-0.056 -2.744,-0.056 -1.624,0 -3.136,0.056 -1.456,0.056 -2.744,0.056 -0.168,0 -0.168,-0.336 0,-0.336 0.168,-0.336 2.464,0 3.752,-1.568 1.288,-1.568 1.288,-4.536 z m 28.448,7.56 q 0,0.168 -0.28,0.168 -0.28,0.056 -0.392,0 l -26.936,-31.36 q -2.016,-2.296 -3.472,-3.08 -1.4,-0.84 -2.744,-0.84 -0.168,0 -0.168,-0.336 0,-0.336 0.168,-0.336 1.064,0 2.184,0.056 1.12,0.056 2.072,0.056 1.68,0 3.024,-0.056 1.4,-0.056 2.128,-0.056 0.728,0 1.064,0.672 0.336,0.616 1.68,2.24 l 21.224,24.976 z m 0,-28.952 v 28.952 l -1.512,-1.68 V 89.832 q 0,-2.968 -1.176,-4.536 -1.12,-1.624 -3.36,-1.624 -0.112,0 -0.112,-0.336 0,-0.336 0.112,-0.336 1.176,0 2.464,0.112 1.288,0.056 2.8,0.056 1.456,0 2.856,-0.056 1.4,-0.112 2.576,-0.112 0.168,0 0.168,0.336 0,0.336 -0.168,0.336 -2.24,0 -3.472,1.624 -1.176,1.568 -1.176,4.536 z"
       id="path192" />
  </g>
  <g
     aria-label="G"
     id="text102"
     style="font-size:56px;font-family:'Cormorant Garamond SemiBold';text-anchor:middle;fill:#2e3c23">
    <path
       d="m 693.35198,118.672 q -4.872,0 -8.736,-1.4 -3.808,-1.456 -6.496,-3.92 -2.632,-2.52 -4.032,-5.768 -1.344,-3.248 -1.344,-7 0,-4.088 1.624,-7.392 1.624,-3.36 4.536,-5.768 2.912,-2.408 6.832,-3.696 3.92,-1.344 8.568,-1.344 2.744,0 5.376,0.448 2.688,0.448 4.368,1.288 0.56,0.224 0.616,0.392 0.112,0.112 0.168,0.896 l 0.728,7.336 q 0,0.168 -0.28,0.224 -0.28,0.056 -0.392,-0.112 -0.448,-1.4 -1.456,-3.024 -0.952,-1.624 -2.464,-3.024 -1.512,-1.456 -3.64,-2.408 -2.072,-0.952 -4.816,-0.952 -3.864,0 -7,1.96 -3.136,1.96 -4.984,5.544 -1.848,3.584 -1.848,8.568 0,3.864 1.12,7.168 1.12,3.248 3.192,5.768 2.128,2.52 5.096,3.92 2.968,1.4 6.664,1.4 2.296,0 3.696,-0.56 1.4,-0.56 2.016,-2.016 0.616,-1.512 0.616,-4.256 0,-2.688 -0.336,-3.92 -0.28,-1.288 -1.512,-1.68 -1.232,-0.392 -3.976,-0.392 -0.336,0 -0.336,-0.448 0,-0.448 0.28,-0.448 3.808,0.224 6.832,0.28 3.08,0 6.44,-0.168 0.224,0 0.224,0.392 0.056,0.392 -0.224,0.392 -1.064,-0.056 -1.568,0.392 -0.504,0.392 -0.672,1.792 -0.112,1.4 -0.112,4.368 0,1.848 0.112,2.744 0.112,0.896 0.168,1.344 0.112,0.392 0.112,0.84 0,0.336 -0.112,0.448 -0.112,0.112 -0.504,0.224 -2.968,0.672 -6.272,1.12 -3.304,0.448 -6.272,0.448 z"
       id="path195" />
  </g>
  <g
     aria-label="S"
     id="text104"
     style="font-size:56px;font-family:'Cormorant Garamond SemiBold';text-anchor:middle;fill:#2e3c23">
    <path
       d="m 727.77798,88.992 q 0,2.184 1.12,3.808 1.12,1.568 2.856,2.856 1.792,1.288 3.752,2.52 2.128,1.288 4.032,2.744 1.96,1.456 3.192,3.36 1.288,1.848 1.288,4.536 0,2.912 -1.512,5.152 -1.512,2.184 -4.2,3.472 -2.632,1.232 -6.216,1.232 -1.512,0 -3.192,-0.28 -1.624,-0.28 -3.08,-0.784 -1.4,-0.504 -2.296,-1.064 -0.224,-0.168 -0.392,-0.392 -0.112,-0.224 -0.168,-0.672 l -0.336,-8.456 q -0.056,-0.28 0.224,-0.28 0.336,-0.056 0.392,0.168 0.672,1.68 1.568,3.584 0.952,1.848 2.184,3.416 1.232,1.568 2.8,2.576 1.624,0.952 3.696,0.952 1.456,0 2.744,-0.504 1.288,-0.504 2.128,-1.736 0.84,-1.288 0.84,-3.472 0,-2.632 -1.232,-4.48 -1.176,-1.904 -3.024,-3.304 -1.848,-1.4 -3.864,-2.632 -1.96,-1.288 -3.752,-2.632 -1.792,-1.344 -2.968,-3.08 -1.12,-1.792 -1.12,-4.312 0,-3.08 1.68,-5.04 1.68,-1.96 4.256,-2.912 2.632,-0.952 5.376,-0.952 1.848,0 3.752,0.336 1.904,0.336 3.248,0.952 0.504,0.168 0.672,0.448 0.168,0.28 0.168,0.616 l 0.112,7.56 q 0,0.224 -0.28,0.28 -0.224,0.056 -0.336,-0.112 -0.28,-0.84 -0.84,-2.296 -0.56,-1.512 -1.568,-3.024 -1.008,-1.512 -2.52,-2.576 -1.512,-1.064 -3.696,-1.064 -1.68,0 -2.912,0.672 -1.232,0.672 -1.904,1.904 -0.672,1.176 -0.672,2.912 z"
       id="path198" />
  </g>
  <g
     aria-label="F"
     id="text106"
     style="font-size:56px;font-family:'Cormorant Garamond SemiBold';text-anchor:middle;fill:#2e3c23">
    <path
       d="m 778.16799,118 q -0.168,0 -0.168,-0.336 0,-0.336 0.168,-0.336 1.96,0 2.912,-0.28 0.952,-0.28 1.288,-1.12 0.336,-0.84 0.336,-2.464 V 87.536 q 0,-1.624 -0.336,-2.408 -0.28,-0.84 -1.176,-1.12 -0.896,-0.336 -2.744,-0.336 -0.168,0 -0.168,-0.336 0,-0.336 0.168,-0.336 h 23.296 q 0.56,0 0.56,0.504 l 0.112,7.28 q 0,0.112 -0.28,0.168 -0.28,0 -0.392,-0.168 -0.616,-3.192 -2.576,-4.76 -1.96,-1.568 -5.152,-1.568 h -2.296 q -2.072,0 -2.912,0.728 -0.784,0.728 -0.784,2.408 v 25.648 q 0,1.68 0.448,2.576 0.448,0.84 1.792,1.176 1.344,0.336 4.032,0.336 0.112,0 0.112,0.336 0,0.336 -0.112,0.336 -1.904,0 -4.088,-0.056 -2.184,-0.056 -4.984,-0.056 -1.96,0 -3.808,0.056 -1.848,0.056 -3.248,0.056 z m 20.776,-12.04 q 0,-2.296 -1.624,-3.528 -1.568,-1.232 -4.816,-1.232 h -7 v -1.456 h 7.112 q 3.192,0 4.704,-1.064 1.568,-1.12 1.568,-3.136 0,-0.112 0.336,-0.112 0.336,0 0.336,0.112 0,1.848 -0.056,2.856 0,1.008 0,2.072 0,1.344 0.056,2.688 0.056,1.288 0.056,2.8 0,0.168 -0.336,0.168 -0.336,0 -0.336,-0.168 z"
       id="path201" />
  </g>
  <g
     aria-label="A"
     id="text108"
     style="font-size:56px;font-family:'Cormorant Garamond SemiBold';text-anchor:middle;fill:#2e3c23">
    <path
       d="m 823.126,104.28 0.728,-1.4 h 15.68 l 0.392,1.4 z m 29.792,13.048 q 0.224,0 0.224,0.336 0,0.336 -0.224,0.336 -1.68,0 -3.472,-0.112 -1.736,-0.112 -3.36,-0.112 -1.848,0 -3.248,0.112 -1.344,0.112 -3.024,0.112 -0.224,0 -0.224,-0.336 0,-0.336 0.224,-0.336 2.52,0 3.024,-0.896 0.504,-0.896 -0.84,-3.528 l -11.704,-23.8 2.296,-3.752 -11.088,24.976 q -1.456,3.416 -0.112,5.208 1.4,1.792 4.704,1.792 0.28,0 0.28,0.336 0,0.336 -0.28,0.336 -1.68,0 -3.08,-0.112 -1.4,-0.112 -3.528,-0.112 -2.128,0 -3.416,0.112 -1.232,0.112 -3.08,0.112 -0.224,0 -0.224,-0.336 0,-0.336 0.224,-0.336 1.512,0 2.576,-0.616 1.12,-0.616 2.184,-2.24 1.064,-1.68 2.352,-4.648 l 12.04,-27.16 q 0.112,-0.168 0.504,-0.168 0.392,0 0.448,0.168 l 13.72,27.664 q 1.288,2.688 2.296,4.256 1.008,1.512 1.904,2.128 0.896,0.616 1.904,0.616 z"
       id="path204" />
  </g>
  <g
     aria-label="R"
     id="text110"
     style="font-size:56px;font-family:'Cormorant Garamond SemiBold';text-anchor:middle;fill:#2e3c23">
    <path
       d="m 891.04605,118 q -0.84,0 -2.8,-2.128 -1.96,-2.128 -4.76,-6.104 -2.744,-4.032 -6.16,-9.576 l 4.48,-1.344 q 4.536,6.776 7.728,10.864 3.248,4.032 5.712,5.824 2.52,1.792 4.816,1.792 0.112,0 0.112,0.336 0,0.336 -0.112,0.336 -3.528,0 -5.768,0 -2.184,0 -3.248,0 z m -12.712,-35.168 q 4.872,0 7.504,1.96 2.688,1.904 2.688,5.264 0,3.192 -1.848,5.712 -1.792,2.52 -4.704,3.92 -2.856,1.4 -6.16,1.4 -0.672,0 -1.456,0 -0.784,-0.056 -1.4,-0.112 v 12.488 q 0,1.624 0.28,2.464 0.28,0.84 1.176,1.12 0.952,0.28 2.744,0.28 0.168,0 0.168,0.336 0,0.336 -0.168,0.336 -1.4,0 -3.136,-0.056 -1.736,-0.056 -3.808,-0.056 -1.96,0 -3.752,0.056 -1.792,0.056 -3.192,0.056 -0.168,0 -0.168,-0.336 0,-0.336 0.168,-0.336 1.848,0 2.744,-0.28 0.896,-0.28 1.232,-1.12 0.336,-0.84 0.336,-2.464 V 87.536 q 0,-1.624 -0.336,-2.408 -0.28,-0.84 -1.176,-1.12 -0.896,-0.336 -2.744,-0.336 -0.112,0 -0.112,-0.336 0,-0.336 0.112,-0.336 1.4,0 3.136,0.112 1.792,0.056 3.752,0.056 1.792,0 4.032,-0.168 2.24,-0.168 4.088,-0.168 z m 4.648,9.184 q 0,-3.248 -0.784,-4.984 -0.728,-1.792 -2.072,-2.464 -1.344,-0.672 -3.136,-0.672 -2.184,0 -3.136,0.84 -0.896,0.784 -0.896,2.912 v 11.816 q 0.784,0.112 1.68,0.168 0.896,0.056 1.568,0.056 3.752,0 5.264,-1.848 1.512,-1.904 1.512,-5.824 z"
       id="path207" />
  </g>
  <g
     aria-label="M"
     id="text112"
     style="font-size:56px;font-family:'Cormorant Garamond SemiBold';text-anchor:middle;fill:#2e3c23">
    <path
       d="m 914.10798,111.224 0.56,-26.936 1.512,0.112 -0.616,26.824 q -0.056,2.968 1.12,4.536 1.232,1.568 3.64,1.568 0.168,0 0.168,0.336 0,0.336 -0.168,0.336 -1.232,0 -2.52,-0.056 -1.288,-0.056 -2.912,-0.056 -1.68,0 -3.08,0.056 -1.344,0.056 -2.576,0.056 -0.168,0 -0.168,-0.336 0,-0.336 0.168,-0.336 2.296,0 3.528,-1.568 1.288,-1.568 1.344,-4.536 z m 39.648,6.104 q 0.112,0 0.112,0.336 0,0.336 -0.112,0.336 -1.456,0 -3.248,-0.056 -1.792,-0.056 -3.752,-0.056 -1.96,0 -3.696,0.056 -1.68,0.056 -3.08,0.056 -0.112,0 -0.112,-0.336 0,-0.336 0.112,-0.336 2.688,0 3.472,-0.728 0.784,-0.728 0.616,-3.136 l -1.176,-25.592 2.464,-3.864 -14.336,33.6 q -0.056,0.224 -0.448,0.224 -0.392,0 -0.504,-0.224 l -15.176,-29.96 q -2.016,-3.976 -5.264,-3.976 -0.168,0 -0.168,-0.336 0,-0.336 0.168,-0.336 1.064,0 2.24,0.056 1.232,0.056 2.072,0.056 1.232,0 2.184,-0.056 1.008,-0.056 1.568,-0.056 0.784,0 1.176,0.56 0.448,0.504 1.4,2.352 l 12.6,24.696 -2.408,4.256 13.272,-30.464 q 0.336,-0.728 0.728,-1.064 0.392,-0.336 0.952,-0.336 0.504,0 1.064,0.056 0.616,0.056 1.456,0.056 1.68,0 2.856,-0.056 1.176,-0.056 2.296,-0.056 0.168,0 0.168,0.336 0,0.336 -0.168,0.336 -2.576,0 -3.808,0.952 -1.232,0.952 -1.12,3.248 l 1.232,25.592 q 0.112,1.624 0.392,2.464 0.336,0.84 1.232,1.12 0.952,0.28 2.744,0.28 z"
       id="path210" />
  </g>
  <g
     aria-label="T"
     id="text114"
     style="font-size:24px;font-family:'Cormorant Garamond Medium';text-anchor:middle;fill:#2e3c23">
    <path
       d="m 390.91201,147.48 q -1.488,0 -2.328,0.84 -0.84,0.816 -1.248,2.64 -0.024,0.048 -0.168,0.048 -0.12,0 -0.12,-0.072 0.048,-0.312 0.096,-0.888 0.072,-0.576 0.12,-1.248 0.048,-0.672 0.072,-1.296 0.048,-0.624 0.048,-1.032 0,-0.12 0.144,-0.12 0.144,0 0.144,0.12 0,0.24 0.24,0.36 0.24,0.096 0.552,0.144 0.312,0.024 0.528,0.024 2.064,0.072 4.824,0.072 1.68,0 2.688,-0.024 1.008,-0.048 1.944,-0.048 0.816,0 1.248,-0.096 0.456,-0.12 0.576,-0.504 0.024,-0.096 0.144,-0.096 0.144,0 0.144,0.096 -0.048,0.36 -0.096,1.008 -0.024,0.648 -0.072,1.344 -0.024,0.696 -0.048,1.296 -0.024,0.6 -0.024,0.888 0,0.072 -0.144,0.072 -0.12,0 -0.12,-0.072 -0.168,-1.872 -0.96,-2.664 -0.792,-0.792 -2.352,-0.792 -0.84,0 -1.272,0.12 -0.408,0.096 -0.552,0.408 -0.12,0.312 -0.12,0.984 v 11.064 q 0,0.696 0.144,1.056 0.168,0.36 0.624,0.48 0.48,0.12 1.464,0.12 0.048,0 0.048,0.144 0,0.144 -0.048,0.144 -0.648,0 -1.464,-0.024 -0.792,-0.024 -1.752,-0.024 -0.912,0 -1.728,0.024 -0.792,0.024 -1.464,0.024 -0.072,0 -0.072,-0.144 0,-0.144 0.072,-0.144 0.936,0 1.416,-0.12 0.504,-0.12 0.672,-0.48 0.168,-0.36 0.168,-1.056 v -11.112 q 0,-0.648 -0.144,-0.96 -0.144,-0.336 -0.576,-0.408 -0.432,-0.096 -1.248,-0.096 z"
       id="path213" />
  </g>
  <g
     aria-label="H"
     id="text116"
     style="font-size:24px;font-family:'Cormorant Garamond Medium';text-anchor:middle;fill:#2e3c23">
    <path
       d="m 419.916,148.992 q 0,-0.696 -0.144,-1.056 -0.12,-0.36 -0.576,-0.504 -0.432,-0.144 -1.344,-0.144 -0.072,0 -0.072,-0.144 0,-0.144 0.072,-0.144 0.576,0 1.32,0.048 0.768,0.024 1.704,0.024 0.816,0 1.584,-0.024 0.792,-0.048 1.368,-0.048 0.072,0 0.072,0.144 0,0.144 -0.072,0.144 -0.84,0 -1.296,0.144 -0.432,0.12 -0.576,0.48 -0.144,0.336 -0.144,1.032 v 11.112 q 0,0.696 0.144,1.056 0.144,0.36 0.576,0.48 0.456,0.12 1.296,0.12 0.072,0 0.072,0.144 0,0.144 -0.072,0.144 -0.576,0 -1.368,-0.024 -0.768,-0.024 -1.584,-0.024 -0.936,0 -1.704,0.024 -0.744,0.024 -1.32,0.024 -0.072,0 -0.072,-0.144 0,-0.144 0.072,-0.144 0.912,0 1.344,-0.12 0.456,-0.12 0.576,-0.48 0.144,-0.36 0.144,-1.056 z m -9.768,5.472 v -0.552 h 10.608 v 0.552 z m -0.888,5.592 v -11.112 q 0,-0.696 -0.144,-1.032 -0.144,-0.36 -0.576,-0.48 -0.432,-0.144 -1.272,-0.144 -0.072,0 -0.072,-0.144 0,-0.144 0.072,-0.144 0.6,0 1.344,0.048 0.744,0.024 1.56,0.024 0.96,0 1.704,-0.024 0.768,-0.048 1.368,-0.048 0.048,0 0.048,0.144 0,0.144 -0.048,0.144 -0.888,0 -1.344,0.144 -0.432,0.144 -0.6,0.504 -0.144,0.36 -0.144,1.056 v 11.064 q 0,0.696 0.144,1.056 0.144,0.36 0.6,0.48 0.456,0.12 1.344,0.12 0.048,0 0.048,0.144 0,0.144 -0.048,0.144 -0.624,0 -1.368,-0.024 -0.744,-0.024 -1.704,-0.024 -0.816,0 -1.584,0.024 -0.768,0.024 -1.368,0.024 -0.048,0 -0.048,-0.144 0,-0.144 0.048,-0.144 0.864,0 1.296,-0.12 0.456,-0.12 0.6,-0.48 0.144,-0.36 0.144,-1.056 z"
       id="path216" />
  </g>
  <g
     aria-label="E"
     id="text118"
     style="font-size:24px;font-family:'Cormorant Garamond Medium';text-anchor:middle;fill:#2e3c23">
    <path
       d="m 440.942,162 h -10.224 q -0.072,0 -0.072,-0.144 0,-0.144 0.072,-0.144 0.816,0 1.224,-0.12 0.432,-0.12 0.576,-0.48 0.144,-0.36 0.144,-1.056 v -11.112 q 0,-0.696 -0.144,-1.032 -0.144,-0.36 -0.576,-0.48 -0.408,-0.144 -1.224,-0.144 -0.072,0 -0.072,-0.144 0,-0.144 0.072,-0.144 h 9.792 q 0.24,0 0.24,0.216 l 0.048,3.024 q 0,0.072 -0.144,0.096 -0.12,0 -0.144,-0.072 -0.168,-1.32 -0.936,-1.992 -0.768,-0.696 -2.016,-0.696 h -1.224 q -0.72,0 -1.104,0.12 -0.384,0.12 -0.528,0.456 -0.144,0.312 -0.144,0.888 v 10.92 q 0,0.576 0.12,0.912 0.144,0.312 0.504,0.456 0.36,0.12 1.008,0.12 h 1.584 q 1.368,0 2.256,-0.792 0.888,-0.816 1.224,-2.304 0,-0.072 0.144,-0.048 0.144,0.024 0.144,0.096 -0.096,0.648 -0.168,1.56 -0.072,0.912 -0.072,1.68 0,0.36 -0.36,0.36 z m -1.344,-5.52 q 0,-1.032 -0.6,-1.512 -0.576,-0.504 -1.872,-0.504 h -3.48 v -0.552 h 3.552 q 1.224,0 1.8,-0.408 0.576,-0.432 0.576,-1.32 0,-0.048 0.12,-0.048 0.144,0 0.144,0.048 0,0.744 -0.024,1.152 0,0.408 0,0.864 0,0.552 0.024,1.104 0.048,0.552 0.048,1.176 0,0.048 -0.144,0.048 -0.144,0 -0.144,-0.048 z"
       id="path219" />
  </g>
  <g
     aria-label="S"
     id="text120"
     style="font-size:24px;font-family:'Cormorant Garamond Medium';text-anchor:middle;fill:#2e3c23">
    <path
       d="m 462.00798,149.688 q 0,0.96 0.48,1.656 0.48,0.696 1.248,1.248 0.768,0.528 1.632,1.056 0.888,0.528 1.704,1.128 0.84,0.6 1.368,1.416 0.552,0.792 0.552,1.944 0,1.176 -0.624,2.112 -0.6,0.936 -1.728,1.488 -1.104,0.552 -2.664,0.552 -0.624,0 -1.272,-0.12 -0.624,-0.096 -1.2,-0.288 -0.576,-0.192 -1.056,-0.48 -0.096,-0.072 -0.168,-0.168 -0.048,-0.096 -0.048,-0.288 l -0.24,-3.432 q -0.024,-0.12 0.096,-0.12 0.144,-0.024 0.168,0.072 0.216,0.744 0.576,1.512 0.36,0.768 0.864,1.416 0.504,0.624 1.2,1.032 0.72,0.408 1.656,0.408 0.648,0 1.248,-0.24 0.624,-0.24 1.008,-0.792 0.384,-0.576 0.384,-1.584 0,-1.152 -0.504,-1.944 -0.504,-0.792 -1.296,-1.368 -0.792,-0.576 -1.68,-1.104 -0.84,-0.528 -1.632,-1.104 -0.768,-0.576 -1.248,-1.32 -0.48,-0.768 -0.48,-1.848 0,-1.296 0.672,-2.136 0.696,-0.84 1.752,-1.248 1.08,-0.408 2.208,-0.408 0.744,0 1.512,0.144 0.768,0.144 1.392,0.408 0.216,0.096 0.288,0.216 0.072,0.096 0.072,0.216 l 0.12,3 q 0,0.072 -0.12,0.096 -0.12,0.024 -0.168,-0.072 -0.072,-0.408 -0.312,-1.008 -0.24,-0.624 -0.648,-1.2 -0.408,-0.6 -1.056,-0.984 -0.624,-0.408 -1.536,-0.408 -0.84,0 -1.392,0.36 -0.552,0.336 -0.84,0.912 -0.288,0.552 -0.288,1.272 z"
       id="path222" />
  </g>
  <g
     aria-label="M"
     id="text122"
     style="font-size:24px;font-family:'Cormorant Garamond Medium';text-anchor:middle;fill:#2e3c23">
    <path
       d="m 478.142,159.264 0.24,-11.712 0.6,0.048 -0.24,11.664 q -0.024,1.248 0.432,1.848 0.48,0.6 1.584,0.6 0.072,0 0.072,0.144 0,0.144 -0.072,0.144 -0.528,0 -1.08,-0.024 -0.552,-0.024 -1.248,-0.024 -0.648,0 -1.224,0.024 -0.576,0.024 -1.08,0.024 -0.048,0 -0.048,-0.144 0,-0.144 0.048,-0.144 1.008,0 1.488,-0.6 0.504,-0.6 0.528,-1.848 z m 16.8,2.448 q 0.048,0 0.048,0.144 0,0.144 -0.048,0.144 -0.6,0 -1.344,-0.024 -0.744,-0.024 -1.584,-0.024 -0.792,0 -1.488,0.024 -0.696,0.024 -1.248,0.024 -0.072,0 -0.072,-0.144 0,-0.144 0.072,-0.144 1.176,0 1.512,-0.312 0.336,-0.312 0.264,-1.344 l -0.48,-11.304 0.936,-1.344 -6.216,14.424 q -0.024,0.096 -0.192,0.096 -0.144,0 -0.192,-0.096 l -6.264,-12.84 q -0.84,-1.704 -2.352,-1.704 -0.048,0 -0.048,-0.144 0,-0.144 0.048,-0.144 0.432,0 0.888,0.024 0.48,0.024 0.816,0.024 0.456,0 0.816,-0.024 0.384,-0.024 0.576,-0.024 0.336,0 0.528,0.24 0.192,0.216 0.576,1.008 l 5.448,11.064 -0.888,1.536 5.784,-13.248 q 0.12,-0.288 0.288,-0.432 0.192,-0.168 0.432,-0.168 0.168,0 0.408,0.024 0.264,0.024 0.6,0.024 0.672,0 1.128,-0.024 0.456,-0.024 0.936,-0.024 0.048,0 0.048,0.144 0,0.144 -0.048,0.144 -1.152,0 -1.68,0.384 -0.528,0.36 -0.504,1.344 l 0.504,11.04 q 0.048,0.696 0.192,1.056 0.144,0.36 0.552,0.48 0.408,0.12 1.248,0.12 z"
       id="path225" />
  </g>
  <g
     aria-label="A"
     id="text124"
     style="font-size:24px;font-family:'Cormorant Garamond Medium';text-anchor:middle;fill:#2e3c23">
    <path
       d="m 504.98601,155.736 0.288,-0.528 h 6.528 l 0.168,0.528 z m 12.408,5.976 q 0.12,0 0.12,0.144 0,0.144 -0.12,0.144 -0.696,0 -1.44,-0.048 -0.72,-0.048 -1.416,-0.048 -0.768,0 -1.344,0.048 -0.552,0.048 -1.248,0.048 -0.096,0 -0.096,-0.144 0,-0.144 0.096,-0.144 1.176,0 1.44,-0.36 0.264,-0.384 -0.264,-1.488 l -5.16,-10.728 0.768,-1.152 -4.68,10.848 q -0.624,1.464 -0.072,2.184 0.552,0.696 2.064,0.696 0.12,0 0.12,0.144 0,0.144 -0.12,0.144 -0.72,0 -1.32,-0.048 -0.6,-0.048 -1.512,-0.048 -0.888,0 -1.44,0.048 -0.528,0.048 -1.296,0.048 -0.096,0 -0.096,-0.144 0,-0.144 0.096,-0.144 0.648,0 1.128,-0.24 0.48,-0.264 0.912,-0.936 0.456,-0.672 0.984,-1.92 l 5.112,-11.784 q 0.024,-0.072 0.168,-0.072 0.144,-0.024 0.168,0.072 l 5.76,11.88 q 0.576,1.176 0.984,1.848 0.432,0.648 0.84,0.912 0.408,0.24 0.864,0.24 z"
       id="path228" />
  </g>
  <g
     aria-label="L"
     id="text126"
     style="font-size:24px;font-family:'Cormorant Garamond Medium';text-anchor:middle;fill:#2e3c23">
    <path
       d="m 527.10201,148.968 v 10.992 q 0,0.624 0.12,0.96 0.144,0.312 0.504,0.432 0.384,0.096 1.128,0.096 h 2.04 q 1.56,0 2.544,-0.912 0.984,-0.912 1.296,-2.424 0,-0.072 0.12,-0.048 0.144,0 0.144,0.072 -0.072,0.696 -0.144,1.68 -0.072,0.984 -0.072,1.824 0,0.36 -0.36,0.36 h -11.184 q -0.048,0 -0.048,-0.144 0,-0.144 0.048,-0.144 0.84,0 1.248,-0.12 0.432,-0.12 0.576,-0.48 0.144,-0.36 0.144,-1.056 v -11.112 q 0,-0.696 -0.144,-1.032 -0.144,-0.36 -0.576,-0.48 -0.408,-0.144 -1.248,-0.144 -0.048,0 -0.048,-0.144 0,-0.144 0.048,-0.144 0.576,0 1.32,0.048 0.768,0.024 1.584,0.024 0.864,0 1.584,-0.024 0.744,-0.048 1.32,-0.048 0.048,0 0.048,0.144 0,0.144 -0.048,0.144 -0.84,0 -1.248,0.144 -0.408,0.12 -0.552,0.48 -0.144,0.36 -0.144,1.056 z"
       id="path231" />
  </g>
  <g
     aria-label="L"
     id="text128"
     style="font-size:24px;font-family:'Cormorant Garamond Medium';text-anchor:middle;fill:#2e3c23">
    <path
       d="m 544.98201,148.968 v 10.992 q 0,0.624 0.12,0.96 0.144,0.312 0.504,0.432 0.384,0.096 1.128,0.096 h 2.04 q 1.56,0 2.544,-0.912 0.984,-0.912 1.296,-2.424 0,-0.072 0.12,-0.048 0.144,0 0.144,0.072 -0.072,0.696 -0.144,1.68 -0.072,0.984 -0.072,1.824 0,0.36 -0.36,0.36 h -11.184 q -0.048,0 -0.048,-0.144 0,-0.144 0.048,-0.144 0.84,0 1.248,-0.12 0.432,-0.12 0.576,-0.48 0.144,-0.36 0.144,-1.056 v -11.112 q 0,-0.696 -0.144,-1.032 -0.144,-0.36 -0.576,-0.48 -0.408,-0.144 -1.248,-0.144 -0.048,0 -0.048,-0.144 0,-0.144 0.048,-0.144 0.576,0 1.32,0.048 0.768,0.024 1.584,0.024 0.864,0 1.584,-0.024 0.744,-0.048 1.32,-0.048 0.048,0 0.048,0.144 0,0.144 -0.048,0.144 -0.84,0 -1.248,0.144 -0.408,0.12 -0.552,0.48 -0.144,0.36 -0.144,1.056 z"
       id="path234" />
  </g>
  <g
     aria-label="T"
     id="text130"
     style="font-size:24px;font-family:'Cormorant Garamond Medium';text-anchor:middle;fill:#2e3c23">
    <path
       d="m 573.61199,147.48 q -1.488,0 -2.328,0.84 -0.84,0.816 -1.248,2.64 -0.024,0.048 -0.168,0.048 -0.12,0 -0.12,-0.072 0.048,-0.312 0.096,-0.888 0.072,-0.576 0.12,-1.248 0.048,-0.672 0.072,-1.296 0.048,-0.624 0.048,-1.032 0,-0.12 0.144,-0.12 0.144,0 0.144,0.12 0,0.24 0.24,0.36 0.24,0.096 0.552,0.144 0.312,0.024 0.528,0.024 2.064,0.072 4.824,0.072 1.68,0 2.688,-0.024 1.008,-0.048 1.944,-0.048 0.816,0 1.248,-0.096 0.456,-0.12 0.576,-0.504 0.024,-0.096 0.144,-0.096 0.144,0 0.144,0.096 -0.048,0.36 -0.096,1.008 -0.024,0.648 -0.072,1.344 -0.024,0.696 -0.048,1.296 -0.024,0.6 -0.024,0.888 0,0.072 -0.144,0.072 -0.12,0 -0.12,-0.072 -0.168,-1.872 -0.96,-2.664 -0.792,-0.792 -2.352,-0.792 -0.84,0 -1.272,0.12 -0.408,0.096 -0.552,0.408 -0.12,0.312 -0.12,0.984 v 11.064 q 0,0.696 0.144,1.056 0.168,0.36 0.624,0.48 0.48,0.12 1.464,0.12 0.048,0 0.048,0.144 0,0.144 -0.048,0.144 -0.648,0 -1.464,-0.024 -0.792,-0.024 -1.752,-0.024 -0.912,0 -1.728,0.024 -0.792,0.024 -1.464,0.024 -0.072,0 -0.072,-0.144 0,-0.144 0.072,-0.144 0.936,0 1.416,-0.12 0.504,-0.12 0.672,-0.48 0.168,-0.36 0.168,-1.056 v -11.112 q 0,-0.648 -0.144,-0.96 -0.144,-0.336 -0.576,-0.408 -0.432,-0.096 -1.248,-0.096 z"
       id="path237" />
  </g>
  <g
     aria-label="H"
     id="text132"
     style="font-size:24px;font-family:'Cormorant Garamond Medium';text-anchor:middle;fill:#2e3c23">
    <path
       d="m 602.61601,148.992 q 0,-0.696 -0.144,-1.056 -0.12,-0.36 -0.576,-0.504 -0.432,-0.144 -1.344,-0.144 -0.072,0 -0.072,-0.144 0,-0.144 0.072,-0.144 0.576,0 1.32,0.048 0.768,0.024 1.704,0.024 0.816,0 1.584,-0.024 0.792,-0.048 1.368,-0.048 0.072,0 0.072,0.144 0,0.144 -0.072,0.144 -0.84,0 -1.296,0.144 -0.432,0.12 -0.576,0.48 -0.144,0.336 -0.144,1.032 v 11.112 q 0,0.696 0.144,1.056 0.144,0.36 0.576,0.48 0.456,0.12 1.296,0.12 0.072,0 0.072,0.144 0,0.144 -0.072,0.144 -0.576,0 -1.368,-0.024 -0.768,-0.024 -1.584,-0.024 -0.936,0 -1.704,0.024 -0.744,0.024 -1.32,0.024 -0.072,0 -0.072,-0.144 0,-0.144 0.072,-0.144 0.912,0 1.344,-0.12 0.456,-0.12 0.576,-0.48 0.144,-0.36 0.144,-1.056 z m -9.768,5.472 v -0.552 h 10.608 v 0.552 z m -0.888,5.592 v -11.112 q 0,-0.696 -0.144,-1.032 -0.144,-0.36 -0.576,-0.48 -0.432,-0.144 -1.272,-0.144 -0.072,0 -0.072,-0.144 0,-0.144 0.072,-0.144 0.6,0 1.344,0.048 0.744,0.024 1.56,0.024 0.96,0 1.704,-0.024 0.768,-0.048 1.368,-0.048 0.048,0 0.048,0.144 0,0.144 -0.048,0.144 -0.888,0 -1.344,0.144 -0.432,0.144 -0.6,0.504 -0.144,0.36 -0.144,1.056 v 11.064 q 0,0.696 0.144,1.056 0.144,0.36 0.6,0.48 0.456,0.12 1.344,0.12 0.048,0 0.048,0.144 0,0.144 -0.048,0.144 -0.624,0 -1.368,-0.024 -0.744,-0.024 -1.704,-0.024 -0.816,0 -1.584,0.024 -0.768,0.024 -1.368,0.024 -0.048,0 -0.048,-0.144 0,-0.144 0.048,-0.144 0.864,0 1.296,-0.12 0.456,-0.12 0.6,-0.48 0.144,-0.36 0.144,-1.056 z"
       id="path240" />
  </g>
  <g
     aria-label="I"
     id="text134"
     style="font-size:24px;font-family:'Cormorant Garamond Medium';text-anchor:middle;fill:#2e3c23">
    <path
       d="m 617.38198,160.056 q 0,0.696 0.12,1.056 0.144,0.36 0.552,0.48 0.432,0.12 1.272,0.12 0.048,0 0.048,0.144 0,0.144 -0.048,0.144 -0.6,0 -1.344,-0.024 -0.72,-0.024 -1.584,-0.024 -0.84,0 -1.584,0.024 -0.744,0.024 -1.344,0.024 -0.048,0 -0.048,-0.144 0,-0.144 0.048,-0.144 0.84,0 1.272,-0.12 0.432,-0.12 0.576,-0.48 0.144,-0.36 0.144,-1.056 v -11.112 q 0,-0.696 -0.144,-1.032 -0.144,-0.36 -0.576,-0.48 -0.432,-0.144 -1.272,-0.144 -0.048,0 -0.048,-0.144 0,-0.144 0.048,-0.144 0.6,0 1.344,0.048 0.744,0.024 1.584,0.024 0.864,0 1.608,-0.024 0.744,-0.048 1.32,-0.048 0.048,0 0.048,0.144 0,0.144 -0.048,0.144 -0.84,0 -1.248,0.144 -0.408,0.144 -0.552,0.504 -0.144,0.36 -0.144,1.056 z"
       id="path243" />
  </g>
  <g
     aria-label="N"
     id="text136"
     style="font-size:24px;font-family:'Cormorant Garamond Medium';text-anchor:middle;fill:#2e3c23">
    <path
       d="m 628.35801,159.264 v -11.712 l 0.624,0.048 v 11.664 q 0,1.248 0.456,1.848 0.456,0.6 1.44,0.6 0.048,0 0.048,0.144 0,0.144 -0.048,0.144 -0.504,0 -1.032,-0.024 -0.504,-0.024 -1.152,-0.024 -0.624,0 -1.224,0.024 -0.6,0.024 -1.128,0.024 -0.048,0 -0.048,-0.144 0,-0.144 0.048,-0.144 1.056,0 1.536,-0.6 0.48,-0.6 0.48,-1.848 z m 12.144,3.048 q 0,0.048 -0.12,0.048 -0.096,0.024 -0.144,0 l -11.304,-13.392 q -0.84,-0.984 -1.464,-1.32 -0.6,-0.36 -1.2,-0.36 -0.048,0 -0.048,-0.144 0,-0.144 0.048,-0.144 0.456,0 0.912,0.024 0.456,0.024 0.84,0.024 0.576,0 1.056,-0.024 0.48,-0.024 0.72,-0.024 0.312,0 0.456,0.288 0.144,0.264 0.696,0.96 l 9.36,11.28 z m 0,-12.552 v 12.552 l -0.6,-0.744 V 149.76 q 0,-1.248 -0.456,-1.848 -0.432,-0.624 -1.416,-0.624 -0.048,0 -0.048,-0.144 0,-0.144 0.048,-0.144 0.504,0 1.032,0.048 0.528,0.024 1.152,0.024 0.6,0 1.176,-0.024 0.576,-0.048 1.08,-0.048 0.048,0 0.048,0.144 0,0.144 -0.048,0.144 -1.008,0 -1.488,0.624 -0.48,0.6 -0.48,1.848 z"
       id="path246" />
  </g>
  <g
     aria-label="G"
     id="text138"
     style="font-size:24px;font-family:'Cormorant Garamond Medium';text-anchor:middle;fill:#2e3c23">
    <path
       d="m 657.84002,162.288 q -2.064,0 -3.696,-0.6 -1.608,-0.624 -2.736,-1.704 -1.104,-1.08 -1.704,-2.496 -0.576,-1.416 -0.576,-3 0,-1.8 0.672,-3.216 0.696,-1.416 1.944,-2.424 1.248,-1.032 2.904,-1.56 1.656,-0.552 3.6,-0.552 1.248,0 2.352,0.216 1.128,0.216 1.872,0.624 0.216,0.096 0.24,0.168 0.024,0.072 0.048,0.384 l 0.312,2.976 q 0,0.072 -0.12,0.096 -0.12,0.024 -0.168,-0.072 -0.24,-0.744 -0.648,-1.44 -0.408,-0.72 -1.032,-1.272 -0.624,-0.576 -1.488,-0.912 -0.84,-0.336 -1.968,-0.336 -1.776,0 -3.216,0.84 -1.44,0.816 -2.28,2.376 -0.84,1.536 -0.84,3.696 0,1.536 0.456,2.952 0.48,1.416 1.392,2.52 0.912,1.104 2.232,1.752 1.344,0.624 3.072,0.624 1.08,0 1.704,-0.264 0.648,-0.288 0.936,-0.912 0.288,-0.648 0.288,-1.752 0,-1.152 -0.144,-1.68 -0.144,-0.552 -0.696,-0.72 -0.552,-0.168 -1.8,-0.168 -0.144,0 -0.144,-0.192 0,-0.192 0.12,-0.192 1.584,0.096 2.856,0.12 1.296,0 2.688,-0.072 0.12,0 0.12,0.168 0,0.168 -0.12,0.168 -0.504,-0.024 -0.744,0.168 -0.24,0.168 -0.312,0.768 -0.048,0.6 -0.048,1.872 0,0.792 0.048,1.176 0.048,0.384 0.072,0.576 0.048,0.168 0.048,0.36 0,0.144 -0.048,0.192 -0.048,0.048 -0.216,0.096 -1.248,0.264 -2.64,0.456 -1.368,0.192 -2.592,0.192 z"
       id="path249" />
  </g>
  <g
     aria-label="S"
     id="text140"
     style="font-size:24px;font-family:'Cormorant Garamond Medium';text-anchor:middle;fill:#2e3c23">
    <path
       d="m 673.898,149.688 q 0,0.96 0.48,1.656 0.48,0.696 1.248,1.248 0.768,0.528 1.632,1.056 0.888,0.528 1.704,1.128 0.84,0.6 1.368,1.416 0.552,0.792 0.552,1.944 0,1.176 -0.624,2.112 -0.6,0.936 -1.728,1.488 -1.104,0.552 -2.664,0.552 -0.624,0 -1.272,-0.12 -0.624,-0.096 -1.2,-0.288 -0.576,-0.192 -1.056,-0.48 -0.096,-0.072 -0.168,-0.168 -0.048,-0.096 -0.048,-0.288 l -0.24,-3.432 q -0.024,-0.12 0.096,-0.12 0.144,-0.024 0.168,0.072 0.216,0.744 0.576,1.512 0.36,0.768 0.864,1.416 0.504,0.624 1.2,1.032 0.72,0.408 1.656,0.408 0.648,0 1.248,-0.24 0.624,-0.24 1.008,-0.792 0.384,-0.576 0.384,-1.584 0,-1.152 -0.504,-1.944 -0.504,-0.792 -1.296,-1.368 -0.792,-0.576 -1.68,-1.104 -0.84,-0.528 -1.632,-1.104 -0.768,-0.576 -1.248,-1.32 -0.48,-0.768 -0.48,-1.848 0,-1.296 0.672,-2.136 0.696,-0.84 1.752,-1.248 1.08,-0.408 2.208,-0.408 0.744,0 1.512,0.144 0.768,0.144 1.392,0.408 0.216,0.096 0.288,0.216 0.072,0.096 0.072,0.216 l 0.12,3 q 0,0.072 -0.12,0.096 -0.12,0.024 -0.168,-0.072 -0.072,-0.408 -0.312,-1.008 -0.24,-0.624 -0.648,-1.2 -0.408,-0.6 -1.056,-0.984 -0.624,-0.408 -1.536,-0.408 -0.84,0 -1.392,0.36 -0.552,0.336 -0.84,0.912 -0.288,0.552 -0.288,1.272 z"
       id="path252" />
  </g>
  <g
     aria-label="M"
     id="text142"
     style="font-size:24px;font-family:'Cormorant Garamond Medium';text-anchor:middle;fill:#2e3c23">
    <path
       d="m 700.65201,159.264 0.24,-11.712 0.6,0.048 -0.24,11.664 q -0.024,1.248 0.432,1.848 0.48,0.6 1.584,0.6 0.072,0 0.072,0.144 0,0.144 -0.072,0.144 -0.528,0 -1.08,-0.024 -0.552,-0.024 -1.248,-0.024 -0.648,0 -1.224,0.024 -0.576,0.024 -1.08,0.024 -0.048,0 -0.048,-0.144 0,-0.144 0.048,-0.144 1.008,0 1.488,-0.6 0.504,-0.6 0.528,-1.848 z m 16.8,2.448 q 0.048,0 0.048,0.144 0,0.144 -0.048,0.144 -0.6,0 -1.344,-0.024 -0.744,-0.024 -1.584,-0.024 -0.792,0 -1.488,0.024 -0.696,0.024 -1.248,0.024 -0.072,0 -0.072,-0.144 0,-0.144 0.072,-0.144 1.176,0 1.512,-0.312 0.336,-0.312 0.264,-1.344 l -0.48,-11.304 0.936,-1.344 -6.216,14.424 q -0.024,0.096 -0.192,0.096 -0.144,0 -0.192,-0.096 l -6.264,-12.84 q -0.84,-1.704 -2.352,-1.704 -0.048,0 -0.048,-0.144 0,-0.144 0.048,-0.144 0.432,0 0.888,0.024 0.48,0.024 0.816,0.024 0.456,0 0.816,-0.024 0.384,-0.024 0.576,-0.024 0.336,0 0.528,0.24 0.192,0.216 0.576,1.008 l 5.448,11.064 -0.888,1.536 5.784,-13.248 q 0.12,-0.288 0.288,-0.432 0.192,-0.168 0.432,-0.168 0.168,0 0.408,0.024 0.264,0.024 0.6,0.024 0.672,0 1.128,-0.024 0.456,-0.024 0.936,-0.024 0.048,0 0.048,0.144 0,0.144 -0.048,0.144 -1.152,0 -1.68,0.384 -0.528,0.36 -0.504,1.344 l 0.504,11.04 q 0.048,0.696 0.192,1.056 0.144,0.36 0.552,0.48 0.408,0.12 1.248,0.12 z"
       id="path255" />
  </g>
  <g
     aria-label="A"
     id="text144"
     style="font-size:24px;font-family:'Cormorant Garamond Medium';text-anchor:middle;fill:#2e3c23">
    <path
       d="m 727.49599,155.736 0.288,-0.528 h 6.528 l 0.168,0.528 z m 12.408,5.976 q 0.12,0 0.12,0.144 0,0.144 -0.12,0.144 -0.696,0 -1.44,-0.048 -0.72,-0.048 -1.416,-0.048 -0.768,0 -1.344,0.048 -0.552,0.048 -1.248,0.048 -0.096,0 -0.096,-0.144 0,-0.144 0.096,-0.144 1.176,0 1.44,-0.36 0.264,-0.384 -0.264,-1.488 l -5.16,-10.728 0.768,-1.152 -4.68,10.848 q -0.624,1.464 -0.072,2.184 0.552,0.696 2.064,0.696 0.12,0 0.12,0.144 0,0.144 -0.12,0.144 -0.72,0 -1.32,-0.048 -0.6,-0.048 -1.512,-0.048 -0.888,0 -1.44,0.048 -0.528,0.048 -1.296,0.048 -0.096,0 -0.096,-0.144 0,-0.144 0.096,-0.144 0.648,0 1.128,-0.24 0.48,-0.264 0.912,-0.936 0.456,-0.672 0.984,-1.92 l 5.112,-11.784 q 0.024,-0.072 0.168,-0.072 0.144,-0.024 0.168,0.072 l 5.76,11.88 q 0.576,1.176 0.984,1.848 0.432,0.648 0.84,0.912 0.408,0.24 0.864,0.24 z"
       id="path258" />
  </g>
  <g
     aria-label="T"
     id="text146"
     style="font-size:24px;font-family:'Cormorant Garamond Medium';text-anchor:middle;fill:#2e3c23">
    <path
       d="m 749.73199,147.48 q -1.488,0 -2.328,0.84 -0.84,0.816 -1.248,2.64 -0.024,0.048 -0.168,0.048 -0.12,0 -0.12,-0.072 0.048,-0.312 0.096,-0.888 0.072,-0.576 0.12,-1.248 0.048,-0.672 0.072,-1.296 0.048,-0.624 0.048,-1.032 0,-0.12 0.144,-0.12 0.144,0 0.144,0.12 0,0.24 0.24,0.36 0.24,0.096 0.552,0.144 0.312,0.024 0.528,0.024 2.064,0.072 4.824,0.072 1.68,0 2.688,-0.024 1.008,-0.048 1.944,-0.048 0.816,0 1.248,-0.096 0.456,-0.12 0.576,-0.504 0.024,-0.096 0.144,-0.096 0.144,0 0.144,0.096 -0.048,0.36 -0.096,1.008 -0.024,0.648 -0.072,1.344 -0.024,0.696 -0.048,1.296 -0.024,0.6 -0.024,0.888 0,0.072 -0.144,0.072 -0.12,0 -0.12,-0.072 -0.168,-1.872 -0.96,-2.664 -0.792,-0.792 -2.352,-0.792 -0.84,0 -1.272,0.12 -0.408,0.096 -0.552,0.408 -0.12,0.312 -0.12,0.984 v 11.064 q 0,0.696 0.144,1.056 0.168,0.36 0.624,0.48 0.48,0.12 1.464,0.12 0.048,0 0.048,0.144 0,0.144 -0.048,0.144 -0.648,0 -1.464,-0.024 -0.792,-0.024 -1.752,-0.024 -0.912,0 -1.728,0.024 -0.792,0.024 -1.464,0.024 -0.072,0 -0.072,-0.144 0,-0.144 0.072,-0.144 0.936,0 1.416,-0.12 0.504,-0.12 0.672,-0.48 0.168,-0.36 0.168,-1.056 v -11.112 q 0,-0.648 -0.144,-0.96 -0.144,-0.336 -0.576,-0.408 -0.432,-0.096 -1.248,-0.096 z"
       id="path261" />
  </g>
  <g
     aria-label="T"
     id="text148"
     style="font-size:24px;font-family:'Cormorant Garamond Medium';text-anchor:middle;fill:#2e3c23">
    <path
       d="m 770.01202,147.48 q -1.488,0 -2.328,0.84 -0.84,0.816 -1.248,2.64 -0.024,0.048 -0.168,0.048 -0.12,0 -0.12,-0.072 0.048,-0.312 0.096,-0.888 0.072,-0.576 0.12,-1.248 0.048,-0.672 0.072,-1.296 0.048,-0.624 0.048,-1.032 0,-0.12 0.144,-0.12 0.144,0 0.144,0.12 0,0.24 0.24,0.36 0.24,0.096 0.552,0.144 0.312,0.024 0.528,0.024 2.064,0.072 4.824,0.072 1.68,0 2.688,-0.024 1.008,-0.048 1.944,-0.048 0.816,0 1.248,-0.096 0.456,-0.12 0.576,-0.504 0.024,-0.096 0.144,-0.096 0.144,0 0.144,0.096 -0.048,0.36 -0.096,1.008 -0.024,0.648 -0.072,1.344 -0.024,0.696 -0.048,1.296 -0.024,0.6 -0.024,0.888 0,0.072 -0.144,0.072 -0.12,0 -0.12,-0.072 -0.168,-1.872 -0.96,-2.664 -0.792,-0.792 -2.352,-0.792 -0.84,0 -1.272,0.12 -0.408,0.096 -0.552,0.408 -0.12,0.312 -0.12,0.984 v 11.064 q 0,0.696 0.144,1.056 0.168,0.36 0.624,0.48 0.48,0.12 1.464,0.12 0.048,0 0.048,0.144 0,0.144 -0.048,0.144 -0.648,0 -1.464,-0.024 -0.792,-0.024 -1.752,-0.024 -0.912,0 -1.728,0.024 -0.792,0.024 -1.464,0.024 -0.072,0 -0.072,-0.144 0,-0.144 0.072,-0.144 0.936,0 1.416,-0.12 0.504,-0.12 0.672,-0.48 0.168,-0.36 0.168,-1.056 v -11.112 q 0,-0.648 -0.144,-0.96 -0.144,-0.336 -0.576,-0.408 -0.432,-0.096 -1.248,-0.096 z"
       id="path264" />
  </g>
  <g
     aria-label="E"
     id="text150"
     style="font-size:24px;font-family:'Cormorant Garamond Medium';text-anchor:middle;fill:#2e3c23">
    <path
       d="m 796.78203,162 h -10.224 q -0.072,0 -0.072,-0.144 0,-0.144 0.072,-0.144 0.816,0 1.224,-0.12 0.432,-0.12 0.576,-0.48 0.144,-0.36 0.144,-1.056 v -11.112 q 0,-0.696 -0.144,-1.032 -0.144,-0.36 -0.576,-0.48 -0.408,-0.144 -1.224,-0.144 -0.072,0 -0.072,-0.144 0,-0.144 0.072,-0.144 h 9.792 q 0.24,0 0.24,0.216 l 0.048,3.024 q 0,0.072 -0.144,0.096 -0.12,0 -0.144,-0.072 -0.168,-1.32 -0.936,-1.992 -0.768,-0.696 -2.016,-0.696 h -1.224 q -0.72,0 -1.104,0.12 -0.384,0.12 -0.528,0.456 -0.144,0.312 -0.144,0.888 v 10.92 q 0,0.576 0.12,0.912 0.144,0.312 0.504,0.456 0.36,0.12 1.008,0.12 h 1.584 q 1.368,0 2.256,-0.792 0.888,-0.816 1.224,-2.304 0,-0.072 0.144,-0.048 0.144,0.024 0.144,0.096 -0.096,0.648 -0.168,1.56 -0.072,0.912 -0.072,1.68 0,0.36 -0.36,0.36 z m -1.344,-5.52 q 0,-1.032 -0.6,-1.512 -0.576,-0.504 -1.872,-0.504 h -3.48 v -0.552 h 3.552 q 1.224,0 1.8,-0.408 0.576,-0.432 0.576,-1.32 0,-0.048 0.12,-0.048 0.144,0 0.144,0.048 0,0.744 -0.024,1.152 0,0.408 0,0.864 0,0.552 0.024,1.104 0.048,0.552 0.048,1.176 0,0.048 -0.144,0.048 -0.144,0 -0.144,-0.048 z"
       id="path267" />
  </g>
  <g
     aria-label="R"
     id="text152"
     style="font-size:24px;font-family:'Cormorant Garamond Medium';text-anchor:middle;fill:#2e3c23">
    <path
       d="m 816.64202,162 q -0.384,0 -1.272,-0.912 -0.864,-0.936 -2.088,-2.64 -1.224,-1.728 -2.76,-4.104 l 1.608,-0.504 q 2.016,2.904 3.408,4.632 1.416,1.728 2.496,2.496 1.08,0.744 2.064,0.744 0.072,0 0.072,0.144 0,0.144 -0.072,0.144 -1.344,0 -2.208,0 -0.84,0 -1.248,0 z m -5.76,-15.072 q 2.016,0 3.072,0.864 1.08,0.84 1.08,2.256 0,1.344 -0.768,2.4 -0.768,1.056 -2.016,1.656 -1.224,0.6 -2.64,0.6 -0.288,0 -0.6,0 -0.312,-0.024 -0.576,-0.048 v 5.4 q 0,0.696 0.12,1.056 0.144,0.36 0.552,0.48 0.432,0.12 1.272,0.12 0.072,0 0.072,0.144 0,0.144 -0.072,0.144 -0.6,0 -1.32,-0.024 -0.72,-0.024 -1.584,-0.024 -0.816,0 -1.56,0.024 -0.744,0.024 -1.344,0.024 -0.072,0 -0.072,-0.144 0,-0.144 0.072,-0.144 0.816,0 1.224,-0.12 0.432,-0.12 0.576,-0.48 0.168,-0.36 0.168,-1.056 v -11.112 q 0,-0.696 -0.144,-1.032 -0.144,-0.36 -0.552,-0.48 -0.408,-0.144 -1.248,-0.144 -0.048,0 -0.048,-0.144 0,-0.144 0.048,-0.144 0.6,0 1.32,0.048 0.744,0.024 1.56,0.024 0.768,0 1.728,-0.072 0.96,-0.072 1.68,-0.072 z m 2.184,3.888 q 0,-1.344 -0.36,-2.088 -0.36,-0.768 -1.032,-1.08 -0.648,-0.312 -1.536,-0.312 -0.912,0 -1.32,0.336 -0.384,0.312 -0.384,1.32 v 5.064 q 0.336,0.024 0.72,0.048 0.408,0.024 0.696,0.024 1.776,0 2.496,-0.816 0.72,-0.816 0.72,-2.496 z"
       id="path270" />
  </g>
  <g
     aria-label="."
     id="text154"
     style="font-size:24px;font-family:'Cormorant Garamond Medium';text-anchor:middle;fill:#2e3c23">
    <path
       d="m 827.30402,162.264 q -0.528,0 -0.864,-0.312 -0.312,-0.312 -0.312,-0.864 0,-0.504 0.312,-0.792 0.336,-0.312 0.864,-0.312 0.576,0 0.864,0.312 0.288,0.288 0.288,0.792 0,0.552 -0.288,0.864 -0.288,0.312 -0.864,0.312 z"
       id="path273" />
  </g>
  <line
     x1="370.4"
     y1="154"
     x2="296.4"
     y2="154"
     stroke="#9B6223"
     stroke-width="2"
     id="line156" />
  <line
     x1="845.4"
     y1="154"
     x2="919.4"
     y2="154"
     stroke="#9B6223"
     stroke-width="2"
     id="line158" />
</svg>
