<?xml version="1.0" encoding="UTF-8" standalone="no"?>
<svg
   viewBox="0 0 600 640"
   width="600"
   height="640"
   version="1.1"
   id="svg160"
   xmlns="http://www.w3.org/2000/svg"
   xmlns:svg="http://www.w3.org/2000/svg">
  <defs
     id="defs164" />
  <g
     transform="matrix(0.56,0,0,0.56,132,16.4)"
     id="g82">
    <path
       d="M 272,505 C 104,462 68,288 164,118"
       fill="none"
       stroke="#2e3c23"
       stroke-width="6"
       stroke-linecap="round"
       id="path2" />
    <path
       d="m 225.6,488.3 q -13.5,-0.2 -21.5,10.7 13.5,0.2 21.5,-10.7 z"
       fill="none"
       stroke="#2e3c23"
       stroke-width="4.96"
       stroke-linejoin="round"
       id="path4" />
    <path
       d="m 225.6,488.3 q 3.4,-13 -5.2,-23.4 -3.5,13 5.2,23.4 z"
       fill="none"
       stroke="#2e3c23"
       stroke-width="4.96"
       stroke-linejoin="round"
       id="path6" />
    <path
       d="m 176,455.2 q -12.9,-4.1 -23.7,4.1 12.9,4.1 23.7,-4.1 z"
       fill="none"
       stroke="#2e3c23"
       stroke-width="4.96"
       stroke-linejoin="round"
       id="path8" />
    <path
       d="m 176,455.2 q 7,-11.5 1.8,-23.9 -7.1,11.5 -1.8,23.9 z"
       fill="none"
       stroke="#2e3c23"
       stroke-width="4.96"
       stroke-linejoin="round"
       id="path10" />
    <path
       d="m 140.4,411.5 q -11,-7.7 -23.8,-3.1 11.1,7.7 23.8,3.1 z"
       fill="none"
       stroke="#2e3c23"
       stroke-width="4.96"
       stroke-linejoin="round"
       id="path12" />
    <path
       d="m 140.4,411.5 q 10.2,-8.9 8.8,-22.3 -10.1,8.9 -8.8,22.3 z"
       fill="none"
       stroke="#2e3c23"
       stroke-width="4.96"
       stroke-linejoin="round"
       id="path14" />
    <path
       d="m 119,359.1 q -8.5,-10.5 -22,-9.6 8.5,10.5 22,9.6 z"
       fill="none"
       stroke="#2e3c23"
       stroke-width="4.96"
       stroke-linejoin="round"
       id="path16" />
    <path
       d="m 119,359.1 q 12.2,-5.7 14.6,-19 -12.2,5.7 -14.6,19 z"
       fill="none"
       stroke="#2e3c23"
       stroke-width="4.96"
       stroke-linejoin="round"
       id="path18" />
    <path
       d="m 111.6,300 q -5.7,-12.3 -18.9,-14.7 5.7,12.2 18.9,14.7 z"
       fill="none"
       stroke="#2e3c23"
       stroke-width="4.96"
       stroke-linejoin="round"
       id="path20" />
    <path
       d="m 111.6,300 q 13.3,-2.6 18.9,-14.9 -13.3,2.6 -18.9,14.9 z"
       fill="none"
       stroke="#2e3c23"
       stroke-width="4.96"
       stroke-linejoin="round"
       id="path22" />
    <path
       d="m 118.4,235.9 q -3,-13.1 -15.5,-18.3 3,13.2 15.5,18.3 z"
       fill="none"
       stroke="#2e3c23"
       stroke-width="4.96"
       stroke-linejoin="round"
       id="path24" />
    <path
       d="m 118.4,235.9 q 13.5,0.3 21.5,-10.6 -13.5,-0.2 -21.5,10.6 z"
       fill="none"
       stroke="#2e3c23"
       stroke-width="4.96"
       stroke-linejoin="round"
       id="path26" />
    <path
       d="m 139.2,169 q -0.6,-13.5 -11.9,-20.9 0.5,13.5 11.9,20.9 z"
       fill="none"
       stroke="#2e3c23"
       stroke-width="4.96"
       stroke-linejoin="round"
       id="path28" />
    <path
       d="m 139.2,169 q 13.2,2.7 23.1,-6.5 -13.3,-2.7 -23.1,6.5 z"
       fill="none"
       stroke="#2e3c23"
       stroke-width="4.96"
       stroke-linejoin="round"
       id="path30" />
    <path
       d="M 164,118 Q 175.6,110.1 176.4,96.1 164.8,104 164,118 Z"
       fill="none"
       stroke="#2e3c23"
       stroke-width="4.96"
       stroke-linejoin="round"
       id="path32" />
    <path
       d="M 328,505 C 496,462 532,288 436,118"
       fill="none"
       stroke="#2e3c23"
       stroke-width="6"
       stroke-linecap="round"
       id="path34" />
    <path
       d="m 374.4,488.3 q 8.7,-10.4 5.2,-23.4 -8.6,10.4 -5.2,23.4 z"
       fill="none"
       stroke="#2e3c23"
       stroke-width="4.96"
       stroke-linejoin="round"
       id="path36" />
    <path
       d="m 374.4,488.3 q 8,10.9 21.5,10.7 -8,-10.9 -21.5,-10.7 z"
       fill="none"
       stroke="#2e3c23"
       stroke-width="4.96"
       stroke-linejoin="round"
       id="path38" />
    <path
       d="m 424,455.2 q 5.3,-12.4 -1.8,-23.9 -5.2,12.4 1.8,23.9 z"
       fill="none"
       stroke="#2e3c23"
       stroke-width="4.96"
       stroke-linejoin="round"
       id="path40" />
    <path
       d="m 424,455.2 q 10.8,8.2 23.7,4.1 -10.8,-8.2 -23.7,-4.1 z"
       fill="none"
       stroke="#2e3c23"
       stroke-width="4.96"
       stroke-linejoin="round"
       id="path42" />
    <path
       d="m 459.6,411.5 q 1.3,-13.4 -8.8,-22.3 -1.4,13.4 8.8,22.3 z"
       fill="none"
       stroke="#2e3c23"
       stroke-width="4.96"
       stroke-linejoin="round"
       id="path44" />
    <path
       d="m 459.6,411.5 q 12.7,4.6 23.8,-3.1 -12.8,-4.6 -23.8,3.1 z"
       fill="none"
       stroke="#2e3c23"
       stroke-width="4.96"
       stroke-linejoin="round"
       id="path46" />
    <path
       d="m 481,359.1 q -2.4,-13.3 -14.6,-19 2.4,13.3 14.6,19 z"
       fill="none"
       stroke="#2e3c23"
       stroke-width="4.96"
       stroke-linejoin="round"
       id="path48" />
    <path
       d="m 481,359.1 q 13.5,0.9 22,-9.6 -13.5,-0.9 -22,9.6 z"
       fill="none"
       stroke="#2e3c23"
       stroke-width="4.96"
       stroke-linejoin="round"
       id="path50" />
    <path
       d="m 488.4,300 q -5.6,-12.3 -18.9,-14.9 5.6,12.3 18.9,14.9 z"
       fill="none"
       stroke="#2e3c23"
       stroke-width="4.96"
       stroke-linejoin="round"
       id="path52" />
    <path
       d="m 488.4,300 q 13.2,-2.5 18.9,-14.7 -13.2,2.4 -18.9,14.7 z"
       fill="none"
       stroke="#2e3c23"
       stroke-width="4.96"
       stroke-linejoin="round"
       id="path54" />
    <path
       d="m 481.6,235.9 q -8,-10.8 -21.5,-10.6 8,10.9 21.5,10.6 z"
       fill="none"
       stroke="#2e3c23"
       stroke-width="4.96"
       stroke-linejoin="round"
       id="path56" />
    <path
       d="m 481.6,235.9 q 12.5,-5.1 15.5,-18.3 -12.5,5.2 -15.5,18.3 z"
       fill="none"
       stroke="#2e3c23"
       stroke-width="4.96"
       stroke-linejoin="round"
       id="path58" />
    <path
       d="m 460.8,169 q -9.8,-9.2 -23.1,-6.5 9.9,9.2 23.1,6.5 z"
       fill="none"
       stroke="#2e3c23"
       stroke-width="4.96"
       stroke-linejoin="round"
       id="path60" />
    <path
       d="m 460.8,169 q 11.4,-7.4 11.9,-20.9 -11.3,7.4 -11.9,20.9 z"
       fill="none"
       stroke="#2e3c23"
       stroke-width="4.96"
       stroke-linejoin="round"
       id="path62" />
    <path
       d="m 436,118 q -0.8,-14 -12.4,-21.9 0.8,14 12.4,21.9 z"
       fill="none"
       stroke="#2e3c23"
       stroke-width="4.96"
       stroke-linejoin="round"
       id="path64" />
    <path
       id="line66"
       style="stroke:#2e3c23;stroke-width:8.5;stroke-linecap:round"
       d="M 300,428 V 288.60001" />
    <path
       d="m 300,288.6 c 0,-21.4 -16.1,-26.8 -34.8,-37.5"
       fill="none"
       stroke="#2e3c23"
       stroke-width="8.5"
       stroke-linecap="round"
       id="path68" />
    <path
       d="m 265.2,251.1 c -49.5,-12.7 -74.6,-56.7 -72.4,-91.1 30.9,8.2 67,43.4 72.4,91.1 z"
       fill="none"
       stroke="#2e3c23"
       stroke-width="8.5"
       stroke-linejoin="round"
       id="path70" />
    <path
       d="M 265.2,251.1 Q 232.4,214.8 205.8,176.4"
       fill="none"
       stroke="#2e3c23"
       stroke-width="7.22"
       stroke-linecap="round"
       id="path72" />
    <path
       d="m 300,288.6 c 0,-21.4 16.1,-26.8 34.8,-37.5"
       fill="none"
       stroke="#2e3c23"
       stroke-width="8.5"
       stroke-linecap="round"
       id="path74" />
    <path
       d="m 334.8,251.1 c 49.5,-12.7 74.6,-56.7 72.4,-91.1 -30.9,8.2 -67,43.4 -72.4,91.1 z"
       fill="none"
       stroke="#2e3c23"
       stroke-width="8.5"
       stroke-linejoin="round"
       id="path76" />
    <path
       d="m 334.8,251.1 q 32.8,-36.3 59.4,-74.7"
       fill="none"
       stroke="#2e3c23"
       stroke-width="7.22"
       stroke-linecap="round"
       id="path78" />
    <path
       id="circle80"
       style="fill:#584025"
       d="m 321,428 a 21,21 0 0 1 -21,21 21,21 0 0 1 -21,-21 21,21 0 0 1 21,-21 21,21 0 0 1 21,21 z" />
  </g>
  <g
     aria-label="S"
     id="text84"
     style="font-size:58px;font-family:'Cormorant Garamond SemiBold';text-anchor:middle;fill:#2e3c23">
    <path
       d="m 200.15901,397.956 q 0,2.262 1.16,3.944 1.16,1.624 2.958,2.958 1.856,1.334 3.886,2.61 2.204,1.334 4.176,2.842 2.03,1.508 3.306,3.48 1.334,1.914 1.334,4.698 0,3.016 -1.566,5.336 -1.566,2.262 -4.35,3.596 -2.726,1.276 -6.438,1.276 -1.566,0 -3.306,-0.29 -1.682,-0.29 -3.19,-0.812 -1.45,-0.522 -2.378,-1.102 -0.232,-0.174 -0.406,-0.406 -0.116,-0.232 -0.174,-0.696 l -0.348,-8.758 q -0.058,-0.29 0.232,-0.29 0.348,-0.058 0.406,0.174 0.696,1.74 1.624,3.712 0.986,1.914 2.262,3.538 1.276,1.624 2.9,2.668 1.682,0.986 3.828,0.986 1.508,0 2.842,-0.522 1.334,-0.522 2.204,-1.798 0.87,-1.334 0.87,-3.596 0,-2.726 -1.276,-4.64 -1.218,-1.972 -3.132,-3.422 -1.914,-1.45 -4.002,-2.726 -2.03,-1.334 -3.886,-2.726 -1.856,-1.392 -3.074,-3.19 -1.16,-1.856 -1.16,-4.466 0,-3.19 1.74,-5.22 1.74,-2.03 4.408,-3.016 2.726,-0.986 5.568,-0.986 1.914,0 3.886,0.348 1.972,0.348 3.364,0.986 0.522,0.174 0.696,0.464 0.174,0.29 0.174,0.638 l 0.116,7.83 q 0,0.232 -0.29,0.29 -0.232,0.058 -0.348,-0.116 -0.29,-0.87 -0.87,-2.378 -0.58,-1.566 -1.624,-3.132 -1.044,-1.566 -2.61,-2.668 -1.566,-1.102 -3.828,-1.102 -1.74,0 -3.016,0.696 -1.276,0.696 -1.972,1.972 -0.696,1.218 -0.696,3.016 z"
       id="path168" />
  </g>
  <g
     aria-label="M"
     id="text86"
     style="font-size:58px;font-family:'Cormorant Garamond SemiBold';text-anchor:middle;fill:#2e3c23">
    <path
       d="m 235.904,420.982 0.58,-27.898 1.566,0.116 -0.638,27.782 q -0.058,3.074 1.16,4.698 1.276,1.624 3.77,1.624 0.174,0 0.174,0.348 0,0.348 -0.174,0.348 -1.276,0 -2.61,-0.058 -1.334,-0.058 -3.016,-0.058 -1.74,0 -3.19,0.058 -1.392,0.058 -2.668,0.058 -0.174,0 -0.174,-0.348 0,-0.348 0.174,-0.348 2.378,0 3.654,-1.624 1.334,-1.624 1.392,-4.698 z m 41.064,6.322 q 0.116,0 0.116,0.348 0,0.348 -0.116,0.348 -1.508,0 -3.364,-0.058 -1.856,-0.058 -3.886,-0.058 -2.03,0 -3.828,0.058 -1.74,0.058 -3.19,0.058 -0.116,0 -0.116,-0.348 0,-0.348 0.116,-0.348 2.784,0 3.596,-0.754 0.812,-0.754 0.638,-3.248 l -1.218,-26.506 2.552,-4.002 -14.848,34.8 q -0.058,0.232 -0.464,0.232 -0.406,0 -0.522,-0.232 l -15.718,-31.03 q -2.088,-4.118 -5.452,-4.118 -0.174,0 -0.174,-0.348 0,-0.348 0.174,-0.348 1.102,0 2.32,0.058 1.276,0.058 2.146,0.058 1.276,0 2.262,-0.058 1.044,-0.058 1.624,-0.058 0.812,0 1.218,0.58 0.464,0.522 1.45,2.436 l 13.05,25.578 -2.494,4.408 13.746,-31.552 q 0.348,-0.754 0.754,-1.102 0.406,-0.348 0.986,-0.348 0.522,0 1.102,0.058 0.638,0.058 1.508,0.058 1.74,0 2.958,-0.058 1.218,-0.058 2.378,-0.058 0.174,0 0.174,0.348 0,0.348 -0.174,0.348 -2.668,0 -3.944,0.986 -1.276,0.986 -1.16,3.364 l 1.276,26.506 q 0.116,1.682 0.406,2.552 0.348,0.87 1.276,1.16 0.986,0.29 2.842,0.29 z"
       id="path171" />
  </g>
  <g
     aria-label="A"
     id="text88"
     style="font-size:58px;font-family:'Cormorant Garamond SemiBold';text-anchor:middle;fill:#2e3c23">
    <path
       d="m 297.73299,413.79 0.754,-1.45 h 16.24 l 0.406,1.45 z m 30.856,13.514 q 0.232,0 0.232,0.348 0,0.348 -0.232,0.348 -1.74,0 -3.596,-0.116 -1.798,-0.116 -3.48,-0.116 -1.914,0 -3.364,0.116 -1.392,0.116 -3.132,0.116 -0.232,0 -0.232,-0.348 0,-0.348 0.232,-0.348 2.61,0 3.132,-0.928 0.522,-0.928 -0.87,-3.654 l -12.122,-24.65 2.378,-3.886 -11.484,25.868 q -1.508,3.538 -0.116,5.394 1.45,1.856 4.872,1.856 0.29,0 0.29,0.348 0,0.348 -0.29,0.348 -1.74,0 -3.19,-0.116 -1.45,-0.116 -3.654,-0.116 -2.204,0 -3.538,0.116 -1.276,0.116 -3.19,0.116 -0.232,0 -0.232,-0.348 0,-0.348 0.232,-0.348 1.566,0 2.668,-0.638 1.16,-0.638 2.262,-2.32 1.102,-1.74 2.436,-4.814 l 12.47,-28.13 q 0.116,-0.174 0.522,-0.174 0.406,0 0.464,0.174 l 14.21,28.652 q 1.334,2.784 2.378,4.408 1.044,1.566 1.972,2.204 0.928,0.638 1.972,0.638 z"
       id="path174" />
  </g>
  <g
     aria-label="L"
     id="text90"
     style="font-size:58px;font-family:'Cormorant Garamond SemiBold';text-anchor:middle;fill:#2e3c23">
    <path
       d="m 349.36499,396.506 v 26.564 q 0,1.45 0.29,2.204 0.29,0.754 1.102,0.986 0.812,0.232 2.378,0.232 h 3.48 q 4.118,0 6.96,-2.32 2.842,-2.32 3.77,-6.148 0.058,-0.174 0.348,-0.116 0.29,0.058 0.29,0.232 -0.174,1.798 -0.348,4.35 -0.174,2.494 -0.174,4.64 0,0.87 -0.87,0.87 h -27.144 q -0.116,0 -0.116,-0.348 0,-0.348 0.116,-0.348 1.856,0 2.784,-0.29 0.986,-0.29 1.276,-1.16 0.348,-0.87 0.348,-2.552 v -26.854 q 0,-1.682 -0.348,-2.494 -0.29,-0.87 -1.276,-1.16 -0.928,-0.348 -2.784,-0.348 -0.116,0 -0.116,-0.348 0,-0.348 0.116,-0.348 1.392,0 3.248,0.116 1.856,0.058 3.886,0.058 2.146,0 3.944,-0.058 1.856,-0.116 3.248,-0.116 0.174,0 0.174,0.348 0,0.348 -0.174,0.348 -1.856,0 -2.842,0.348 -0.928,0.29 -1.276,1.16 -0.29,0.87 -0.29,2.552 z"
       id="path177" />
  </g>
  <g
     aria-label="L"
     id="text92"
     style="font-size:58px;font-family:'Cormorant Garamond SemiBold';text-anchor:middle;fill:#2e3c23">
    <path
       d="m 389.74499,396.506 v 26.564 q 0,1.45 0.29,2.204 0.29,0.754 1.102,0.986 0.812,0.232 2.378,0.232 h 3.48 q 4.118,0 6.96,-2.32 2.842,-2.32 3.77,-6.148 0.058,-0.174 0.348,-0.116 0.29,0.058 0.29,0.232 -0.174,1.798 -0.348,4.35 -0.174,2.494 -0.174,4.64 0,0.87 -0.87,0.87 h -27.144 q -0.116,0 -0.116,-0.348 0,-0.348 0.116,-0.348 1.856,0 2.784,-0.29 0.986,-0.29 1.276,-1.16 0.348,-0.87 0.348,-2.552 v -26.854 q 0,-1.682 -0.348,-2.494 -0.29,-0.87 -1.276,-1.16 -0.928,-0.348 -2.784,-0.348 -0.116,0 -0.116,-0.348 0,-0.348 0.116,-0.348 1.392,0 3.248,0.116 1.856,0.058 3.886,0.058 2.146,0 3.944,-0.058 1.856,-0.116 3.248,-0.116 0.174,0 0.174,0.348 0,0.348 -0.174,0.348 -1.856,0 -2.842,0.348 -0.928,0.29 -1.276,1.16 -0.29,0.87 -0.29,2.552 z"
       id="path180" />
  </g>
  <g
     aria-label="T"
     id="text94"
     style="font-size:58px;font-family:'Cormorant Garamond SemiBold';text-anchor:middle;fill:#2e3c23">
    <path
       d="m 182.24001,452.968 q -3.538,0 -5.8,2.204 -2.204,2.204 -3.48,6.496 0,0.174 -0.348,0.174 -0.29,-0.058 -0.29,-0.174 0.116,-0.812 0.232,-2.204 0.116,-1.45 0.232,-3.132 0.174,-1.682 0.232,-3.248 0.116,-1.624 0.116,-2.61 0,-0.29 0.29,-0.29 0.348,0 0.348,0.29 0,0.58 0.58,0.87 0.638,0.232 1.392,0.348 0.754,0.058 1.276,0.058 4.988,0.174 11.658,0.174 4.118,0 6.496,-0.058 2.436,-0.116 4.698,-0.116 2.088,0 3.132,-0.232 1.102,-0.29 1.392,-1.218 0.058,-0.232 0.348,-0.232 0.29,0 0.29,0.232 -0.058,0.928 -0.174,2.552 -0.116,1.566 -0.174,3.364 -0.058,1.74 -0.116,3.248 -0.058,1.45 -0.058,2.204 0,0.116 -0.348,0.116 -0.29,0 -0.348,-0.116 -0.638,-4.582 -2.784,-6.612 -2.146,-2.088 -5.742,-2.088 -1.566,0 -2.378,0.29 -0.812,0.29 -1.102,1.102 -0.29,0.754 -0.29,2.204 v 26.738 q 0,1.682 0.348,2.552 0.406,0.87 1.45,1.16 1.102,0.29 3.306,0.29 0.174,0 0.174,0.348 0,0.348 -0.174,0.348 -1.566,0 -3.596,-0.058 -1.972,-0.058 -4.35,-0.058 -2.262,0 -4.234,0.058 -1.972,0.058 -3.654,0.058 -0.116,0 -0.116,-0.348 0,-0.348 0.116,-0.348 2.204,0 3.306,-0.29 1.102,-0.29 1.45,-1.16 0.406,-0.87 0.406,-2.552 v -26.854 q 0,-1.45 -0.29,-2.146 -0.232,-0.754 -1.044,-1.044 -0.812,-0.29 -2.378,-0.29 z"
       id="path183" />
  </g>
  <g
     aria-label="H"
     id="text96"
     style="font-size:58px;font-family:'Cormorant Garamond SemiBold';text-anchor:middle;fill:#2e3c23">
    <path
       d="m 248.24603,456.564 q 0,-1.682 -0.348,-2.552 -0.348,-0.87 -1.392,-1.218 -1.044,-0.348 -3.19,-0.348 -0.174,0 -0.174,-0.348 0,-0.348 0.174,-0.348 1.45,0 3.306,0.116 1.914,0.058 4.408,0.058 2.03,0 4.002,-0.058 1.972,-0.116 3.422,-0.116 0.174,0 0.174,0.348 0,0.348 -0.174,0.348 -2.03,0 -3.074,0.348 -0.986,0.29 -1.334,1.16 -0.348,0.812 -0.348,2.494 v 26.854 q 0,1.682 0.348,2.552 0.348,0.87 1.334,1.16 1.044,0.29 3.074,0.29 0.174,0 0.174,0.348 0,0.348 -0.174,0.348 -1.45,0 -3.422,-0.058 -1.972,-0.058 -4.002,-0.058 -2.494,0 -4.408,0.058 -1.856,0.058 -3.306,0.058 -0.174,0 -0.174,-0.348 0,-0.348 0.174,-0.348 2.146,0 3.19,-0.29 1.044,-0.29 1.392,-1.16 0.348,-0.87 0.348,-2.552 z m -22.91,13.34 v -1.508 h 25.404 v 1.508 z m -2.552,13.398 v -26.854 q 0,-1.682 -0.348,-2.494 -0.348,-0.87 -1.334,-1.16 -0.986,-0.348 -3.016,-0.348 -0.116,0 -0.116,-0.348 0,-0.348 0.116,-0.348 1.508,0 3.364,0.116 1.856,0.058 3.886,0.058 2.494,0 4.408,-0.058 1.914,-0.116 3.422,-0.116 0.116,0 0.116,0.348 0,0.348 -0.116,0.348 -2.088,0 -3.132,0.348 -1.044,0.348 -1.392,1.218 -0.348,0.87 -0.348,2.552 v 26.738 q 0,1.682 0.348,2.552 0.348,0.87 1.392,1.16 1.102,0.29 3.132,0.29 0.116,0 0.116,0.348 0,0.348 -0.116,0.348 -1.566,0 -3.48,-0.058 -1.856,-0.058 -4.35,-0.058 -2.03,0 -3.944,0.058 -1.914,0.058 -3.364,0.058 -0.116,0 -0.116,-0.348 0,-0.348 0.116,-0.348 2.03,0 3.016,-0.29 0.986,-0.29 1.334,-1.16 0.406,-0.87 0.406,-2.552 z"
       id="path186" />
  </g>
  <g
     aria-label="I"
     id="text98"
     style="font-size:58px;font-family:'Cormorant Garamond SemiBold';text-anchor:middle;fill:#2e3c23">
    <path
       d="m 281.95499,483.302 q 0,1.682 0.29,2.552 0.348,0.87 1.276,1.16 0.928,0.29 2.842,0.29 0.174,0 0.174,0.348 0,0.348 -0.174,0.348 -1.45,0 -3.248,-0.058 -1.798,-0.058 -4.002,-0.058 -2.03,0 -3.886,0.058 -1.856,0.058 -3.306,0.058 -0.174,0 -0.174,-0.348 0,-0.348 0.174,-0.348 1.856,0 2.842,-0.29 0.986,-0.29 1.276,-1.16 0.348,-0.87 0.348,-2.552 v -26.854 q 0,-1.682 -0.348,-2.494 -0.29,-0.87 -1.276,-1.16 -0.986,-0.348 -2.842,-0.348 -0.174,0 -0.174,-0.348 0,-0.348 0.174,-0.348 1.45,0 3.306,0.116 1.856,0.058 3.886,0.058 2.204,0 4.002,-0.058 1.856,-0.116 3.248,-0.116 0.174,0 0.174,0.348 0,0.348 -0.174,0.348 -1.856,0 -2.842,0.348 -0.928,0.348 -1.276,1.218 -0.29,0.87 -0.29,2.552 z"
       id="path189" />
  </g>
  <g
     aria-label="N"
     id="text100"
     style="font-size:58px;font-family:'Cormorant Garamond SemiBold';text-anchor:middle;fill:#2e3c23">
    <path
       d="m 305.282,480.982 v -27.898 l 1.566,0.116 v 27.782 q 0,3.074 1.218,4.698 1.218,1.624 3.48,1.624 0.174,0 0.174,0.348 0,0.348 -0.174,0.348 -1.218,0 -2.552,-0.058 -1.276,-0.058 -2.842,-0.058 -1.682,0 -3.248,0.058 -1.508,0.058 -2.842,0.058 -0.174,0 -0.174,-0.348 0,-0.348 0.174,-0.348 2.552,0 3.886,-1.624 1.334,-1.624 1.334,-4.698 z m 29.464,7.83 q 0,0.174 -0.29,0.174 -0.29,0.058 -0.406,0 l -27.898,-32.48 q -2.088,-2.378 -3.596,-3.19 -1.45,-0.87 -2.842,-0.87 -0.174,0 -0.174,-0.348 0,-0.348 0.174,-0.348 1.102,0 2.262,0.058 1.16,0.058 2.146,0.058 1.74,0 3.132,-0.058 1.45,-0.058 2.204,-0.058 0.754,0 1.102,0.696 0.348,0.638 1.74,2.32 l 21.982,25.868 z m 0,-29.986 v 29.986 l -1.566,-1.74 v -28.246 q 0,-3.074 -1.218,-4.698 -1.16,-1.682 -3.48,-1.682 -0.116,0 -0.116,-0.348 0,-0.348 0.116,-0.348 1.218,0 2.552,0.116 1.334,0.058 2.9,0.058 1.508,0 2.958,-0.058 1.45,-0.116 2.668,-0.116 0.174,0 0.174,0.348 0,0.348 -0.174,0.348 -2.32,0 -3.596,1.682 -1.218,1.624 -1.218,4.698 z"
       id="path192" />
  </g>
  <g
     aria-label="G"
     id="text102"
     style="font-size:58px;font-family:'Cormorant Garamond SemiBold';text-anchor:middle;fill:#2e3c23">
    <path
       d="m 373.671,488.696 q -5.046,0 -9.048,-1.45 -3.944,-1.508 -6.728,-4.06 -2.726,-2.61 -4.176,-5.974 -1.392,-3.364 -1.392,-7.25 0,-4.234 1.682,-7.656 1.682,-3.48 4.698,-5.974 3.016,-2.494 7.076,-3.828 4.06,-1.392 8.874,-1.392 2.842,0 5.568,0.464 2.784,0.464 4.524,1.334 0.58,0.232 0.638,0.406 0.116,0.116 0.174,0.928 l 0.754,7.598 q 0,0.174 -0.29,0.232 -0.29,0.058 -0.406,-0.116 -0.464,-1.45 -1.508,-3.132 -0.986,-1.682 -2.552,-3.132 -1.566,-1.508 -3.77,-2.494 -2.146,-0.986 -4.988,-0.986 -4.002,0 -7.25,2.03 -3.248,2.03 -5.162,5.742 -1.914,3.712 -1.914,8.874 0,4.002 1.16,7.424 1.16,3.364 3.306,5.974 2.204,2.61 5.278,4.06 3.074,1.45 6.902,1.45 2.378,0 3.828,-0.58 1.45,-0.58 2.088,-2.088 0.638,-1.566 0.638,-4.408 0,-2.784 -0.348,-4.06 -0.29,-1.334 -1.566,-1.74 -1.276,-0.406 -4.118,-0.406 -0.348,0 -0.348,-0.464 0,-0.464 0.29,-0.464 3.944,0.232 7.076,0.29 3.19,0 6.67,-0.174 0.232,0 0.232,0.406 0.058,0.406 -0.232,0.406 -1.102,-0.058 -1.624,0.406 -0.522,0.406 -0.696,1.856 -0.116,1.45 -0.116,4.524 0,1.914 0.116,2.842 0.116,0.928 0.174,1.392 0.116,0.406 0.116,0.87 0,0.348 -0.116,0.464 -0.116,0.116 -0.522,0.232 -3.074,0.696 -6.496,1.16 -3.422,0.464 -6.496,0.464 z"
       id="path195" />
  </g>
  <g
     aria-label="S"
     id="text104"
     style="font-size:58px;font-family:'Cormorant Garamond SemiBold';text-anchor:middle;fill:#2e3c23">
    <path
       d="m 410.04899,457.956 q 0,2.262 1.16,3.944 1.16,1.624 2.958,2.958 1.856,1.334 3.886,2.61 2.204,1.334 4.176,2.842 2.03,1.508 3.306,3.48 1.334,1.914 1.334,4.698 0,3.016 -1.566,5.336 -1.566,2.262 -4.35,3.596 -2.726,1.276 -6.438,1.276 -1.566,0 -3.306,-0.29 -1.682,-0.29 -3.19,-0.812 -1.45,-0.522 -2.378,-1.102 -0.232,-0.174 -0.406,-0.406 -0.116,-0.232 -0.174,-0.696 l -0.348,-8.758 q -0.058,-0.29 0.232,-0.29 0.348,-0.058 0.406,0.174 0.696,1.74 1.624,3.712 0.986,1.914 2.262,3.538 1.276,1.624 2.9,2.668 1.682,0.986 3.828,0.986 1.508,0 2.842,-0.522 1.334,-0.522 2.204,-1.798 0.87,-1.334 0.87,-3.596 0,-2.726 -1.276,-4.64 -1.218,-1.972 -3.132,-3.422 -1.914,-1.45 -4.002,-2.726 -2.03,-1.334 -3.886,-2.726 -1.856,-1.392 -3.074,-3.19 -1.16,-1.856 -1.16,-4.466 0,-3.19 1.74,-5.22 1.74,-2.03 4.408,-3.016 2.726,-0.986 5.568,-0.986 1.914,0 3.886,0.348 1.972,0.348 3.364,0.986 0.522,0.174 0.696,0.464 0.174,0.29 0.174,0.638 l 0.116,7.83 q 0,0.232 -0.29,0.29 -0.232,0.058 -0.348,-0.116 -0.29,-0.87 -0.87,-2.378 -0.58,-1.566 -1.624,-3.132 -1.044,-1.566 -2.61,-2.668 -1.566,-1.102 -3.828,-1.102 -1.74,0 -3.016,0.696 -1.276,0.696 -1.972,1.972 -0.696,1.218 -0.696,3.016 z"
       id="path198" />
  </g>
  <g
     aria-label="F"
     id="text106"
     style="font-size:42px;font-family:'Cormorant Garamond SemiBold';text-anchor:middle;fill:#2e3c23">
    <path
       d="m 225.42601,544 q -0.126,0 -0.126,-0.252 0,-0.252 0.126,-0.252 1.47,0 2.184,-0.21 0.714,-0.21 0.966,-0.84 0.252,-0.63 0.252,-1.848 v -19.446 q 0,-1.218 -0.252,-1.806 -0.21,-0.63 -0.882,-0.84 -0.672,-0.252 -2.058,-0.252 -0.126,0 -0.126,-0.252 0,-0.252 0.126,-0.252 h 17.472 q 0.42,0 0.42,0.378 l 0.084,5.46 q 0,0.084 -0.21,0.126 -0.21,0 -0.294,-0.126 -0.462,-2.394 -1.932,-3.57 -1.47,-1.176 -3.864,-1.176 h -1.722 q -1.554,0 -2.184,0.546 -0.588,0.546 -0.588,1.806 v 19.236 q 0,1.26 0.336,1.932 0.336,0.63 1.344,0.882 1.008,0.252 3.024,0.252 0.084,0 0.084,0.252 0,0.252 -0.084,0.252 -1.428,0 -3.066,-0.042 -1.638,-0.042 -3.738,-0.042 -1.47,0 -2.856,0.042 -1.386,0.042 -2.436,0.042 z m 15.582,-9.03 q 0,-1.722 -1.218,-2.646 -1.176,-0.924 -3.612,-0.924 h -5.25 v -1.092 h 5.334 q 2.394,0 3.528,-0.798 1.176,-0.84 1.176,-2.352 0,-0.084 0.252,-0.084 0.252,0 0.252,0.084 0,1.386 -0.042,2.142 0,0.756 0,1.554 0,1.008 0.042,2.016 0.042,0.966 0.042,2.1 0,0.126 -0.252,0.126 -0.252,0 -0.252,-0.126 z"
       id="path201" />
  </g>
  <g
     aria-label="A"
     id="text108"
     style="font-size:42px;font-family:'Cormorant Garamond SemiBold';text-anchor:middle;fill:#2e3c23">
    <path
       d="m 265.14699,533.71 0.546,-1.05 h 11.76 l 0.294,1.05 z m 22.344,9.786 q 0.168,0 0.168,0.252 0,0.252 -0.168,0.252 -1.26,0 -2.604,-0.084 -1.302,-0.084 -2.52,-0.084 -1.386,0 -2.436,0.084 -1.008,0.084 -2.268,0.084 -0.168,0 -0.168,-0.252 0,-0.252 0.168,-0.252 1.89,0 2.268,-0.672 0.378,-0.672 -0.63,-2.646 l -8.778,-17.85 1.722,-2.814 -8.316,18.732 q -1.092,2.562 -0.084,3.906 1.05,1.344 3.528,1.344 0.21,0 0.21,0.252 0,0.252 -0.21,0.252 -1.26,0 -2.31,-0.084 -1.05,-0.084 -2.646,-0.084 -1.596,0 -2.562,0.084 -0.924,0.084 -2.31,0.084 -0.168,0 -0.168,-0.252 0,-0.252 0.168,-0.252 1.134,0 1.932,-0.462 0.84,-0.462 1.638,-1.68 0.798,-1.26 1.764,-3.486 l 9.03,-20.37 q 0.084,-0.126 0.378,-0.126 0.294,0 0.336,0.126 l 10.29,20.748 q 0.966,2.016 1.722,3.192 0.756,1.134 1.428,1.596 0.672,0.462 1.428,0.462 z"
       id="path204" />
  </g>
  <g
     aria-label="R"
     id="text110"
     style="font-size:42px;font-family:'Cormorant Garamond SemiBold';text-anchor:middle;fill:#2e3c23">
    <path
       d="m 322.08701,544 q -0.63,0 -2.1,-1.596 -1.47,-1.596 -3.57,-4.578 -2.058,-3.024 -4.62,-7.182 l 3.36,-1.008 q 3.402,5.082 5.796,8.148 2.436,3.024 4.284,4.368 1.89,1.344 3.612,1.344 0.084,0 0.084,0.252 0,0.252 -0.084,0.252 -2.646,0 -4.326,0 -1.638,0 -2.436,0 z m -9.534,-26.376 q 3.654,0 5.628,1.47 2.016,1.428 2.016,3.948 0,2.394 -1.386,4.284 -1.344,1.89 -3.528,2.94 -2.142,1.05 -4.62,1.05 -0.504,0 -1.092,0 -0.588,-0.042 -1.05,-0.084 v 9.366 q 0,1.218 0.21,1.848 0.21,0.63 0.882,0.84 0.714,0.21 2.058,0.21 0.126,0 0.126,0.252 0,0.252 -0.126,0.252 -1.05,0 -2.352,-0.042 -1.302,-0.042 -2.856,-0.042 -1.47,0 -2.814,0.042 -1.344,0.042 -2.394,0.042 -0.126,0 -0.126,-0.252 0,-0.252 0.126,-0.252 1.386,0 2.058,-0.21 0.672,-0.21 0.924,-0.84 0.252,-0.63 0.252,-1.848 v -19.446 q 0,-1.218 -0.252,-1.806 -0.21,-0.63 -0.882,-0.84 -0.672,-0.252 -2.058,-0.252 -0.084,0 -0.084,-0.252 0,-0.252 0.084,-0.252 1.05,0 2.352,0.084 1.344,0.042 2.814,0.042 1.344,0 3.024,-0.126 1.68,-0.126 3.066,-0.126 z m 3.486,6.888 q 0,-2.436 -0.588,-3.738 -0.546,-1.344 -1.554,-1.848 -1.008,-0.504 -2.352,-0.504 -1.638,0 -2.352,0.63 -0.672,0.588 -0.672,2.184 v 8.862 q 0.588,0.084 1.26,0.126 0.672,0.042 1.176,0.042 2.814,0 3.948,-1.386 1.134,-1.428 1.134,-4.368 z"
       id="path207" />
  </g>
  <g
     aria-label="M"
     id="text112"
     style="font-size:42px;font-family:'Cormorant Garamond SemiBold';text-anchor:middle;fill:#2e3c23">
    <path
       d="m 345.38599,538.918 0.42,-20.202 1.134,0.084 -0.462,20.118 q -0.042,2.226 0.84,3.402 0.924,1.176 2.73,1.176 0.126,0 0.126,0.252 0,0.252 -0.126,0.252 -0.924,0 -1.89,-0.042 -0.966,-0.042 -2.184,-0.042 -1.26,0 -2.31,0.042 -1.008,0.042 -1.932,0.042 -0.126,0 -0.126,-0.252 0,-0.252 0.126,-0.252 1.722,0 2.646,-1.176 0.966,-1.176 1.008,-3.402 z m 29.736,4.578 q 0.084,0 0.084,0.252 0,0.252 -0.084,0.252 -1.092,0 -2.436,-0.042 -1.344,-0.042 -2.814,-0.042 -1.47,0 -2.772,0.042 -1.26,0.042 -2.31,0.042 -0.084,0 -0.084,-0.252 0,-0.252 0.084,-0.252 2.016,0 2.604,-0.546 0.588,-0.546 0.462,-2.352 l -0.882,-19.194 1.848,-2.898 -10.752,25.2 q -0.042,0.168 -0.336,0.168 -0.294,0 -0.378,-0.168 l -11.382,-22.47 q -1.512,-2.982 -3.948,-2.982 -0.126,0 -0.126,-0.252 0,-0.252 0.126,-0.252 0.798,0 1.68,0.042 0.924,0.042 1.554,0.042 0.924,0 1.638,-0.042 0.756,-0.042 1.176,-0.042 0.588,0 0.882,0.42 0.336,0.378 1.05,1.764 l 9.45,18.522 -1.806,3.192 9.954,-22.848 q 0.252,-0.546 0.546,-0.798 0.294,-0.252 0.714,-0.252 0.378,0 0.798,0.042 0.462,0.042 1.092,0.042 1.26,0 2.142,-0.042 0.882,-0.042 1.722,-0.042 0.126,0 0.126,0.252 0,0.252 -0.126,0.252 -1.932,0 -2.856,0.714 -0.924,0.714 -0.84,2.436 l 0.924,19.194 q 0.084,1.218 0.294,1.848 0.252,0.63 0.924,0.84 0.714,0.21 2.058,0.21 z"
       id="path210" />
  </g>
  <circle
     cx="205.4"
     cy="530"
     r="4.2"
     fill="#9B6223"
     id="circle114" />
  <circle
     cx="394.6"
     cy="530"
     r="4.2"
     fill="#9B6223"
     id="circle116" />
  <g
     aria-label="T"
     id="text118"
     style="font-size:21px;font-family:'Cormorant Garamond Medium';text-anchor:middle;fill:#2e3c23">
    <path
       d="m 108.69051,575.295 q -1.302,0 -2.037,0.735 -0.735,0.714 -1.092,2.31 -0.021,0.042 -0.147,0.042 -0.105,0 -0.105,-0.063 0.042,-0.273 0.084,-0.777 0.063,-0.504 0.105,-1.092 0.042,-0.588 0.063,-1.134 0.042,-0.546 0.042,-0.903 0,-0.105 0.126,-0.105 0.126,0 0.126,0.105 0,0.21 0.21,0.315 0.21,0.084 0.483,0.126 0.273,0.021 0.462,0.021 1.806,0.063 4.221,0.063 1.47,0 2.352,-0.021 0.882,-0.042 1.701,-0.042 0.714,0 1.092,-0.084 0.399,-0.105 0.504,-0.441 0.021,-0.084 0.126,-0.084 0.126,0 0.126,0.084 -0.042,0.315 -0.084,0.882 -0.021,0.567 -0.063,1.176 -0.021,0.609 -0.042,1.134 -0.021,0.525 -0.021,0.777 0,0.063 -0.126,0.063 -0.105,0 -0.105,-0.063 -0.147,-1.638 -0.84,-2.331 -0.693,-0.693 -2.058,-0.693 -0.735,0 -1.113,0.105 -0.357,0.084 -0.483,0.357 -0.105,0.273 -0.105,0.861 v 9.681 q 0,0.609 0.126,0.924 0.147,0.315 0.546,0.42 0.42,0.105 1.281,0.105 0.042,0 0.042,0.126 0,0.126 -0.042,0.126 -0.567,0 -1.281,-0.021 -0.693,-0.021 -1.533,-0.021 -0.798,0 -1.512,0.021 -0.693,0.021 -1.281,0.021 -0.063,0 -0.063,-0.126 0,-0.126 0.063,-0.126 0.819,0 1.239,-0.105 0.441,-0.105 0.588,-0.42 0.147,-0.315 0.147,-0.924 v -9.723 q 0,-0.567 -0.126,-0.84 -0.126,-0.294 -0.504,-0.357 -0.378,-0.084 -1.092,-0.084 z"
       id="path213" />
  </g>
  <g
     aria-label="H"
     id="text120"
     style="font-size:21px;font-family:'Cormorant Garamond Medium';text-anchor:middle;fill:#2e3c23">
    <path
       d="m 134.19151,576.618 q 0,-0.609 -0.126,-0.924 -0.105,-0.315 -0.504,-0.441 -0.378,-0.126 -1.176,-0.126 -0.063,0 -0.063,-0.126 0,-0.126 0.063,-0.126 0.504,0 1.155,0.042 0.672,0.021 1.491,0.021 0.714,0 1.386,-0.021 0.693,-0.042 1.197,-0.042 0.063,0 0.063,0.126 0,0.126 -0.063,0.126 -0.735,0 -1.134,0.126 -0.378,0.105 -0.504,0.42 -0.126,0.294 -0.126,0.903 v 9.723 q 0,0.609 0.126,0.924 0.126,0.315 0.504,0.42 0.399,0.105 1.134,0.105 0.063,0 0.063,0.126 0,0.126 -0.063,0.126 -0.504,0 -1.197,-0.021 -0.672,-0.021 -1.386,-0.021 -0.819,0 -1.491,0.021 -0.651,0.021 -1.155,0.021 -0.063,0 -0.063,-0.126 0,-0.126 0.063,-0.126 0.798,0 1.176,-0.105 0.399,-0.105 0.504,-0.42 0.126,-0.315 0.126,-0.924 z m -8.547,4.788 v -0.483 h 9.282 v 0.483 z m -0.777,4.893 v -9.723 q 0,-0.609 -0.126,-0.903 -0.126,-0.315 -0.504,-0.42 -0.378,-0.126 -1.113,-0.126 -0.063,0 -0.063,-0.126 0,-0.126 0.063,-0.126 0.525,0 1.176,0.042 0.651,0.021 1.365,0.021 0.84,0 1.491,-0.021 0.672,-0.042 1.197,-0.042 0.042,0 0.042,0.126 0,0.126 -0.042,0.126 -0.777,0 -1.176,0.126 -0.378,0.126 -0.525,0.441 -0.126,0.315 -0.126,0.924 v 9.681 q 0,0.609 0.126,0.924 0.126,0.315 0.525,0.42 0.399,0.105 1.176,0.105 0.042,0 0.042,0.126 0,0.126 -0.042,0.126 -0.546,0 -1.197,-0.021 -0.651,-0.021 -1.491,-0.021 -0.714,0 -1.386,0.021 -0.672,0.021 -1.197,0.021 -0.042,0 -0.042,-0.126 0,-0.126 0.042,-0.126 0.756,0 1.134,-0.105 0.399,-0.105 0.525,-0.42 0.126,-0.315 0.126,-0.924 z"
       id="path216" />
  </g>
  <g
     aria-label="E"
     id="text122"
     style="font-size:21px;font-family:'Cormorant Garamond Medium';text-anchor:middle;fill:#2e3c23">
    <path
       d="m 152.718,588 h -8.946 q -0.063,0 -0.063,-0.126 0,-0.126 0.063,-0.126 0.714,0 1.071,-0.105 0.378,-0.105 0.504,-0.42 0.126,-0.315 0.126,-0.924 v -9.723 q 0,-0.609 -0.126,-0.903 -0.126,-0.315 -0.504,-0.42 -0.357,-0.126 -1.071,-0.126 -0.063,0 -0.063,-0.126 0,-0.126 0.063,-0.126 h 8.568 q 0.21,0 0.21,0.189 l 0.042,2.646 q 0,0.063 -0.126,0.084 -0.105,0 -0.126,-0.063 -0.147,-1.155 -0.819,-1.743 -0.672,-0.609 -1.764,-0.609 h -1.071 q -0.63,0 -0.966,0.105 -0.336,0.105 -0.462,0.399 -0.126,0.273 -0.126,0.777 v 9.555 q 0,0.504 0.105,0.798 0.126,0.273 0.441,0.399 0.315,0.105 0.882,0.105 h 1.386 q 1.197,0 1.974,-0.693 0.777,-0.714 1.071,-2.016 0,-0.063 0.126,-0.042 0.126,0.021 0.126,0.084 -0.084,0.567 -0.147,1.365 -0.063,0.798 -0.063,1.47 0,0.315 -0.315,0.315 z m -1.176,-4.83 q 0,-0.903 -0.525,-1.323 -0.504,-0.441 -1.638,-0.441 h -3.045 v -0.483 h 3.108 q 1.071,0 1.575,-0.357 0.504,-0.378 0.504,-1.155 0,-0.042 0.105,-0.042 0.126,0 0.126,0.042 0,0.651 -0.021,1.008 0,0.357 0,0.756 0,0.483 0.021,0.966 0.042,0.483 0.042,1.029 0,0.042 -0.126,0.042 -0.126,0 -0.126,-0.042 z"
       id="path219" />
  </g>
  <g
     aria-label="S"
     id="text124"
     style="font-size:21px;font-family:'Cormorant Garamond Medium';text-anchor:middle;fill:#2e3c23">
    <path
       d="m 171.4045,577.227 q 0,0.84 0.42,1.449 0.42,0.609 1.092,1.092 0.672,0.462 1.428,0.924 0.777,0.462 1.491,0.987 0.735,0.525 1.197,1.239 0.483,0.693 0.483,1.701 0,1.029 -0.546,1.848 -0.525,0.819 -1.512,1.302 -0.966,0.483 -2.331,0.483 -0.546,0 -1.113,-0.105 -0.546,-0.084 -1.05,-0.252 -0.504,-0.168 -0.924,-0.42 -0.084,-0.063 -0.147,-0.147 -0.042,-0.084 -0.042,-0.252 l -0.21,-3.003 q -0.021,-0.105 0.084,-0.105 0.126,-0.021 0.147,0.063 0.189,0.651 0.504,1.323 0.315,0.672 0.756,1.239 0.441,0.546 1.05,0.903 0.63,0.357 1.449,0.357 0.567,0 1.092,-0.21 0.546,-0.21 0.882,-0.693 0.336,-0.504 0.336,-1.386 0,-1.008 -0.441,-1.701 -0.441,-0.693 -1.134,-1.197 -0.693,-0.504 -1.47,-0.966 -0.735,-0.462 -1.428,-0.966 -0.672,-0.504 -1.092,-1.155 -0.42,-0.672 -0.42,-1.617 0,-1.134 0.588,-1.869 0.609,-0.735 1.533,-1.092 0.945,-0.357 1.932,-0.357 0.651,0 1.323,0.126 0.672,0.126 1.218,0.357 0.189,0.084 0.252,0.189 0.063,0.084 0.063,0.189 l 0.105,2.625 q 0,0.063 -0.105,0.084 -0.105,0.021 -0.147,-0.063 -0.063,-0.357 -0.273,-0.882 -0.21,-0.546 -0.567,-1.05 -0.357,-0.525 -0.924,-0.861 -0.546,-0.357 -1.344,-0.357 -0.735,0 -1.218,0.315 -0.483,0.294 -0.735,0.798 -0.252,0.483 -0.252,1.113 z"
       id="path222" />
  </g>
  <g
     aria-label="M"
     id="text126"
     style="font-size:21px;font-family:'Cormorant Garamond Medium';text-anchor:middle;fill:#2e3c23">
    <path
       d="m 185.648,585.606 0.21,-10.248 0.525,0.042 -0.21,10.206 q -0.021,1.092 0.378,1.617 0.42,0.525 1.386,0.525 0.063,0 0.063,0.126 0,0.126 -0.063,0.126 -0.462,0 -0.945,-0.021 -0.483,-0.021 -1.092,-0.021 -0.567,0 -1.071,0.021 -0.504,0.021 -0.945,0.021 -0.042,0 -0.042,-0.126 0,-0.126 0.042,-0.126 0.882,0 1.302,-0.525 0.441,-0.525 0.462,-1.617 z m 14.7,2.142 q 0.042,0 0.042,0.126 0,0.126 -0.042,0.126 -0.525,0 -1.176,-0.021 -0.651,-0.021 -1.386,-0.021 -0.693,0 -1.302,0.021 -0.609,0.021 -1.092,0.021 -0.063,0 -0.063,-0.126 0,-0.126 0.063,-0.126 1.029,0 1.323,-0.273 0.294,-0.273 0.231,-1.176 l -0.42,-9.891 0.819,-1.176 -5.439,12.621 q -0.021,0.084 -0.168,0.084 -0.126,0 -0.168,-0.084 l -5.481,-11.235 q -0.735,-1.491 -2.058,-1.491 -0.042,0 -0.042,-0.126 0,-0.126 0.042,-0.126 0.378,0 0.777,0.021 0.42,0.021 0.714,0.021 0.399,0 0.714,-0.021 0.336,-0.021 0.504,-0.021 0.294,0 0.462,0.21 0.168,0.189 0.504,0.882 l 4.767,9.681 -0.777,1.344 5.061,-11.592 q 0.105,-0.252 0.252,-0.378 0.168,-0.147 0.378,-0.147 0.147,0 0.357,0.021 0.231,0.021 0.525,0.021 0.588,0 0.987,-0.021 0.399,-0.021 0.819,-0.021 0.042,0 0.042,0.126 0,0.126 -0.042,0.126 -1.008,0 -1.47,0.336 -0.462,0.315 -0.441,1.176 l 0.441,9.66 q 0.042,0.609 0.168,0.924 0.126,0.315 0.483,0.42 0.357,0.105 1.092,0.105 z"
       id="path225" />
  </g>
  <g
     aria-label="A"
     id="text128"
     style="font-size:21px;font-family:'Cormorant Garamond Medium';text-anchor:middle;fill:#2e3c23">
    <path
       d="m 209.25401,582.519 0.252,-0.462 h 5.712 l 0.147,0.462 z m 10.857,5.229 q 0.105,0 0.105,0.126 0,0.126 -0.105,0.126 -0.609,0 -1.26,-0.042 -0.63,-0.042 -1.239,-0.042 -0.672,0 -1.176,0.042 -0.483,0.042 -1.092,0.042 -0.084,0 -0.084,-0.126 0,-0.126 0.084,-0.126 1.029,0 1.26,-0.315 0.231,-0.336 -0.231,-1.302 l -4.515,-9.387 0.672,-1.008 -4.095,9.492 q -0.546,1.281 -0.063,1.911 0.483,0.609 1.806,0.609 0.105,0 0.105,0.126 0,0.126 -0.105,0.126 -0.63,0 -1.155,-0.042 -0.525,-0.042 -1.323,-0.042 -0.777,0 -1.26,0.042 -0.462,0.042 -1.134,0.042 -0.084,0 -0.084,-0.126 0,-0.126 0.084,-0.126 0.567,0 0.987,-0.21 0.42,-0.231 0.798,-0.819 0.399,-0.588 0.861,-1.68 l 4.473,-10.311 q 0.021,-0.063 0.147,-0.063 0.126,-0.021 0.147,0.063 l 5.04,10.395 q 0.504,1.029 0.861,1.617 0.378,0.567 0.735,0.798 0.357,0.21 0.756,0.21 z"
       id="path228" />
  </g>
  <g
     aria-label="L"
     id="text130"
     style="font-size:21px;font-family:'Cormorant Garamond Medium';text-anchor:middle;fill:#2e3c23">
    <path
       d="m 228.72549,576.597 v 9.618 q 0,0.546 0.105,0.84 0.126,0.273 0.441,0.378 0.336,0.084 0.987,0.084 h 1.785 q 1.365,0 2.226,-0.798 0.861,-0.798 1.134,-2.121 0,-0.063 0.105,-0.042 0.126,0 0.126,0.063 -0.063,0.609 -0.126,1.47 -0.063,0.861 -0.063,1.596 0,0.315 -0.315,0.315 h -9.786 q -0.042,0 -0.042,-0.126 0,-0.126 0.042,-0.126 0.735,0 1.092,-0.105 0.378,-0.105 0.504,-0.42 0.126,-0.315 0.126,-0.924 v -9.723 q 0,-0.609 -0.126,-0.903 -0.126,-0.315 -0.504,-0.42 -0.357,-0.126 -1.092,-0.126 -0.042,0 -0.042,-0.126 0,-0.126 0.042,-0.126 0.504,0 1.155,0.042 0.672,0.021 1.386,0.021 0.756,0 1.386,-0.021 0.651,-0.042 1.155,-0.042 0.042,0 0.042,0.126 0,0.126 -0.042,0.126 -0.735,0 -1.092,0.126 -0.357,0.105 -0.483,0.42 -0.126,0.315 -0.126,0.924 z"
       id="path231" />
  </g>
  <g
     aria-label="L"
     id="text132"
     style="font-size:21px;font-family:'Cormorant Garamond Medium';text-anchor:middle;fill:#2e3c23">
    <path
       d="m 244.5055,576.597 v 9.618 q 0,0.546 0.105,0.84 0.126,0.273 0.441,0.378 0.336,0.084 0.987,0.084 h 1.785 q 1.365,0 2.226,-0.798 0.861,-0.798 1.134,-2.121 0,-0.063 0.105,-0.042 0.126,0 0.126,0.063 -0.063,0.609 -0.126,1.47 -0.063,0.861 -0.063,1.596 0,0.315 -0.315,0.315 h -9.786 q -0.042,0 -0.042,-0.126 0,-0.126 0.042,-0.126 0.735,0 1.092,-0.105 0.378,-0.105 0.504,-0.42 0.126,-0.315 0.126,-0.924 v -9.723 q 0,-0.609 -0.126,-0.903 -0.126,-0.315 -0.504,-0.42 -0.357,-0.126 -1.092,-0.126 -0.042,0 -0.042,-0.126 0,-0.126 0.042,-0.126 0.504,0 1.155,0.042 0.672,0.021 1.386,0.021 0.756,0 1.386,-0.021 0.651,-0.042 1.155,-0.042 0.042,0 0.042,0.126 0,0.126 -0.042,0.126 -0.735,0 -1.092,0.126 -0.357,0.105 -0.483,0.42 -0.126,0.315 -0.126,0.924 z"
       id="path234" />
  </g>
  <g
     aria-label="T"
     id="text134"
     style="font-size:21px;font-family:'Cormorant Garamond Medium';text-anchor:middle;fill:#2e3c23">
    <path
       d="m 269.80051,575.295 q -1.302,0 -2.037,0.735 -0.735,0.714 -1.092,2.31 -0.021,0.042 -0.147,0.042 -0.105,0 -0.105,-0.063 0.042,-0.273 0.084,-0.777 0.063,-0.504 0.105,-1.092 0.042,-0.588 0.063,-1.134 0.042,-0.546 0.042,-0.903 0,-0.105 0.126,-0.105 0.126,0 0.126,0.105 0,0.21 0.21,0.315 0.21,0.084 0.483,0.126 0.273,0.021 0.462,0.021 1.806,0.063 4.221,0.063 1.47,0 2.352,-0.021 0.882,-0.042 1.701,-0.042 0.714,0 1.092,-0.084 0.399,-0.105 0.504,-0.441 0.021,-0.084 0.126,-0.084 0.126,0 0.126,0.084 -0.042,0.315 -0.084,0.882 -0.021,0.567 -0.063,1.176 -0.021,0.609 -0.042,1.134 -0.021,0.525 -0.021,0.777 0,0.063 -0.126,0.063 -0.105,0 -0.105,-0.063 -0.147,-1.638 -0.84,-2.331 -0.693,-0.693 -2.058,-0.693 -0.735,0 -1.113,0.105 -0.357,0.084 -0.483,0.357 -0.105,0.273 -0.105,0.861 v 9.681 q 0,0.609 0.126,0.924 0.147,0.315 0.546,0.42 0.42,0.105 1.281,0.105 0.042,0 0.042,0.126 0,0.126 -0.042,0.126 -0.567,0 -1.281,-0.021 -0.693,-0.021 -1.533,-0.021 -0.798,0 -1.512,0.021 -0.693,0.021 -1.281,0.021 -0.063,0 -0.063,-0.126 0,-0.126 0.063,-0.126 0.819,0 1.239,-0.105 0.441,-0.105 0.588,-0.42 0.147,-0.315 0.147,-0.924 v -9.723 q 0,-0.567 -0.126,-0.84 -0.126,-0.294 -0.504,-0.357 -0.378,-0.084 -1.092,-0.084 z"
       id="path237" />
  </g>
  <g
     aria-label="H"
     id="text136"
     style="font-size:21px;font-family:'Cormorant Garamond Medium';text-anchor:middle;fill:#2e3c23">
    <path
       d="m 295.30149,576.618 q 0,-0.609 -0.126,-0.924 -0.105,-0.315 -0.504,-0.441 -0.378,-0.126 -1.176,-0.126 -0.063,0 -0.063,-0.126 0,-0.126 0.063,-0.126 0.504,0 1.155,0.042 0.672,0.021 1.491,0.021 0.714,0 1.386,-0.021 0.693,-0.042 1.197,-0.042 0.063,0 0.063,0.126 0,0.126 -0.063,0.126 -0.735,0 -1.134,0.126 -0.378,0.105 -0.504,0.42 -0.126,0.294 -0.126,0.903 v 9.723 q 0,0.609 0.126,0.924 0.126,0.315 0.504,0.42 0.399,0.105 1.134,0.105 0.063,0 0.063,0.126 0,0.126 -0.063,0.126 -0.504,0 -1.197,-0.021 -0.672,-0.021 -1.386,-0.021 -0.819,0 -1.491,0.021 -0.651,0.021 -1.155,0.021 -0.063,0 -0.063,-0.126 0,-0.126 0.063,-0.126 0.798,0 1.176,-0.105 0.399,-0.105 0.504,-0.42 0.126,-0.315 0.126,-0.924 z m -8.547,4.788 v -0.483 h 9.282 v 0.483 z m -0.777,4.893 v -9.723 q 0,-0.609 -0.126,-0.903 -0.126,-0.315 -0.504,-0.42 -0.378,-0.126 -1.113,-0.126 -0.063,0 -0.063,-0.126 0,-0.126 0.063,-0.126 0.525,0 1.176,0.042 0.651,0.021 1.365,0.021 0.84,0 1.491,-0.021 0.672,-0.042 1.197,-0.042 0.042,0 0.042,0.126 0,0.126 -0.042,0.126 -0.777,0 -1.176,0.126 -0.378,0.126 -0.525,0.441 -0.126,0.315 -0.126,0.924 v 9.681 q 0,0.609 0.126,0.924 0.126,0.315 0.525,0.42 0.399,0.105 1.176,0.105 0.042,0 0.042,0.126 0,0.126 -0.042,0.126 -0.546,0 -1.197,-0.021 -0.651,-0.021 -1.491,-0.021 -0.714,0 -1.386,0.021 -0.672,0.021 -1.197,0.021 -0.042,0 -0.042,-0.126 0,-0.126 0.042,-0.126 0.756,0 1.134,-0.105 0.399,-0.105 0.525,-0.42 0.126,-0.315 0.126,-0.924 z"
       id="path240" />
  </g>
  <g
     aria-label="I"
     id="text138"
     style="font-size:21px;font-family:'Cormorant Garamond Medium';text-anchor:middle;fill:#2e3c23">
    <path
       d="m 308.35051,586.299 q 0,0.609 0.105,0.924 0.126,0.315 0.483,0.42 0.378,0.105 1.113,0.105 0.042,0 0.042,0.126 0,0.126 -0.042,0.126 -0.525,0 -1.176,-0.021 -0.63,-0.021 -1.386,-0.021 -0.735,0 -1.386,0.021 -0.651,0.021 -1.176,0.021 -0.042,0 -0.042,-0.126 0,-0.126 0.042,-0.126 0.735,0 1.113,-0.105 0.378,-0.105 0.504,-0.42 0.126,-0.315 0.126,-0.924 v -9.723 q 0,-0.609 -0.126,-0.903 -0.126,-0.315 -0.504,-0.42 -0.378,-0.126 -1.113,-0.126 -0.042,0 -0.042,-0.126 0,-0.126 0.042,-0.126 0.525,0 1.176,0.042 0.651,0.021 1.386,0.021 0.756,0 1.407,-0.021 0.651,-0.042 1.155,-0.042 0.042,0 0.042,0.126 0,0.126 -0.042,0.126 -0.735,0 -1.092,0.126 -0.357,0.126 -0.483,0.441 -0.126,0.315 -0.126,0.924 z"
       id="path243" />
  </g>
  <g
     aria-label="N"
     id="text140"
     style="font-size:21px;font-family:'Cormorant Garamond Medium';text-anchor:middle;fill:#2e3c23">
    <path
       d="m 318.077,585.606 v -10.248 l 0.546,0.042 v 10.206 q 0,1.092 0.399,1.617 0.399,0.525 1.26,0.525 0.042,0 0.042,0.126 0,0.126 -0.042,0.126 -0.441,0 -0.903,-0.021 -0.441,-0.021 -1.008,-0.021 -0.546,0 -1.071,0.021 -0.525,0.021 -0.987,0.021 -0.042,0 -0.042,-0.126 0,-0.126 0.042,-0.126 0.924,0 1.344,-0.525 0.42,-0.525 0.42,-1.617 z m 10.626,2.667 q 0,0.042 -0.105,0.042 -0.084,0.021 -0.126,0 l -9.891,-11.718 q -0.735,-0.861 -1.281,-1.155 -0.525,-0.315 -1.05,-0.315 -0.042,0 -0.042,-0.126 0,-0.126 0.042,-0.126 0.399,0 0.798,0.021 0.399,0.021 0.735,0.021 0.504,0 0.924,-0.021 0.42,-0.021 0.63,-0.021 0.273,0 0.399,0.252 0.126,0.231 0.609,0.84 l 8.19,9.87 z m 0,-10.983 v 10.983 l -0.525,-0.651 V 577.29 q 0,-1.092 -0.399,-1.617 -0.378,-0.546 -1.239,-0.546 -0.042,0 -0.042,-0.126 0,-0.126 0.042,-0.126 0.441,0 0.903,0.042 0.462,0.021 1.008,0.021 0.525,0 1.029,-0.021 0.504,-0.042 0.945,-0.042 0.042,0 0.042,0.126 0,0.126 -0.042,0.126 -0.882,0 -1.302,0.546 -0.42,0.525 -0.42,1.617 z"
       id="path246" />
  </g>
  <g
     aria-label="G"
     id="text142"
     style="font-size:21px;font-family:'Cormorant Garamond Medium';text-anchor:middle;fill:#2e3c23">
    <path
       d="m 344.0025,588.252 q -1.806,0 -3.234,-0.525 -1.407,-0.546 -2.394,-1.491 -0.966,-0.945 -1.491,-2.184 -0.504,-1.239 -0.504,-2.625 0,-1.575 0.588,-2.814 0.609,-1.239 1.701,-2.121 1.092,-0.903 2.541,-1.365 1.449,-0.483 3.15,-0.483 1.092,0 2.058,0.189 0.987,0.189 1.638,0.546 0.189,0.084 0.21,0.147 0.021,0.063 0.042,0.336 l 0.273,2.604 q 0,0.063 -0.105,0.084 -0.105,0.021 -0.147,-0.063 -0.21,-0.651 -0.567,-1.26 -0.357,-0.63 -0.903,-1.113 -0.546,-0.504 -1.302,-0.798 -0.735,-0.294 -1.722,-0.294 -1.554,0 -2.814,0.735 -1.26,0.714 -1.995,2.079 -0.735,1.344 -0.735,3.234 0,1.344 0.399,2.583 0.42,1.239 1.218,2.205 0.798,0.966 1.953,1.533 1.176,0.546 2.688,0.546 0.945,0 1.491,-0.231 0.567,-0.252 0.819,-0.798 0.252,-0.567 0.252,-1.533 0,-1.008 -0.126,-1.47 -0.126,-0.483 -0.609,-0.63 -0.483,-0.147 -1.575,-0.147 -0.126,0 -0.126,-0.168 0,-0.168 0.105,-0.168 1.386,0.084 2.499,0.105 1.134,0 2.352,-0.063 0.105,0 0.105,0.147 0,0.147 -0.105,0.147 -0.441,-0.021 -0.651,0.147 -0.21,0.147 -0.273,0.672 -0.042,0.525 -0.042,1.638 0,0.693 0.042,1.029 0.042,0.336 0.063,0.504 0.042,0.147 0.042,0.315 0,0.126 -0.042,0.168 -0.042,0.042 -0.189,0.084 -1.092,0.231 -2.31,0.399 -1.197,0.168 -2.268,0.168 z"
       id="path249" />
  </g>
  <g
     aria-label="S"
     id="text144"
     style="font-size:21px;font-family:'Cormorant Garamond Medium';text-anchor:middle;fill:#2e3c23">
    <path
       d="m 358.1845,577.227 q 0,0.84 0.42,1.449 0.42,0.609 1.092,1.092 0.672,0.462 1.428,0.924 0.777,0.462 1.491,0.987 0.735,0.525 1.197,1.239 0.483,0.693 0.483,1.701 0,1.029 -0.546,1.848 -0.525,0.819 -1.512,1.302 -0.966,0.483 -2.331,0.483 -0.546,0 -1.113,-0.105 -0.546,-0.084 -1.05,-0.252 -0.504,-0.168 -0.924,-0.42 -0.084,-0.063 -0.147,-0.147 -0.042,-0.084 -0.042,-0.252 l -0.21,-3.003 q -0.021,-0.105 0.084,-0.105 0.126,-0.021 0.147,0.063 0.189,0.651 0.504,1.323 0.315,0.672 0.756,1.239 0.441,0.546 1.05,0.903 0.63,0.357 1.449,0.357 0.567,0 1.092,-0.21 0.546,-0.21 0.882,-0.693 0.336,-0.504 0.336,-1.386 0,-1.008 -0.441,-1.701 -0.441,-0.693 -1.134,-1.197 -0.693,-0.504 -1.47,-0.966 -0.735,-0.462 -1.428,-0.966 -0.672,-0.504 -1.092,-1.155 -0.42,-0.672 -0.42,-1.617 0,-1.134 0.588,-1.869 0.609,-0.735 1.533,-1.092 0.945,-0.357 1.932,-0.357 0.651,0 1.323,0.126 0.672,0.126 1.218,0.357 0.189,0.084 0.252,0.189 0.063,0.084 0.063,0.189 l 0.105,2.625 q 0,0.063 -0.105,0.084 -0.105,0.021 -0.147,-0.063 -0.063,-0.357 -0.273,-0.882 -0.21,-0.546 -0.567,-1.05 -0.357,-0.525 -0.924,-0.861 -0.546,-0.357 -1.344,-0.357 -0.735,0 -1.218,0.315 -0.483,0.294 -0.735,0.798 -0.252,0.483 -0.252,1.113 z"
       id="path252" />
  </g>
  <g
     aria-label="M"
     id="text146"
     style="font-size:21px;font-family:'Cormorant Garamond Medium';text-anchor:middle;fill:#2e3c23">
    <path
       d="m 381.83798,585.606 0.21,-10.248 0.525,0.042 -0.21,10.206 q -0.021,1.092 0.378,1.617 0.42,0.525 1.386,0.525 0.063,0 0.063,0.126 0,0.126 -0.063,0.126 -0.462,0 -0.945,-0.021 -0.483,-0.021 -1.092,-0.021 -0.567,0 -1.071,0.021 -0.504,0.021 -0.945,0.021 -0.042,0 -0.042,-0.126 0,-0.126 0.042,-0.126 0.882,0 1.302,-0.525 0.441,-0.525 0.462,-1.617 z m 14.7,2.142 q 0.042,0 0.042,0.126 0,0.126 -0.042,0.126 -0.525,0 -1.176,-0.021 -0.651,-0.021 -1.386,-0.021 -0.693,0 -1.302,0.021 -0.609,0.021 -1.092,0.021 -0.063,0 -0.063,-0.126 0,-0.126 0.063,-0.126 1.029,0 1.323,-0.273 0.294,-0.273 0.231,-1.176 l -0.42,-9.891 0.819,-1.176 -5.439,12.621 q -0.021,0.084 -0.168,0.084 -0.126,0 -0.168,-0.084 l -5.481,-11.235 q -0.735,-1.491 -2.058,-1.491 -0.042,0 -0.042,-0.126 0,-0.126 0.042,-0.126 0.378,0 0.777,0.021 0.42,0.021 0.714,0.021 0.399,0 0.714,-0.021 0.336,-0.021 0.504,-0.021 0.294,0 0.462,0.21 0.168,0.189 0.504,0.882 l 4.767,9.681 -0.777,1.344 5.061,-11.592 q 0.105,-0.252 0.252,-0.378 0.168,-0.147 0.378,-0.147 0.147,0 0.357,0.021 0.231,0.021 0.525,0.021 0.588,0 0.987,-0.021 0.399,-0.021 0.819,-0.021 0.042,0 0.042,0.126 0,0.126 -0.042,0.126 -1.008,0 -1.47,0.336 -0.462,0.315 -0.441,1.176 l 0.441,9.66 q 0.042,0.609 0.168,0.924 0.126,0.315 0.483,0.42 0.357,0.105 1.092,0.105 z"
       id="path255" />
  </g>
  <g
     aria-label="A"
     id="text148"
     style="font-size:21px;font-family:'Cormorant Garamond Medium';text-anchor:middle;fill:#2e3c23">
    <path
       d="m 405.45401,582.519 0.252,-0.462 h 5.712 l 0.147,0.462 z m 10.857,5.229 q 0.105,0 0.105,0.126 0,0.126 -0.105,0.126 -0.609,0 -1.26,-0.042 -0.63,-0.042 -1.239,-0.042 -0.672,0 -1.176,0.042 -0.483,0.042 -1.092,0.042 -0.084,0 -0.084,-0.126 0,-0.126 0.084,-0.126 1.029,0 1.26,-0.315 0.231,-0.336 -0.231,-1.302 l -4.515,-9.387 0.672,-1.008 -4.095,9.492 q -0.546,1.281 -0.063,1.911 0.483,0.609 1.806,0.609 0.105,0 0.105,0.126 0,0.126 -0.105,0.126 -0.63,0 -1.155,-0.042 -0.525,-0.042 -1.323,-0.042 -0.777,0 -1.26,0.042 -0.462,0.042 -1.134,0.042 -0.084,0 -0.084,-0.126 0,-0.126 0.084,-0.126 0.567,0 0.987,-0.21 0.42,-0.231 0.798,-0.819 0.399,-0.588 0.861,-1.68 l 4.473,-10.311 q 0.021,-0.063 0.147,-0.063 0.126,-0.021 0.147,0.063 l 5.04,10.395 q 0.504,1.029 0.861,1.617 0.378,0.567 0.735,0.798 0.357,0.21 0.756,0.21 z"
       id="path258" />
  </g>
  <g
     aria-label="T"
     id="text150"
     style="font-size:21px;font-family:'Cormorant Garamond Medium';text-anchor:middle;fill:#2e3c23">
    <path
       d="m 425.03052,575.295 q -1.302,0 -2.037,0.735 -0.735,0.714 -1.092,2.31 -0.021,0.042 -0.147,0.042 -0.105,0 -0.105,-0.063 0.042,-0.273 0.084,-0.777 0.063,-0.504 0.105,-1.092 0.042,-0.588 0.063,-1.134 0.042,-0.546 0.042,-0.903 0,-0.105 0.126,-0.105 0.126,0 0.126,0.105 0,0.21 0.21,0.315 0.21,0.084 0.483,0.126 0.273,0.021 0.462,0.021 1.806,0.063 4.221,0.063 1.47,0 2.352,-0.021 0.882,-0.042 1.701,-0.042 0.714,0 1.092,-0.084 0.399,-0.105 0.504,-0.441 0.021,-0.084 0.126,-0.084 0.126,0 0.126,0.084 -0.042,0.315 -0.084,0.882 -0.021,0.567 -0.063,1.176 -0.021,0.609 -0.042,1.134 -0.021,0.525 -0.021,0.777 0,0.063 -0.126,0.063 -0.105,0 -0.105,-0.063 -0.147,-1.638 -0.84,-2.331 -0.693,-0.693 -2.058,-0.693 -0.735,0 -1.113,0.105 -0.357,0.084 -0.483,0.357 -0.105,0.273 -0.105,0.861 v 9.681 q 0,0.609 0.126,0.924 0.147,0.315 0.546,0.42 0.42,0.105 1.281,0.105 0.042,0 0.042,0.126 0,0.126 -0.042,0.126 -0.567,0 -1.281,-0.021 -0.693,-0.021 -1.533,-0.021 -0.798,0 -1.512,0.021 -0.693,0.021 -1.281,0.021 -0.063,0 -0.063,-0.126 0,-0.126 0.063,-0.126 0.819,0 1.239,-0.105 0.441,-0.105 0.588,-0.42 0.147,-0.315 0.147,-0.924 v -9.723 q 0,-0.567 -0.126,-0.84 -0.126,-0.294 -0.504,-0.357 -0.378,-0.084 -1.092,-0.084 z"
       id="path261" />
  </g>
  <g
     aria-label="T"
     id="text152"
     style="font-size:21px;font-family:'Cormorant Garamond Medium';text-anchor:middle;fill:#2e3c23">
    <path
       d="m 442.91052,575.295 q -1.302,0 -2.037,0.735 -0.735,0.714 -1.092,2.31 -0.021,0.042 -0.147,0.042 -0.105,0 -0.105,-0.063 0.042,-0.273 0.084,-0.777 0.063,-0.504 0.105,-1.092 0.042,-0.588 0.063,-1.134 0.042,-0.546 0.042,-0.903 0,-0.105 0.126,-0.105 0.126,0 0.126,0.105 0,0.21 0.21,0.315 0.21,0.084 0.483,0.126 0.273,0.021 0.462,0.021 1.806,0.063 4.221,0.063 1.47,0 2.352,-0.021 0.882,-0.042 1.701,-0.042 0.714,0 1.092,-0.084 0.399,-0.105 0.504,-0.441 0.021,-0.084 0.126,-0.084 0.126,0 0.126,0.084 -0.042,0.315 -0.084,0.882 -0.021,0.567 -0.063,1.176 -0.021,0.609 -0.042,1.134 -0.021,0.525 -0.021,0.777 0,0.063 -0.126,0.063 -0.105,0 -0.105,-0.063 -0.147,-1.638 -0.84,-2.331 -0.693,-0.693 -2.058,-0.693 -0.735,0 -1.113,0.105 -0.357,0.084 -0.483,0.357 -0.105,0.273 -0.105,0.861 v 9.681 q 0,0.609 0.126,0.924 0.147,0.315 0.546,0.42 0.42,0.105 1.281,0.105 0.042,0 0.042,0.126 0,0.126 -0.042,0.126 -0.567,0 -1.281,-0.021 -0.693,-0.021 -1.533,-0.021 -0.798,0 -1.512,0.021 -0.693,0.021 -1.281,0.021 -0.063,0 -0.063,-0.126 0,-0.126 0.063,-0.126 0.819,0 1.239,-0.105 0.441,-0.105 0.588,-0.42 0.147,-0.315 0.147,-0.924 v -9.723 q 0,-0.567 -0.126,-0.84 -0.126,-0.294 -0.504,-0.357 -0.378,-0.084 -1.092,-0.084 z"
       id="path264" />
  </g>
  <g
     aria-label="E"
     id="text154"
     style="font-size:21px;font-family:'Cormorant Garamond Medium';text-anchor:middle;fill:#2e3c23">
    <path
       d="m 466.45799,588 h -8.946 q -0.063,0 -0.063,-0.126 0,-0.126 0.063,-0.126 0.714,0 1.071,-0.105 0.378,-0.105 0.504,-0.42 0.126,-0.315 0.126,-0.924 v -9.723 q 0,-0.609 -0.126,-0.903 -0.126,-0.315 -0.504,-0.42 -0.357,-0.126 -1.071,-0.126 -0.063,0 -0.063,-0.126 0,-0.126 0.063,-0.126 h 8.568 q 0.21,0 0.21,0.189 l 0.042,2.646 q 0,0.063 -0.126,0.084 -0.105,0 -0.126,-0.063 -0.147,-1.155 -0.819,-1.743 -0.672,-0.609 -1.764,-0.609 h -1.071 q -0.63,0 -0.966,0.105 -0.336,0.105 -0.462,0.399 -0.126,0.273 -0.126,0.777 v 9.555 q 0,0.504 0.105,0.798 0.126,0.273 0.441,0.399 0.315,0.105 0.882,0.105 h 1.386 q 1.197,0 1.974,-0.693 0.777,-0.714 1.071,-2.016 0,-0.063 0.126,-0.042 0.126,0.021 0.126,0.084 -0.084,0.567 -0.147,1.365 -0.063,0.798 -0.063,1.47 0,0.315 -0.315,0.315 z m -1.176,-4.83 q 0,-0.903 -0.525,-1.323 -0.504,-0.441 -1.638,-0.441 h -3.045 v -0.483 h 3.108 q 1.071,0 1.575,-0.357 0.504,-0.378 0.504,-1.155 0,-0.042 0.105,-0.042 0.126,0 0.126,0.042 0,0.651 -0.021,1.008 0,0.357 0,0.756 0,0.483 0.021,0.966 0.042,0.483 0.042,1.029 0,0.042 -0.126,0.042 -0.126,0 -0.126,-0.042 z"
       id="path267" />
  </g>
  <g
     aria-label="R"
     id="text156"
     style="font-size:21px;font-family:'Cormorant Garamond Medium';text-anchor:middle;fill:#2e3c23">
    <path
       d="m 483.95552,588 q -0.336,0 -1.113,-0.798 -0.756,-0.819 -1.827,-2.31 -1.071,-1.512 -2.415,-3.591 l 1.407,-0.441 q 1.764,2.541 2.982,4.053 1.239,1.512 2.184,2.184 0.945,0.651 1.806,0.651 0.063,0 0.063,0.126 0,0.126 -0.063,0.126 -1.176,0 -1.932,0 -0.735,0 -1.092,0 z m -5.04,-13.188 q 1.764,0 2.688,0.756 0.945,0.735 0.945,1.974 0,1.176 -0.672,2.1 -0.672,0.924 -1.764,1.449 -1.071,0.525 -2.31,0.525 -0.252,0 -0.525,0 -0.273,-0.021 -0.504,-0.042 v 4.725 q 0,0.609 0.105,0.924 0.126,0.315 0.483,0.42 0.378,0.105 1.113,0.105 0.063,0 0.063,0.126 0,0.126 -0.063,0.126 -0.525,0 -1.155,-0.021 -0.63,-0.021 -1.386,-0.021 -0.714,0 -1.365,0.021 -0.651,0.021 -1.176,0.021 -0.063,0 -0.063,-0.126 0,-0.126 0.063,-0.126 0.714,0 1.071,-0.105 0.378,-0.105 0.504,-0.42 0.147,-0.315 0.147,-0.924 v -9.723 q 0,-0.609 -0.126,-0.903 -0.126,-0.315 -0.483,-0.42 -0.357,-0.126 -1.092,-0.126 -0.042,0 -0.042,-0.126 0,-0.126 0.042,-0.126 0.525,0 1.155,0.042 0.651,0.021 1.365,0.021 0.672,0 1.512,-0.063 0.84,-0.063 1.47,-0.063 z m 1.911,3.402 q 0,-1.176 -0.315,-1.827 -0.315,-0.672 -0.903,-0.945 -0.567,-0.273 -1.344,-0.273 -0.798,0 -1.155,0.294 -0.336,0.273 -0.336,1.155 v 4.431 q 0.294,0.021 0.63,0.042 0.357,0.021 0.609,0.021 1.554,0 2.184,-0.714 0.63,-0.714 0.63,-2.184 z"
       id="path270" />
  </g>
  <g
     aria-label="."
     id="text158"
     style="font-size:21px;font-family:'Cormorant Garamond Medium';text-anchor:middle;fill:#2e3c23">
    <path
       d="m 493.41101,588.231 q -0.462,0 -0.756,-0.273 -0.273,-0.273 -0.273,-0.756 0,-0.441 0.273,-0.693 0.294,-0.273 0.756,-0.273 0.504,0 0.756,0.273 0.252,0.252 0.252,0.693 0,0.483 -0.252,0.756 -0.252,0.273 -0.756,0.273 z"
       id="path273" />
  </g>
</svg>
