<?xml version="1.0" encoding="UTF-8" standalone="no"?>
<svg
   viewBox="0 0 600 600"
   width="600"
   height="600"
   version="1.1"
   id="svg82"
   xmlns="http://www.w3.org/2000/svg"
   xmlns:svg="http://www.w3.org/2000/svg">
  <defs
     id="defs86" />
  <path
     d="M 272,505 C 104,462 68,288 164,118"
     fill="none"
     stroke="#2E3C23"
     stroke-width="5.25"
     stroke-linecap="round"
     id="path2" />
  <path
     d="M 225.6,488.3 Q 212.1,488.1 204.1,499.0 Q 217.6,499.2 225.6,488.3 Z"
     fill="none"
     stroke="#2E3C23"
     stroke-width="4.34"
     stroke-linejoin="round"
     id="path4" />
  <path
     d="M 225.6,488.3 Q 229.0,475.3 220.4,464.9 Q 216.9,477.9 225.6,488.3 Z"
     fill="none"
     stroke="#2E3C23"
     stroke-width="4.34"
     stroke-linejoin="round"
     id="path6" />
  <path
     d="M 176.0,455.2 Q 163.1,451.1 152.3,459.3 Q 165.2,463.4 176.0,455.2 Z"
     fill="none"
     stroke="#2E3C23"
     stroke-width="4.34"
     stroke-linejoin="round"
     id="path8" />
  <path
     d="M 176.0,455.2 Q 183.0,443.7 177.8,431.3 Q 170.7,442.8 176.0,455.2 Z"
     fill="none"
     stroke="#2E3C23"
     stroke-width="4.34"
     stroke-linejoin="round"
     id="path10" />
  <path
     d="M 140.4,411.5 Q 129.4,403.8 116.6,408.4 Q 127.7,416.1 140.4,411.5 Z"
     fill="none"
     stroke="#2E3C23"
     stroke-width="4.34"
     stroke-linejoin="round"
     id="path12" />
  <path
     d="M 140.4,411.5 Q 150.6,402.6 149.2,389.2 Q 139.1,398.1 140.4,411.5 Z"
     fill="none"
     stroke="#2E3C23"
     stroke-width="4.34"
     stroke-linejoin="round"
     id="path14" />
  <path
     d="M 119.0,359.1 Q 110.5,348.6 97.0,349.5 Q 105.5,360.0 119.0,359.1 Z"
     fill="none"
     stroke="#2E3C23"
     stroke-width="4.34"
     stroke-linejoin="round"
     id="path16" />
  <path
     d="M 119.0,359.1 Q 131.2,353.4 133.6,340.1 Q 121.4,345.8 119.0,359.1 Z"
     fill="none"
     stroke="#2E3C23"
     stroke-width="4.34"
     stroke-linejoin="round"
     id="path18" />
  <path
     d="M 111.6,300.0 Q 105.9,287.7 92.7,285.3 Q 98.4,297.5 111.6,300.0 Z"
     fill="none"
     stroke="#2E3C23"
     stroke-width="4.34"
     stroke-linejoin="round"
     id="path20" />
  <path
     d="M 111.6,300.0 Q 124.9,297.4 130.5,285.1 Q 117.2,287.7 111.6,300.0 Z"
     fill="none"
     stroke="#2E3C23"
     stroke-width="4.34"
     stroke-linejoin="round"
     id="path22" />
  <path
     d="M 118.4,235.9 Q 115.4,222.8 102.9,217.6 Q 105.9,230.8 118.4,235.9 Z"
     fill="none"
     stroke="#2E3C23"
     stroke-width="4.34"
     stroke-linejoin="round"
     id="path24" />
  <path
     d="M 118.4,235.9 Q 131.9,236.2 139.9,225.3 Q 126.4,225.1 118.4,235.9 Z"
     fill="none"
     stroke="#2E3C23"
     stroke-width="4.34"
     stroke-linejoin="round"
     id="path26" />
  <path
     d="M 139.2,169.0 Q 138.6,155.5 127.3,148.1 Q 127.8,161.6 139.2,169.0 Z"
     fill="none"
     stroke="#2E3C23"
     stroke-width="4.34"
     stroke-linejoin="round"
     id="path28" />
  <path
     d="M 139.2,169.0 Q 152.4,171.7 162.3,162.5 Q 149.0,159.8 139.2,169.0 Z"
     fill="none"
     stroke="#2E3C23"
     stroke-width="4.34"
     stroke-linejoin="round"
     id="path30" />
  <path
     d="M 164.0,118.0 Q 175.6,110.1 176.4,96.1 Q 164.8,104.0 164.0,118.0 Z"
     fill="none"
     stroke="#2E3C23"
     stroke-width="4.34"
     stroke-linejoin="round"
     id="path32" />
  <path
     d="M 328,505 C 496,462 532,288 436,118"
     fill="none"
     stroke="#2E3C23"
     stroke-width="5.25"
     stroke-linecap="round"
     id="path34" />
  <path
     d="M 374.4,488.3 Q 383.1,477.9 379.6,464.9 Q 371.0,475.3 374.4,488.3 Z"
     fill="none"
     stroke="#2E3C23"
     stroke-width="4.34"
     stroke-linejoin="round"
     id="path36" />
  <path
     d="M 374.4,488.3 Q 382.4,499.2 395.9,499.0 Q 387.9,488.1 374.4,488.3 Z"
     fill="none"
     stroke="#2E3C23"
     stroke-width="4.34"
     stroke-linejoin="round"
     id="path38" />
  <path
     d="M 424.0,455.2 Q 429.3,442.8 422.2,431.3 Q 417.0,443.7 424.0,455.2 Z"
     fill="none"
     stroke="#2E3C23"
     stroke-width="4.34"
     stroke-linejoin="round"
     id="path40" />
  <path
     d="M 424.0,455.2 Q 434.8,463.4 447.7,459.3 Q 436.9,451.1 424.0,455.2 Z"
     fill="none"
     stroke="#2E3C23"
     stroke-width="4.34"
     stroke-linejoin="round"
     id="path42" />
  <path
     d="M 459.6,411.5 Q 460.9,398.1 450.8,389.2 Q 449.4,402.6 459.6,411.5 Z"
     fill="none"
     stroke="#2E3C23"
     stroke-width="4.34"
     stroke-linejoin="round"
     id="path44" />
  <path
     d="M 459.6,411.5 Q 472.3,416.1 483.4,408.4 Q 470.6,403.8 459.6,411.5 Z"
     fill="none"
     stroke="#2E3C23"
     stroke-width="4.34"
     stroke-linejoin="round"
     id="path46" />
  <path
     d="M 481.0,359.1 Q 478.6,345.8 466.4,340.1 Q 468.8,353.4 481.0,359.1 Z"
     fill="none"
     stroke="#2E3C23"
     stroke-width="4.34"
     stroke-linejoin="round"
     id="path48" />
  <path
     d="M 481.0,359.1 Q 494.5,360.0 503.0,349.5 Q 489.5,348.6 481.0,359.1 Z"
     fill="none"
     stroke="#2E3C23"
     stroke-width="4.34"
     stroke-linejoin="round"
     id="path50" />
  <path
     d="M 488.4,300.0 Q 482.8,287.7 469.5,285.1 Q 475.1,297.4 488.4,300.0 Z"
     fill="none"
     stroke="#2E3C23"
     stroke-width="4.34"
     stroke-linejoin="round"
     id="path52" />
  <path
     d="M 488.4,300.0 Q 501.6,297.5 507.3,285.3 Q 494.1,287.7 488.4,300.0 Z"
     fill="none"
     stroke="#2E3C23"
     stroke-width="4.34"
     stroke-linejoin="round"
     id="path54" />
  <path
     d="M 481.6,235.9 Q 473.6,225.1 460.1,225.3 Q 468.1,236.2 481.6,235.9 Z"
     fill="none"
     stroke="#2E3C23"
     stroke-width="4.34"
     stroke-linejoin="round"
     id="path56" />
  <path
     d="M 481.6,235.9 Q 494.1,230.8 497.1,217.6 Q 484.6,222.8 481.6,235.9 Z"
     fill="none"
     stroke="#2E3C23"
     stroke-width="4.34"
     stroke-linejoin="round"
     id="path58" />
  <path
     d="M 460.8,169.0 Q 451.0,159.8 437.7,162.5 Q 447.6,171.7 460.8,169.0 Z"
     fill="none"
     stroke="#2E3C23"
     stroke-width="4.34"
     stroke-linejoin="round"
     id="path60" />
  <path
     d="M 460.8,169.0 Q 472.2,161.6 472.7,148.1 Q 461.4,155.5 460.8,169.0 Z"
     fill="none"
     stroke="#2E3C23"
     stroke-width="4.34"
     stroke-linejoin="round"
     id="path62" />
  <path
     d="M 436.0,118.0 Q 435.2,104.0 423.6,96.1 Q 424.4,110.1 436.0,118.0 Z"
     fill="none"
     stroke="#2E3C23"
     stroke-width="4.34"
     stroke-linejoin="round"
     id="path64" />
  <line
     x1="300"
     y1="428"
     x2="300"
     y2="288.6"
     stroke="#2E3C23"
     stroke-width="7.0"
     stroke-linecap="round"
     id="line66" />
  <path
     d="M 300,288.6 C 300,267.2 283.9,261.8 265.2,251.1"
     fill="none"
     stroke="#2E3C23"
     stroke-width="7.0"
     stroke-linecap="round"
     id="path68" />
  <path
     d="M 265.2,251.1 C 215.7,238.4 190.6,194.4 192.8,160.0 C 223.7,168.2 259.8,203.4 265.2,251.1 Z"
     fill="none"
     stroke="#2E3C23"
     stroke-width="7.0"
     stroke-linejoin="round"
     id="path70" />
  <path
     d="M 265.2,251.1 Q 232.4,214.8 205.8,176.4"
     fill="none"
     stroke="#2E3C23"
     stroke-width="5.95"
     stroke-linecap="round"
     id="path72" />
  <path
     d="M 300,288.6 C 300,267.2 316.1,261.8 334.8,251.1"
     fill="none"
     stroke="#2E3C23"
     stroke-width="7.0"
     stroke-linecap="round"
     id="path74" />
  <path
     d="M 334.8,251.1 C 384.3,238.4 409.4,194.4 407.2,160.0 C 376.3,168.2 340.2,203.4 334.8,251.1 Z"
     fill="none"
     stroke="#2E3C23"
     stroke-width="7.0"
     stroke-linejoin="round"
     id="path76" />
  <path
     d="M 334.8,251.1 Q 367.6,214.8 394.2,176.4"
     fill="none"
     stroke="#2E3C23"
     stroke-width="5.95"
     stroke-linecap="round"
     id="path78" />
  <circle
     cx="300"
     cy="428"
     r="21"
     fill="#584025"
     id="circle80" />
</svg>
