<?xml version="1.0" encoding="UTF-8" standalone="no"?>
<svg
   viewBox="0 0 600 260"
   width="600"
   height="260"
   version="1.1"
   id="svg56"
   xmlns="http://www.w3.org/2000/svg"
   xmlns:svg="http://www.w3.org/2000/svg">
  <defs
     id="defs60" />
  <path
     d="M 292.0,52.0 Q 340.0,48.0 388.0,52.0"
     fill="none"
     stroke="#F4EFE6"
     stroke-width="3.4"
     stroke-linecap="round"
     id="path2" />
  <path
     d="M 307.5,50.4 Q 314.7,49.1 317.8,42.4 Q 310.6,43.8 307.5,50.4 Z"
     fill="none"
     stroke="#F4EFE6"
     stroke-width="3.06"
     stroke-linejoin="round"
     id="path4" />
  <path
     d="M 307.5,50.4 Q 310.6,57.1 317.8,58.4 Q 314.7,51.8 307.5,50.4 Z"
     fill="none"
     stroke="#F4EFE6"
     stroke-width="3.06"
     stroke-linejoin="round"
     id="path6" />
  <path
     d="M 335.8,48.8 Q 343.0,47.5 346.0,40.8 Q 338.8,42.1 335.8,48.8 Z"
     fill="none"
     stroke="#F4EFE6"
     stroke-width="3.06"
     stroke-linejoin="round"
     id="path8" />
  <path
     d="M 335.8,48.8 Q 338.8,55.5 346.0,56.8 Q 343.0,50.2 335.8,48.8 Z"
     fill="none"
     stroke="#F4EFE6"
     stroke-width="3.06"
     stroke-linejoin="round"
     id="path10" />
  <path
     d="M 364.0,49.7 Q 371.2,48.4 374.2,41.7 Q 367.0,43.1 364.0,49.7 Z"
     fill="none"
     stroke="#F4EFE6"
     stroke-width="3.06"
     stroke-linejoin="round"
     id="path12" />
  <path
     d="M 364.0,49.7 Q 367.0,56.4 374.2,57.7 Q 371.2,51.1 364.0,49.7 Z"
     fill="none"
     stroke="#F4EFE6"
     stroke-width="3.06"
     stroke-linejoin="round"
     id="path14" />
  <path
     d="M 388.0,52.0 Q 395.1,55.4 402.3,52.0 Q 395.1,48.6 388.0,52.0 Z"
     fill="none"
     stroke="#F4EFE6"
     stroke-width="3.06"
     stroke-linejoin="round"
     id="path16" />
  <g
     aria-label="S"
     id="text18"
     style="font-size:64px;font-family:'Cormorant Garamond SemiBold';text-anchor:middle;fill:#F4EFE6">
    <path
       d="m 34.152002,116.848 q 0,2.496 1.28,4.352 1.28,1.792 3.264,3.264 2.048,1.472 4.288,2.88 2.432,1.472 4.608,3.136 2.24,1.664 3.648,3.84 1.472,2.112 1.472,5.184 0,3.328 -1.728,5.888 -1.728,2.496 -4.8,3.968 -3.008,1.408 -7.104,1.408 -1.728,0 -3.648,-0.32 -1.856,-0.32 -3.52,-0.896 -1.6,-0.576 -2.624,-1.216 -0.256,-0.192 -0.448,-0.448 -0.128,-0.256 -0.192,-0.768 l -0.384,-9.664 q -0.064,-0.32 0.256,-0.32 0.384,-0.064 0.448,0.192 0.768,1.92 1.792,4.096 1.088,2.112 2.496,3.904 1.408,1.792 3.2,2.944 1.856,1.088 4.224,1.088 1.664,0 3.136,-0.576 1.472,-0.576 2.432,-1.984 0.96,-1.472 0.96,-3.968 0,-3.008 -1.408,-5.12 -1.344,-2.176 -3.456,-3.776 -2.112,-1.6 -4.416,-3.008 -2.24,-1.472 -4.288,-3.008 -2.048,-1.536 -3.392,-3.52 -1.28,-2.048 -1.28,-4.928 0,-3.52 1.92,-5.76 1.92,-2.24 4.864,-3.328 3.008,-1.088 6.144,-1.088 2.112,0 4.288,0.384 2.176,0.384 3.712,1.088 0.576,0.192 0.768,0.512 0.192,0.32 0.192,0.704 l 0.128,8.64 q 0,0.256 -0.32,0.32 -0.256,0.064 -0.384,-0.128 -0.32,-0.96 -0.96,-2.624 -0.64,-1.728 -1.792,-3.456 -1.152,-1.728 -2.88,-2.944 -1.728,-1.216 -4.224,-1.216 -1.92,0 -3.328,0.768 -1.408,0.768 -2.176,2.176 -0.768,1.344 -0.768,3.328 z"
       id="path62" />
  </g>
  <g
     aria-label="M"
     id="text20"
     style="font-size:64px;font-family:'Cormorant Garamond SemiBold';text-anchor:middle;fill:#F4EFE6">
    <path
       d="m 72.651991,142.256 0.64,-30.784 1.728,0.128 -0.704,30.656 q -0.064,3.392 1.28,5.184 1.408,1.792 4.16,1.792 0.192,0 0.192,0.384 0,0.384 -0.192,0.384 -1.408,0 -2.88,-0.064 -1.472,-0.064 -3.328,-0.064 -1.92,0 -3.52,0.064 -1.536,0.064 -2.944,0.064 -0.192,0 -0.192,-0.384 0,-0.384 0.192,-0.384 2.624,0 4.032,-1.792 1.472,-1.792 1.536,-5.184 z m 45.311999,6.976 q 0.128,0 0.128,0.384 0,0.384 -0.128,0.384 -1.664,0 -3.712,-0.064 -2.048,-0.064 -4.288,-0.064 -2.24,0 -4.224,0.064 -1.92,0.064 -3.52,0.064 -0.128,0 -0.128,-0.384 0,-0.384 0.128,-0.384 3.072,0 3.968,-0.832 0.896,-0.832 0.704,-3.584 l -1.344,-29.248 2.816,-4.416 -16.383999,38.4 q -0.064,0.256 -0.512,0.256 -0.448,0 -0.576,-0.256 l -17.344,-34.24 q -2.304,-4.544 -6.016,-4.544 -0.192,0 -0.192,-0.384 0,-0.384 0.192,-0.384 1.216,0 2.56,0.064 1.408,0.064 2.368,0.064 1.408,0 2.496,-0.064 1.152,-0.064 1.792,-0.064 0.896,0 1.344,0.64 0.512,0.576 1.6,2.688 l 14.4,28.224 -2.752,4.864 15.167999,-34.816 q 0.384,-0.832 0.832,-1.216 0.448,-0.384 1.088,-0.384 0.576,0 1.216,0.064 0.704,0.064 1.664,0.064 1.92,0 3.264,-0.064 1.344,-0.064 2.624,-0.064 0.192,0 0.192,0.384 0,0.384 -0.192,0.384 -2.944,0 -4.352,1.088 -1.408,1.088 -1.28,3.712 l 1.408,29.248 q 0.128,1.856 0.448,2.816 0.384,0.96 1.408,1.28 1.088,0.32 3.136,0.32 z"
       id="path65" />
  </g>
  <g
     aria-label="A"
     id="text22"
     style="font-size:64px;font-family:'Cormorant Garamond SemiBold';text-anchor:middle;fill:#F4EFE6">
    <path
       d="m 139.95399,134.32 0.832,-1.6 h 17.92 l 0.448,1.6 z m 34.048,14.912 q 0.256,0 0.256,0.384 0,0.384 -0.256,0.384 -1.92,0 -3.968,-0.128 -1.984,-0.128 -3.84,-0.128 -2.112,0 -3.712,0.128 -1.536,0.128 -3.456,0.128 -0.256,0 -0.256,-0.384 0,-0.384 0.256,-0.384 2.88,0 3.456,-1.024 0.576,-1.024 -0.96,-4.032 l -13.376,-27.2 2.624,-4.288 -12.672,28.544 q -1.664,3.904 -0.128,5.952 1.6,2.048 5.376,2.048 0.32,0 0.32,0.384 0,0.384 -0.32,0.384 -1.92,0 -3.52,-0.128 -1.6,-0.128 -4.032,-0.128 -2.432,0 -3.904,0.128 -1.408,0.128 -3.52,0.128 -0.256,0 -0.256,-0.384 0,-0.384 0.256,-0.384 1.728,0 2.944,-0.704 1.28,-0.704 2.496,-2.56 1.216,-1.92 2.688,-5.312 l 13.76,-31.04 q 0.128,-0.192 0.576,-0.192 0.448,0 0.512,0.192 l 15.68,31.616 q 1.472,3.072 2.624,4.864 1.152,1.728 2.176,2.432 1.024,0.704 2.176,0.704 z"
       id="path68" />
  </g>
  <g
     aria-label="L"
     id="text24"
     style="font-size:64px;font-family:'Cormorant Garamond SemiBold';text-anchor:middle;fill:#F4EFE6">
    <path
       d="m 195.98999,115.248 v 29.312 q 0,1.6 0.32,2.432 0.32,0.832 1.216,1.088 0.896,0.256 2.624,0.256 h 3.84 q 4.544,0 7.68,-2.56 3.136,-2.56 4.16,-6.784 0.064,-0.192 0.384,-0.128 0.32,0.064 0.32,0.256 -0.192,1.984 -0.384,4.8 -0.192,2.752 -0.192,5.12 0,0.96 -0.96,0.96 h -29.952 q -0.128,0 -0.128,-0.384 0,-0.384 0.128,-0.384 2.048,0 3.072,-0.32 1.088,-0.32 1.408,-1.28 0.384,-0.96 0.384,-2.816 v -29.632 q 0,-1.856 -0.384,-2.752 -0.32,-0.96 -1.408,-1.28 -1.024,-0.384 -3.072,-0.384 -0.128,0 -0.128,-0.384 0,-0.384 0.128,-0.384 1.536,0 3.584,0.128 2.048,0.064 4.288,0.064 2.368,0 4.352,-0.064 2.048,-0.128 3.584,-0.128 0.192,0 0.192,0.384 0,0.384 -0.192,0.384 -2.048,0 -3.136,0.384 -1.024,0.32 -1.408,1.28 -0.32,0.96 -0.32,2.816 z"
       id="path71" />
  </g>
  <g
     aria-label="L"
     id="text26"
     style="font-size:64px;font-family:'Cormorant Garamond SemiBold';text-anchor:middle;fill:#F4EFE6">
    <path
       d="m 239.61999,115.248 v 29.312 q 0,1.6 0.32,2.432 0.32,0.832 1.216,1.088 0.896,0.256 2.624,0.256 h 3.84 q 4.544,0 7.68,-2.56 3.136,-2.56 4.16,-6.784 0.064,-0.192 0.384,-0.128 0.32,0.064 0.32,0.256 -0.192,1.984 -0.384,4.8 -0.192,2.752 -0.192,5.12 0,0.96 -0.96,0.96 h -29.952 q -0.128,0 -0.128,-0.384 0,-0.384 0.128,-0.384 2.048,0 3.072,-0.32 1.088,-0.32 1.408,-1.28 0.384,-0.96 0.384,-2.816 v -29.632 q 0,-1.856 -0.384,-2.752 -0.32,-0.96 -1.408,-1.28 -1.024,-0.384 -3.072,-0.384 -0.128,0 -0.128,-0.384 0,-0.384 0.128,-0.384 1.536,0 3.584,0.128 2.048,0.064 4.288,0.064 2.368,0 4.352,-0.064 2.048,-0.128 3.584,-0.128 0.192,0 0.192,0.384 0,0.384 -0.192,0.384 -2.048,0 -3.136,0.384 -1.024,0.32 -1.408,1.28 -0.32,0.96 -0.32,2.816 z"
       id="path74" />
  </g>
  <g
     aria-label="T"
     id="text28"
     style="font-size:64px;font-family:'Cormorant Garamond SemiBold';text-anchor:middle;fill:#F4EFE6">
    <path
       d="m 307.67001,111.344 q -3.904,0 -6.4,2.432 -2.432,2.432 -3.84,7.168 0,0.192 -0.384,0.192 -0.32,-0.064 -0.32,-0.192 0.128,-0.896 0.256,-2.432 0.128,-1.6 0.256,-3.456 0.192,-1.856 0.256,-3.584 0.128,-1.792 0.128,-2.88 0,-0.32 0.32,-0.32 0.384,0 0.384,0.32 0,0.64 0.64,0.96 0.704,0.256 1.536,0.384 0.832,0.064 1.408,0.064 5.504,0.192 12.864,0.192 4.544,0 7.168,-0.064 2.688,-0.128 5.184,-0.128 2.304,0 3.456,-0.256 1.216,-0.32 1.536,-1.344 0.064,-0.256 0.384,-0.256 0.32,0 0.32,0.256 -0.064,1.024 -0.192,2.816 -0.128,1.728 -0.192,3.712 -0.064,1.92 -0.128,3.584 -0.064,1.6 -0.064,2.432 0,0.128 -0.384,0.128 -0.32,0 -0.384,-0.128 -0.704,-5.056 -3.072,-7.296 -2.368,-2.304 -6.336,-2.304 -1.728,0 -2.624,0.32 -0.896,0.32 -1.216,1.216 -0.32,0.832 -0.32,2.432 v 29.504 q 0,1.856 0.384,2.816 0.448,0.96 1.6,1.28 1.216,0.32 3.648,0.32 0.192,0 0.192,0.384 0,0.384 -0.192,0.384 -1.728,0 -3.968,-0.064 -2.176,-0.064 -4.8,-0.064 -2.496,0 -4.672,0.064 -2.176,0.064 -4.032,0.064 -0.128,0 -0.128,-0.384 0,-0.384 0.128,-0.384 2.432,0 3.648,-0.32 1.216,-0.32 1.6,-1.28 0.448,-0.96 0.448,-2.816 v -29.632 q 0,-1.6 -0.32,-2.368 -0.256,-0.832 -1.152,-1.152 -0.896,-0.32 -2.624,-0.32 z"
       id="path77" />
  </g>
  <g
     aria-label="H"
     id="text30"
     style="font-size:64px;font-family:'Cormorant Garamond SemiBold';text-anchor:middle;fill:#F4EFE6">
    <path
       d="m 379.57804,115.312 q 0,-1.856 -0.384,-2.816 -0.384,-0.96 -1.536,-1.344 -1.152,-0.384 -3.52,-0.384 -0.192,0 -0.192,-0.384 0,-0.384 0.192,-0.384 1.6,0 3.648,0.128 2.112,0.064 4.864,0.064 2.24,0 4.416,-0.064 2.176,-0.128 3.776,-0.128 0.192,0 0.192,0.384 0,0.384 -0.192,0.384 -2.24,0 -3.392,0.384 -1.088,0.32 -1.472,1.28 -0.384,0.896 -0.384,2.752 v 29.632 q 0,1.856 0.384,2.816 0.384,0.96 1.472,1.28 1.152,0.32 3.392,0.32 0.192,0 0.192,0.384 0,0.384 -0.192,0.384 -1.6,0 -3.776,-0.064 -2.176,-0.064 -4.416,-0.064 -2.752,0 -4.864,0.064 -2.048,0.064 -3.648,0.064 -0.192,0 -0.192,-0.384 0,-0.384 0.192,-0.384 2.368,0 3.52,-0.32 1.152,-0.32 1.536,-1.28 0.384,-0.96 0.384,-2.816 z m -25.28,14.72 v -1.664 h 28.032 v 1.664 z m -2.816,14.784 v -29.632 q 0,-1.856 -0.384,-2.752 -0.384,-0.96 -1.472,-1.28 -1.088,-0.384 -3.328,-0.384 -0.128,0 -0.128,-0.384 0,-0.384 0.128,-0.384 1.664,0 3.712,0.128 2.048,0.064 4.288,0.064 2.752,0 4.864,-0.064 2.112,-0.128 3.776,-0.128 0.128,0 0.128,0.384 0,0.384 -0.128,0.384 -2.304,0 -3.456,0.384 -1.152,0.384 -1.536,1.344 -0.384,0.96 -0.384,2.816 v 29.504 q 0,1.856 0.384,2.816 0.384,0.96 1.536,1.28 1.216,0.32 3.456,0.32 0.128,0 0.128,0.384 0,0.384 -0.128,0.384 -1.728,0 -3.84,-0.064 -2.048,-0.064 -4.8,-0.064 -2.24,0 -4.352,0.064 -2.112,0.064 -3.712,0.064 -0.128,0 -0.128,-0.384 0,-0.384 0.128,-0.384 2.24,0 3.328,-0.32 1.088,-0.32 1.472,-1.28 0.448,-0.96 0.448,-2.816 z"
       id="path80" />
  </g>
  <g
     aria-label="I"
     id="text32"
     style="font-size:64px;font-family:'Cormorant Garamond SemiBold';text-anchor:middle;fill:#F4EFE6">
    <path
       d="m 415.84998,144.816 q 0,1.856 0.32,2.816 0.384,0.96 1.408,1.28 1.024,0.32 3.136,0.32 0.192,0 0.192,0.384 0,0.384 -0.192,0.384 -1.6,0 -3.584,-0.064 -1.984,-0.064 -4.416,-0.064 -2.24,0 -4.288,0.064 -2.048,0.064 -3.648,0.064 -0.192,0 -0.192,-0.384 0,-0.384 0.192,-0.384 2.048,0 3.136,-0.32 1.088,-0.32 1.408,-1.28 0.384,-0.96 0.384,-2.816 v -29.632 q 0,-1.856 -0.384,-2.752 -0.32,-0.96 -1.408,-1.28 -1.088,-0.384 -3.136,-0.384 -0.192,0 -0.192,-0.384 0,-0.384 0.192,-0.384 1.6,0 3.648,0.128 2.048,0.064 4.288,0.064 2.432,0 4.416,-0.064 2.048,-0.128 3.584,-0.128 0.192,0 0.192,0.384 0,0.384 -0.192,0.384 -2.048,0 -3.136,0.384 -1.024,0.384 -1.408,1.344 -0.32,0.96 -0.32,2.816 z"
       id="path83" />
  </g>
  <g
     aria-label="N"
     id="text34"
     style="font-size:64px;font-family:'Cormorant Garamond SemiBold';text-anchor:middle;fill:#F4EFE6">
    <path
       d="m 440.65598,142.256 v -30.784 l 1.728,0.128 v 30.656 q 0,3.392 1.344,5.184 1.344,1.792 3.84,1.792 0.192,0 0.192,0.384 0,0.384 -0.192,0.384 -1.344,0 -2.816,-0.064 -1.408,-0.064 -3.136,-0.064 -1.856,0 -3.584,0.064 -1.664,0.064 -3.136,0.064 -0.192,0 -0.192,-0.384 0,-0.384 0.192,-0.384 2.816,0 4.288,-1.792 1.472,-1.792 1.472,-5.184 z m 32.512,8.64 q 0,0.192 -0.32,0.192 -0.32,0.064 -0.448,0 l -30.784,-35.84 q -2.304,-2.624 -3.968,-3.52 -1.6,-0.96 -3.136,-0.96 -0.192,0 -0.192,-0.384 0,-0.384 0.192,-0.384 1.216,0 2.496,0.064 1.28,0.064 2.368,0.064 1.92,0 3.456,-0.064 1.6,-0.064 2.432,-0.064 0.832,0 1.216,0.768 0.384,0.704 1.92,2.56 l 24.256,28.544 z m 0,-33.088 v 33.088 l -1.728,-1.92 v -31.168 q 0,-3.392 -1.344,-5.184 -1.28,-1.856 -3.84,-1.856 -0.128,0 -0.128,-0.384 0,-0.384 0.128,-0.384 1.344,0 2.816,0.128 1.472,0.064 3.2,0.064 1.664,0 3.264,-0.064 1.6,-0.128 2.944,-0.128 0.192,0 0.192,0.384 0,0.384 -0.192,0.384 -2.56,0 -3.968,1.856 -1.344,1.792 -1.344,5.184 z"
       id="path86" />
  </g>
  <g
     aria-label="G"
     id="text36"
     style="font-size:64px;font-family:'Cormorant Garamond SemiBold';text-anchor:middle;fill:#F4EFE6">
    <path
       d="m 515.188,150.768 q -5.568,0 -9.984,-1.6 -4.352,-1.664 -7.424,-4.48 -3.008,-2.88 -4.608,-6.592 -1.536,-3.712 -1.536,-8 0,-4.672 1.856,-8.448 1.856,-3.84 5.184,-6.592 3.328,-2.752 7.808,-4.224 4.48,-1.536 9.792,-1.536 3.136,0 6.144,0.512 3.072,0.512 4.992,1.472 0.64,0.256 0.704,0.448 0.128,0.128 0.192,1.024 l 0.832,8.384 q 0,0.192 -0.32,0.256 -0.32,0.064 -0.448,-0.128 -0.512,-1.6 -1.664,-3.456 -1.088,-1.856 -2.816,-3.456 -1.728,-1.664 -4.16,-2.752 -2.368,-1.088 -5.504,-1.088 -4.416,0 -8,2.24 -3.584,2.24 -5.696,6.336 -2.112,4.096 -2.112,9.792 0,4.416 1.28,8.192 1.28,3.712 3.648,6.592 2.432,2.88 5.824,4.48 3.392,1.6 7.616,1.6 2.624,0 4.224,-0.64 1.6,-0.64 2.304,-2.304 0.704,-1.728 0.704,-4.864 0,-3.072 -0.384,-4.48 -0.32,-1.472 -1.728,-1.92 -1.408,-0.448 -4.544,-0.448 -0.384,0 -0.384,-0.512 0,-0.512 0.32,-0.512 4.352,0.256 7.808,0.32 3.52,0 7.36,-0.192 0.256,0 0.256,0.448 0.064,0.448 -0.256,0.448 -1.216,-0.064 -1.792,0.448 -0.576,0.448 -0.768,2.048 -0.128,1.6 -0.128,4.992 0,2.112 0.128,3.136 0.128,1.024 0.192,1.536 0.128,0.448 0.128,0.96 0,0.384 -0.128,0.512 -0.128,0.128 -0.576,0.256 -3.392,0.768 -7.168,1.28 -3.776,0.512 -7.168,0.512 z"
       id="path89" />
  </g>
  <g
     aria-label="S"
     id="text38"
     style="font-size:64px;font-family:'Cormorant Garamond SemiBold';text-anchor:middle;fill:#F4EFE6">
    <path
       d="m 554.392,116.848 q 0,2.496 1.28,4.352 1.28,1.792 3.264,3.264 2.048,1.472 4.288,2.88 2.432,1.472 4.608,3.136 2.24,1.664 3.648,3.84 1.472,2.112 1.472,5.184 0,3.328 -1.728,5.888 -1.728,2.496 -4.8,3.968 -3.008,1.408 -7.104,1.408 -1.728,0 -3.648,-0.32 -1.856,-0.32 -3.52,-0.896 -1.6,-0.576 -2.624,-1.216 -0.256,-0.192 -0.448,-0.448 -0.128,-0.256 -0.192,-0.768 l -0.384,-9.664 q -0.064,-0.32 0.256,-0.32 0.384,-0.064 0.448,0.192 0.768,1.92 1.792,4.096 1.088,2.112 2.496,3.904 1.408,1.792 3.2,2.944 1.856,1.088 4.224,1.088 1.664,0 3.136,-0.576 1.472,-0.576 2.432,-1.984 0.96,-1.472 0.96,-3.968 0,-3.008 -1.408,-5.12 -1.344,-2.176 -3.456,-3.776 -2.112,-1.6 -4.416,-3.008 -2.24,-1.472 -4.288,-3.008 -2.048,-1.536 -3.392,-3.52 -1.28,-2.048 -1.28,-4.928 0,-3.52 1.92,-5.76 1.92,-2.24 4.864,-3.328 3.008,-1.088 6.144,-1.088 2.112,0 4.288,0.384 2.176,0.384 3.712,1.088 0.576,0.192 0.768,0.512 0.192,0.32 0.192,0.704 l 0.128,8.64 q 0,0.256 -0.32,0.32 -0.256,0.064 -0.384,-0.128 -0.32,-0.96 -0.96,-2.624 -0.64,-1.728 -1.792,-3.456 -1.152,-1.728 -2.88,-2.944 -1.728,-1.216 -4.224,-1.216 -1.92,0 -3.328,0.768 -1.408,0.768 -2.176,2.176 -0.768,1.344 -0.768,3.328 z"
       id="path92" />
  </g>
  <g
     aria-label="F"
     id="text40"
     style="font-size:46px;font-family:'Cormorant Garamond SemiBold';text-anchor:middle;fill:#F4EFE6">
    <path
       d="m 217.03801,208 q -0.138,0 -0.138,-0.276 0,-0.276 0.138,-0.276 1.61,0 2.392,-0.23 0.782,-0.23 1.058,-0.92 0.276,-0.69 0.276,-2.024 v -21.298 q 0,-1.334 -0.276,-1.978 -0.23,-0.69 -0.966,-0.92 -0.736,-0.276 -2.254,-0.276 -0.138,0 -0.138,-0.276 0,-0.276 0.138,-0.276 h 19.136 q 0.46,0 0.46,0.414 l 0.092,5.98 q 0,0.092 -0.23,0.138 -0.23,0 -0.322,-0.138 -0.506,-2.622 -2.116,-3.91 -1.61,-1.288 -4.232,-1.288 h -1.886 q -1.702,0 -2.392,0.598 -0.644,0.598 -0.644,1.978 v 21.068 q 0,1.38 0.368,2.116 0.368,0.69 1.472,0.966 1.104,0.276 3.312,0.276 0.092,0 0.092,0.276 0,0.276 -0.092,0.276 -1.564,0 -3.358,-0.046 -1.794,-0.046 -4.094,-0.046 -1.61,0 -3.128,0.046 -1.518,0.046 -2.668,0.046 z m 17.066,-9.89 q 0,-1.886 -1.334,-2.898 -1.288,-1.012 -3.956,-1.012 h -5.75 v -1.196 h 5.842 q 2.622,0 3.864,-0.874 1.288,-0.92 1.288,-2.576 0,-0.092 0.276,-0.092 0.276,0 0.276,0.092 0,1.518 -0.046,2.346 0,0.828 0,1.702 0,1.104 0.046,2.208 0.046,1.058 0.046,2.3 0,0.138 -0.276,0.138 -0.276,0 -0.276,-0.138 z"
       id="path95" />
  </g>
  <g
     aria-label="A"
     id="text42"
     style="font-size:46px;font-family:'Cormorant Garamond SemiBold';text-anchor:middle;fill:#F4EFE6">
    <path
       d="m 261.40098,196.73 0.598,-1.15 h 12.88 l 0.322,1.15 z m 24.472,10.718 q 0.184,0 0.184,0.276 0,0.276 -0.184,0.276 -1.38,0 -2.852,-0.092 -1.426,-0.092 -2.76,-0.092 -1.518,0 -2.668,0.092 -1.104,0.092 -2.484,0.092 -0.184,0 -0.184,-0.276 0,-0.276 0.184,-0.276 2.07,0 2.484,-0.736 0.414,-0.736 -0.69,-2.898 l -9.614,-19.55 1.886,-3.082 -9.108,20.516 q -1.196,2.806 -0.092,4.278 1.15,1.472 3.864,1.472 0.23,0 0.23,0.276 0,0.276 -0.23,0.276 -1.38,0 -2.53,-0.092 -1.15,-0.092 -2.898,-0.092 -1.748,0 -2.806,0.092 -1.012,0.092 -2.53,0.092 -0.184,0 -0.184,-0.276 0,-0.276 0.184,-0.276 1.242,0 2.116,-0.506 0.92,-0.506 1.794,-1.84 0.874,-1.38 1.932,-3.818 l 9.89,-22.31 q 0.092,-0.138 0.414,-0.138 0.322,0 0.368,0.138 l 11.27,22.724 q 1.058,2.208 1.886,3.496 0.828,1.242 1.564,1.748 0.736,0.506 1.564,0.506 z"
       id="path98" />
  </g>
  <g
     aria-label="R"
     id="text44"
     style="font-size:46px;font-family:'Cormorant Garamond SemiBold';text-anchor:middle;fill:#F4EFE6">
    <path
       d="m 324.62102,208 q -0.69,0 -2.3,-1.748 -1.61,-1.748 -3.91,-5.014 -2.254,-3.312 -5.06,-7.866 l 3.68,-1.104 q 3.726,5.566 6.348,8.924 2.668,3.312 4.692,4.784 2.07,1.472 3.956,1.472 0.092,0 0.092,0.276 0,0.276 -0.092,0.276 -2.898,0 -4.738,0 -1.794,0 -2.668,0 z m -10.442,-28.888 q 4.002,0 6.164,1.61 2.208,1.564 2.208,4.324 0,2.622 -1.518,4.692 -1.472,2.07 -3.864,3.22 -2.346,1.15 -5.06,1.15 -0.552,0 -1.196,0 -0.644,-0.046 -1.15,-0.092 v 10.258 q 0,1.334 0.23,2.024 0.23,0.69 0.966,0.92 0.782,0.23 2.254,0.23 0.138,0 0.138,0.276 0,0.276 -0.138,0.276 -1.15,0 -2.576,-0.046 -1.426,-0.046 -3.128,-0.046 -1.61,0 -3.082,0.046 -1.472,0.046 -2.622,0.046 -0.138,0 -0.138,-0.276 0,-0.276 0.138,-0.276 1.518,0 2.254,-0.23 0.736,-0.23 1.012,-0.92 0.276,-0.69 0.276,-2.024 v -21.298 q 0,-1.334 -0.276,-1.978 -0.23,-0.69 -0.966,-0.92 -0.736,-0.276 -2.254,-0.276 -0.092,0 -0.092,-0.276 0,-0.276 0.092,-0.276 1.15,0 2.576,0.092 1.472,0.046 3.082,0.046 1.472,0 3.312,-0.138 1.84,-0.138 3.358,-0.138 z m 3.818,7.544 q 0,-2.668 -0.644,-4.094 -0.598,-1.472 -1.702,-2.024 -1.104,-0.552 -2.576,-0.552 -1.794,0 -2.576,0.69 -0.736,0.644 -0.736,2.392 v 9.706 q 0.644,0.092 1.38,0.138 0.736,0.046 1.288,0.046 3.082,0 4.324,-1.518 1.242,-1.564 1.242,-4.784 z"
       id="path101" />
  </g>
  <g
     aria-label="M"
     id="text46"
     style="font-size:46px;font-family:'Cormorant Garamond SemiBold';text-anchor:middle;fill:#F4EFE6">
    <path
       d="m 350.99799,202.434 0.46,-22.126 1.242,0.092 -0.506,22.034 q -0.046,2.438 0.92,3.726 1.012,1.288 2.99,1.288 0.138,0 0.138,0.276 0,0.276 -0.138,0.276 -1.012,0 -2.07,-0.046 -1.058,-0.046 -2.392,-0.046 -1.38,0 -2.53,0.046 -1.104,0.046 -2.116,0.046 -0.138,0 -0.138,-0.276 0,-0.276 0.138,-0.276 1.886,0 2.898,-1.288 1.058,-1.288 1.104,-3.726 z m 32.568,5.014 q 0.092,0 0.092,0.276 0,0.276 -0.092,0.276 -1.196,0 -2.668,-0.046 -1.472,-0.046 -3.082,-0.046 -1.61,0 -3.036,0.046 -1.38,0.046 -2.53,0.046 -0.092,0 -0.092,-0.276 0,-0.276 0.092,-0.276 2.208,0 2.852,-0.598 0.644,-0.598 0.506,-2.576 l -0.966,-21.022 2.024,-3.174 -11.776,27.6 q -0.046,0.184 -0.368,0.184 -0.322,0 -0.414,-0.184 l -12.466,-24.61 q -1.656,-3.266 -4.324,-3.266 -0.138,0 -0.138,-0.276 0,-0.276 0.138,-0.276 0.874,0 1.84,0.046 1.012,0.046 1.702,0.046 1.012,0 1.794,-0.046 0.828,-0.046 1.288,-0.046 0.644,0 0.966,0.46 0.368,0.414 1.15,1.932 l 10.35,20.286 -1.978,3.496 10.902,-25.024 q 0.276,-0.598 0.598,-0.874 0.322,-0.276 0.782,-0.276 0.414,0 0.874,0.046 0.506,0.046 1.196,0.046 1.38,0 2.346,-0.046 0.966,-0.046 1.886,-0.046 0.138,0 0.138,0.276 0,0.276 -0.138,0.276 -2.116,0 -3.128,0.782 -1.012,0.782 -0.92,2.668 l 1.012,21.022 q 0.092,1.334 0.322,2.024 0.276,0.69 1.012,0.92 0.782,0.23 2.254,0.23 z"
       id="path104" />
  </g>
  <circle
     cx="193.9"
     cy="194"
     r="4.6"
     fill="#B0813B"
     id="circle48" />
  <line
     x1="177.9"
     y1="194"
     x2="107.9"
     y2="194"
     stroke="#B0813B"
     stroke-width="2.6"
     id="line50" />
  <circle
     cx="406.1"
     cy="194"
     r="4.6"
     fill="#B0813B"
     id="circle52" />
  <line
     x1="422.1"
     y1="194"
     x2="492.1"
     y2="194"
     stroke="#B0813B"
     stroke-width="2.6"
     id="line54" />
</svg>
